SplineFontDB: 3.0
FontName: Tangaria-tg
FullName: Tangaria-tg
FamilyName: Tangaria-tg
Weight: Medium
Copyright: Tangar @ http://tangar.info for Tangaria @ http://tangaria.com
UComments: "Created with FontForge (http://fontforge.org)"
Version: 001.000
ItalicAngle: 0
UnderlinePosition: 2
UnderlineWidth: 50
Ascent: 800
Descent: 200
InvalidEm: 0
LayerCount: 2
Layer: 0 0 "+BBcEMAQ0BD0EOAQ5 +BD8EOwQwBD0A" 1
Layer: 1 0 "+BB8ENQRABDUENAQ9BDgEOQAA +BD8EOwQwBD0A" 0
XUID: [1021 954 -810558476 4622720]
FSType: 0
OS2Version: 0
OS2_WeightWidthSlopeOnly: 0
OS2_UseTypoMetrics: 1
CreationTime: 1607519820
ModificationTime: 1622111783
PfmFamily: 17
TTFWeight: 500
TTFWidth: 5
LineGap: 90
VLineGap: 0
OS2TypoAscent: 0
OS2TypoAOffset: 1
OS2TypoDescent: 0
OS2TypoDOffset: 1
OS2TypoLinegap: 90
OS2WinAscent: 0
OS2WinAOffset: 1
OS2WinDescent: 0
OS2WinDOffset: 1
HheadAscent: 0
HheadAOffset: 1
HheadDescent: 0
HheadDOffset: 1
OS2Vendor: 'PfEd'
MarkAttachClasses: 1
DEI: 91125
LangName: 1033
Encoding: Custom
UnicodeInterp: none
NameList: AGL For New Fonts
DisplaySize: 36
AntiAlias: 1
FitToEm: 0
WinInfo: 0 38 14
BeginPrivate: 0
EndPrivate
TeXData: 1 0 0 699400 349700 233133 457179 1048576 233133 783286 444596 497025 792723 393216 433062 380633 303038 157286 324010 404750 52429 2506097 1059062 262144
BeginChars: 256 256

StartChar: uni0000
Encoding: 0 0 0
Width: 667
VWidth: 0
Flags: HW
LayerCount: 2
Back
Fore
SplineSet
0 802 m 0
 0 821 4 831 12 831 c 0
 32 831 74 774 133 663 c 0
 186 571 236 496 247 496 c 0
 261 496 286 458 306 410 c 2
 342 324 l 1
 394 424 l 2
 422 480 456 524 467 524 c 0
 478 524 522 594 567 677 c 0
 612 757 653 819 660 819 c 0
 661 819 661 819 661 819 c 0
 662 818 662 817 662 816 c 0
 662 779 496 496 475 496 c 0
 464 496 436 455 411 405 c 0
 392 363 382 338 382 314 c 0
 382 291 392 269 411 233 c 0
 433 185 469 138 486 121 c 0
 523 90 658 -140 658 -167 c 0
 658 -169 657 -170 656 -170 c 0
 647 -170 606 -112 564 -40 c 0
 522 33 469 113 444 138 c 0
 422 163 389 205 372 235 c 0
 359 257 350 269 342 269 c 0
 332 269 323 252 308 213 c 0
 292 169 269 135 256 135 c 0
 242 135 214 102 194 58 c 0
 133 -62 53 -170 28 -170 c 0
 25 -170 23 -168 23 -165 c 0
 23 -155 41 -128 69 -98 c 0
 108 -56 139 -9 139 10 c 0
 139 30 167 74 203 113 c 0
 283 203 316 256 316 306 c 0
 316 328 311 348 300 371 c 0
 283 410 261 441 250 441 c 0
 242 441 192 516 139 608 c 0
 86 699 36 774 22 774 c 0
 11 774 0 788 0 802 c 0
EndSplineSet
Validated: 1
EndChar

StartChar: uni0001
Encoding: 1 1 1
Width: 667
VWidth: 0
Flags: HW
LayerCount: 2
Back
Fore
SplineSet
608 -75 m 0
 608 -66 616 -59 625 -59 c 0
 634 -59 642 -66 642 -75 c 0
 642 -84 634 -91 625 -91 c 0
 616 -91 608 -84 608 -75 c 0
525 -75 m 0
 525 -66 533 -59 542 -59 c 0
 551 -59 559 -66 559 -75 c 0
 559 -84 551 -91 542 -91 c 0
 533 -91 525 -84 525 -75 c 0
442 -75 m 0
 442 -66 450 -59 459 -59 c 0
 468 -59 476 -66 476 -75 c 0
 476 -84 468 -91 459 -91 c 0
 450 -91 442 -84 442 -75 c 0
359 -75 m 0
 359 -66 367 -59 376 -59 c 0
 385 -59 393 -66 393 -75 c 0
 393 -84 385 -91 376 -91 c 0
 367 -91 359 -84 359 -75 c 0
274 -75 m 0
 274 -66 282 -59 291 -59 c 0
 300 -59 308 -66 308 -75 c 0
 308 -84 300 -91 291 -91 c 0
 282 -91 274 -84 274 -75 c 0
191 -75 m 0
 191 -66 199 -59 208 -59 c 0
 217 -59 225 -66 225 -75 c 0
 225 -84 217 -91 208 -91 c 0
 199 -91 191 -84 191 -75 c 0
108 -75 m 0
 108 -66 116 -59 125 -59 c 0
 134 -59 142 -66 142 -75 c 0
 142 -84 134 -91 125 -91 c 0
 116 -91 108 -84 108 -75 c 0
25 -75 m 0
 25 -66 33 -59 42 -59 c 0
 51 -59 59 -66 59 -75 c 0
 59 -84 51 -91 42 -91 c 0
 33 -91 25 -84 25 -75 c 0
EndSplineSet
Validated: 1
EndChar

StartChar: uni0002
Encoding: 2 2 2
Width: 667
VWidth: 0
Flags: HW
LayerCount: 2
Back
Fore
SplineSet
208 512 m 0
 208 504 220 497 234 497 c 0
 248 497 260 504 260 512 c 0
 260 520 248 527 234 527 c 0
 220 527 208 520 208 512 c 0
129 762 m 0
 135 779 140 788 146 788 c 0
 154 788 168 774 182 742 c 2
 210 676 l 1
 217 746 l 2
 220 779 226 794 233 794 c 0
 240 794 247 779 253 750 c 0
 261 712 260 705 272 678 c 1
 283 692 284 696 287 708 c 0
 288 712 290 725 292 733 c 0
 294 739 294 743 298 752 c 0
 303 764 306 773 320 791 c 0
 326 798 337 787 343 776 c 0
 348 767 351 756 351 744 c 0
 351 711 328 632 307 602 c 0
 303 596 300 594 297 594 c 0
 286 594 285 636 274 636 c 0
 274 636 274 636 274 636 c 0
 268 635 256 607 250 607 c 0
 248 607 224 606 222 608 c 0
 214 616 208 634 201 634 c 0
 201 634 200 634 200 634 c 0
 183 629 183 603 183 592 c 0
 183 583 185 557 200 552 c 0
 200 552 201 552 201 552 c 0
 208 552 216 576 225 576 c 0
 227 576 249 576 251 576 c 0
 256 576 264 553 269 552 c 0
 269 552 270 552 270 552 c 0
 281 552 290 591 298 591 c 0
 299 591 299 590 300 590 c 0
 310 582 312 552 316 530 c 0
 322 500 332 461 332 420 c 0
 332 373 343 326 357 317 c 0
 359 315 362 314 363 314 c 0
 369 314 372 322 372 334 c 0
 372 342 371 351 368 362 c 0
 357 412 362 417 384 384 c 0
 396 368 403 357 412 357 c 0
 431 357 458 410 551 592 c 0
 607 700 650 775 655 775 c 0
 655 775 655 774 655 774 c 0
 655 773 655 772 654 770 c 0
 590 548 571 495 548 495 c 0
 534 495 532 484 540 467 c 0
 542 465 542 461 542 456 c 0
 542 437 529 402 509 370 c 0
 489 338 479 321 479 311 c 0
 479 301 491 300 515 298 c 0
 559 295 562 292 521 281 c 0
 496 276 465 245 457 215 c 0
 446 187 426 162 412 162 c 0
 398 162 387 90 384 4 c 0
 384 -72 378 -124 372 -124 c 0
 370 -124 369 -122 368 -119 c 0
 361 -104 356 -96 350 -96 c 0
 345 -96 338 -104 329 -119 c 0
 309 -152 304 -149 304 -116 c 0
 304 -80 301 -80 276 -116 c 0
 251 -152 248 -152 248 -116 c 0
 248 -80 246 -80 221 -116 c 0
 196 -152 193 -152 193 -116 c 0
 193 -80 190 -80 165 -116 c 0
 140 -152 137 -152 137 -116 c 0
 137 -80 134 -80 109 -116 c 0
 84 -152 82 -152 82 -116 c 0
 82 -80 79 -80 54 -116 c 0
 49 -124 45 -127 41 -127 c 0
 28 -127 23 -88 23 -29 c 0
 23 91 47 293 84 398 c 0
 112 476 128 560 128 612 c 0
 128 623 127 632 126 640 c 0
 122 659 120 681 120 702 c 0
 120 726 123 749 129 762 c 0
271 484 m 0
 251 460 241 448 229 448 c 0
 218 448 204 448 188 478 c 0
 174 504 165 513 160 513 c 0
 157 513 156 510 156 505 c 0
 156 498 157 490 158 479 c 0
 160 441 182 421 219 421 c 0
 257 421 295 441 298 481 c 0
 301 517 307 534 271 484 c 0
434 234 m 0
 435 236 435 238 435 239 c 0
 435 251 418 262 393 265 c 0
 391 265 389 265 387 265 c 0
 362 265 340 252 340 231 c 0
 340 212 360 202 381 202 c 0
 403 202 427 213 434 234 c 0
EndSplineSet
Validated: 1
EndChar

StartChar: uni0003
Encoding: 3 3 3
Width: 667
VWidth: 0
Flags: HW
LayerCount: 2
Back
Fore
SplineSet
610 -47 m 0
 610 -35 624 -31 639 -31 c 0
 653 -31 670 -34 670 -47 c 0
 670 -61 654 -63 639 -63 c 0
 626 -63 610 -60 610 -47 c 0
526 -47 m 0
 526 -35 540 -31 555 -31 c 0
 569 -31 586 -34 586 -47 c 0
 586 -61 570 -63 555 -63 c 0
 542 -63 526 -60 526 -47 c 0
443 -47 m 0
 443 -35 457 -31 472 -31 c 0
 486 -31 503 -34 503 -47 c 0
 503 -61 487 -63 472 -63 c 0
 459 -63 443 -60 443 -47 c 0
359 -47 m 0
 359 -35 373 -31 388 -31 c 0
 402 -31 419 -34 419 -47 c 0
 419 -61 403 -63 388 -63 c 0
 375 -63 359 -60 359 -47 c 0
276 -47 m 0
 276 -35 290 -31 305 -31 c 0
 319 -31 336 -34 336 -47 c 0
 336 -61 320 -63 305 -63 c 0
 292 -63 276 -60 276 -47 c 0
192 -47 m 0
 192 -35 206 -31 221 -31 c 0
 235 -31 252 -34 252 -47 c 0
 252 -61 236 -63 221 -63 c 0
 208 -63 192 -60 192 -47 c 0
109 -47 m 0
 109 -35 123 -31 138 -31 c 0
 152 -31 169 -34 169 -47 c 0
 169 -61 153 -63 138 -63 c 0
 125 -63 109 -60 109 -47 c 0
25 -47 m 0
 25 -35 39 -31 54 -31 c 0
 68 -31 85 -34 85 -47 c 0
 85 -61 69 -63 54 -63 c 0
 41 -63 25 -60 25 -47 c 0
EndSplineSet
Validated: 1
EndChar

StartChar: uni0004
Encoding: 4 4 4
Width: 667
VWidth: 0
Flags: HW
LayerCount: 2
Back
Fore
SplineSet
287 98 m 0
 296 124 317 136 339 136 c 0
 375 136 414 104 414 54 c 0
 414 10 394 -27 351 -28 c 0
 350 -28 349 -28 348 -28 c 0
 308 -28 279 8 279 55 c 0
 279 68 282 83 287 98 c 0
387 81 m 0
 387 98 376 109 359 109 c 0
 345 109 331 98 331 81 c 0
 331 67 345 54 359 54 c 0
 376 54 387 67 387 81 c 0
EndSplineSet
Validated: 1
EndChar

StartChar: uni0005
Encoding: 5 5 5
Width: 667
VWidth: 0
Flags: HW
LayerCount: 2
Back
Fore
SplineSet
608 -19 m 0
 608 -10 616 -3 625 -3 c 0
 634 -3 642 -10 642 -19 c 0
 642 -28 634 -35 625 -35 c 0
 616 -35 608 -28 608 -19 c 0
497 -19 m 0
 497 -10 505 -3 514 -3 c 0
 523 -3 531 -10 531 -19 c 0
 531 -28 523 -35 514 -35 c 0
 505 -35 497 -28 497 -19 c 0
386 -19 m 0
 386 -10 394 -3 403 -3 c 0
 412 -3 420 -10 420 -19 c 0
 420 -28 412 -35 403 -35 c 0
 394 -35 386 -28 386 -19 c 0
275 -19 m 0
 275 -10 283 -3 292 -3 c 0
 301 -3 309 -10 309 -19 c 0
 309 -28 301 -35 292 -35 c 0
 283 -35 275 -28 275 -19 c 0
163 -19 m 0
 163 -10 171 -3 180 -3 c 0
 189 -3 197 -10 197 -19 c 0
 197 -28 189 -35 180 -35 c 0
 171 -35 163 -28 163 -19 c 0
53 -19 m 0
 53 -10 61 -3 70 -3 c 0
 79 -3 87 -10 87 -19 c 0
 87 -28 79 -35 70 -35 c 0
 61 -35 53 -28 53 -19 c 0
580 64 m 0
 580 73 588 80 597 80 c 0
 606 80 614 73 614 64 c 0
 614 55 606 48 597 48 c 0
 588 48 580 55 580 64 c 0
497 64 m 0
 497 73 505 80 514 80 c 0
 523 80 531 73 531 64 c 0
 531 55 523 48 514 48 c 0
 505 48 497 55 497 64 c 0
414 64 m 0
 414 73 422 80 431 80 c 0
 440 80 448 73 448 64 c 0
 448 55 440 48 431 48 c 0
 422 48 414 55 414 64 c 0
331 64 m 0
 331 73 339 80 348 80 c 0
 357 80 365 73 365 64 c 0
 365 55 357 48 348 48 c 0
 339 48 331 55 331 64 c 0
246 64 m 0
 246 73 254 80 263 80 c 0
 272 80 280 73 280 64 c 0
 280 55 272 48 263 48 c 0
 254 48 246 55 246 64 c 0
163 64 m 0
 163 73 171 80 180 80 c 0
 189 80 197 73 197 64 c 0
 197 55 189 48 180 48 c 0
 171 48 163 55 163 64 c 0
80 64 m 0
 80 73 88 80 97 80 c 0
 106 80 114 73 114 64 c 0
 114 55 106 48 97 48 c 0
 88 48 80 55 80 64 c 0
-3 64 m 0
 -3 73 5 80 14 80 c 0
 23 80 31 73 31 64 c 0
 31 55 23 48 14 48 c 0
 5 48 -3 55 -3 64 c 0
EndSplineSet
Validated: 1
EndChar

StartChar: uni0006
Encoding: 6 6 6
Width: 667
VWidth: 0
Flags: HW
LayerCount: 2
Back
Fore
SplineSet
609 -20 m 0
 609 -12 616 -5 625 -5 c 0
 634 -5 641 -12 641 -20 c 0
 641 -28 634 -35 625 -35 c 0
 616 -35 609 -28 609 -20 c 0
582 63 m 0
 582 71 589 78 598 78 c 0
 607 78 614 71 614 63 c 0
 614 55 607 48 598 48 c 0
 589 48 582 55 582 63 c 0
499 -20 m 0
 499 -12 506 -5 515 -5 c 0
 524 -5 531 -12 531 -20 c 0
 531 -28 524 -35 515 -35 c 0
 506 -35 499 -28 499 -20 c 0
497 64 m 0
 497 72 504 79 513 79 c 0
 522 79 529 72 529 64 c 0
 529 56 522 49 513 49 c 0
 504 49 497 56 497 64 c 0
165 -19 m 0
 165 -11 172 -4 181 -4 c 0
 190 -4 197 -11 197 -19 c 0
 197 -27 190 -34 181 -34 c 0
 172 -34 165 -27 165 -19 c 0
54 -20 m 0
 54 -12 61 -5 70 -5 c 0
 79 -5 86 -12 86 -20 c 0
 86 -28 79 -35 70 -35 c 0
 61 -35 54 -28 54 -20 c 0
165 64 m 0
 165 72 172 79 181 79 c 0
 190 79 197 72 197 64 c 0
 197 56 190 49 181 49 c 0
 172 49 165 56 165 64 c 0
82 64 m 0
 82 72 89 79 98 79 c 0
 107 79 114 72 114 64 c 0
 114 56 107 49 98 49 c 0
 89 49 82 56 82 64 c 0
-3 64 m 0
 -3 72 4 79 13 79 c 0
 22 79 29 72 29 64 c 0
 29 56 22 49 13 49 c 0
 4 49 -3 56 -3 64 c 0
239 108 m 0
 244 117 253 122 263 122 c 0
 269 122 275 120 280 116 c 0
 289 111 295 101 295 90 c 0
 295 85 293 79 289 74 c 0
 283 65 274 60 264 60 c 0
 258 60 252 62 247 66 c 0
 238 71 233 81 233 91 c 0
 233 97 235 103 239 108 c 0
405 108 m 0
 411 117 420 122 430 122 c 0
 436 122 442 120 447 116 c 0
 456 111 461 101 461 91 c 0
 461 85 459 79 455 74 c 0
 450 65 441 60 431 60 c 0
 425 60 419 62 414 66 c 0
 405 71 399 81 399 92 c 0
 399 97 401 103 405 108 c 0
322 52 m 0
 327 61 337 66 347 66 c 0
 353 66 359 64 364 60 c 0
 373 55 378 46 378 36 c 0
 378 30 376 24 372 19 c 0
 367 10 357 4 346 4 c 0
 341 4 335 6 330 10 c 0
 321 16 316 25 316 35 c 0
 316 41 318 47 322 52 c 0
EndSplineSet
Validated: 1
EndChar

StartChar: uni0007
Encoding: 7 7 7
Width: 667
VWidth: 0
Flags: HW
LayerCount: 2
Back
Fore
SplineSet
550 -47 m 0
 550 -37 571 -29 597 -29 c 0
 623 -29 644 -37 644 -47 c 0
 644 -57 623 -65 597 -65 c 0
 571 -65 550 -57 550 -47 c 0
413 -48 m 0
 413 -38 440 -30 474 -30 c 0
 508 -30 535 -38 535 -48 c 0
 535 -58 508 -66 474 -66 c 0
 440 -66 413 -58 413 -48 c 0
272 -47 m 0
 272 -37 299 -29 333 -29 c 0
 367 -29 394 -37 394 -47 c 0
 394 -57 367 -65 333 -65 c 0
 299 -65 272 -57 272 -47 c 0
135 -47 m 0
 135 -37 162 -29 196 -29 c 0
 230 -29 257 -37 257 -47 c 0
 257 -57 230 -65 196 -65 c 0
 162 -65 135 -57 135 -47 c 0
-6 -46 m 0
 -6 -36 21 -28 55 -28 c 0
 89 -28 116 -36 116 -46 c 0
 116 -56 89 -64 55 -64 c 0
 21 -64 -6 -56 -6 -46 c 0
EndSplineSet
Validated: 1
EndChar

StartChar: uni0008
Encoding: 8 8 8
Width: 667
VWidth: 0
Flags: HW
LayerCount: 2
Back
Fore
SplineSet
18 339 m 0
 26 362 31 374 38 374 c 0
 46 374 56 362 76 339 c 0
 94 315 105 303 114 303 c 0
 124 303 132 314 145 336 c 0
 160 357 170 368 179 368 c 0
 188 368 198 357 215 336 c 0
 232 314 241 303 251 303 c 0
 261 303 270 314 287 336 c 0
 304 357 313 368 323 368 c 0
 332 368 341 357 356 336 c 0
 372 314 381 303 390 303 c 0
 399 303 408 314 423 336 c 0
 438 357 448 368 457 368 c 0
 466 368 476 357 493 336 c 0
 510 314 519 303 529 303 c 0
 538 303 548 314 565 336 c 0
 580 355 590 366 599 366 c 0
 609 366 619 352 637 322 c 0
 668 272 668 267 637 294 c 0
 624 307 612 314 600 314 c 0
 589 314 578 309 565 297 c 0
 551 286 539 280 528 280 c 0
 517 280 506 286 495 297 c 0
 483 309 472 315 460 315 c 0
 450 315 439 310 426 300 c 0
 414 289 402 284 390 284 c 0
 378 284 366 289 354 300 c 0
 341 310 330 315 319 315 c 0
 307 315 296 309 284 297 c 0
 273 286 263 280 252 280 c 0
 241 280 229 286 215 297 c 0
 201 310 190 316 179 316 c 0
 168 316 158 310 145 297 c 0
 134 286 124 280 113 280 c 0
 102 280 90 286 76 297 c 0
 62 310 46 317 34 317 c 0
 27 317 22 315 18 311 c 0
 6 300 6 311 18 339 c 0
EndSplineSet
Validated: 1
EndChar

StartChar: uni0009
Encoding: 9 9 9
Width: 667
VWidth: 0
Flags: HW
LayerCount: 2
Back
Fore
SplineSet
258 285 m 0
 255 300 253 310 253 317 c 0
 253 321 254 323 256 323 c 0
 262 323 274 312 297 291 c 0
 321 268 334 257 348 257 c 0
 361 257 374 267 397 288 c 0
 419 308 432 318 439 318 c 0
 446 318 447 309 447 291 c 0
 447 266 428 232 403 210 c 0
 388 198 371 192 354 192 c 0
 311 192 268 229 258 285 c 0
EndSplineSet
Validated: 1
EndChar

StartChar: uni000A
Encoding: 10 10 10
Width: 667
VWidth: 0
Flags: HW
LayerCount: 2
Back
Fore
SplineSet
0 661 m 0
 0 744 3 744 153 744 c 0
 264 744 311 733 322 702 c 0
 327 691 329 680 329 670 c 0
 329 613 257 577 136 577 c 0
 3 577 0 580 0 661 c 0
403 716 m 0
 411 730 475 744 545 744 c 0
 661 744 667 741 667 661 c 0
 667 580 661 577 545 577 c 0
 445 577 417 588 403 633 c 0
 399 648 397 665 397 680 c 0
 397 695 399 708 403 716 c 0
0 411 m 0
 0 498 2 519 42 519 c 0
 52 519 64 518 78 516 c 0
 145 508 153 497 153 411 c 0
 153 325 145 313 78 305 c 0
 64 304 53 302 43 302 c 0
 2 302 0 322 0 411 c 0
272 502 m 0
 297 511 397 516 495 519 c 2
 667 522 l 1
 667 411 l 1
 667 300 l 1
 489 300 l 2
 392 300 292 308 267 316 c 0
 237 328 223 368 223 408 c 0
 223 451 239 494 272 502 c 0
0 161 m 0
 0 244 3 244 150 244 c 0
 278 244 306 236 320 188 c 0
 325 171 328 156 328 144 c 0
 328 92 280 77 150 77 c 0
 3 77 0 77 0 161 c 0
403 216 m 0
 411 230 475 244 545 244 c 0
 661 244 667 241 667 161 c 0
 667 80 661 77 545 77 c 0
 445 77 417 88 403 133 c 0
 399 148 397 165 397 180 c 0
 397 195 399 208 403 216 c 0
0 -89 m 0
 0 -27 6 -9 44 -9 c 0
 53 -9 64 -10 78 -12 c 0
 136 -17 153 -34 153 -89 c 0
 153 -145 136 -162 78 -167 c 0
 65 -169 54 -169 45 -169 c 0
 6 -169 0 -152 0 -89 c 0
259 -25 m 0
 275 -17 375 -9 481 -9 c 2
 667 -6 l 1
 667 -89 l 1
 667 -173 l 1
 489 -173 l 2
 392 -173 292 -164 267 -156 c 0
 239 -146 224 -115 224 -86 c 0
 224 -60 236 -34 259 -25 c 0
EndSplineSet
Validated: 1
EndChar

StartChar: uni000B
Encoding: 11 11 11
Width: 667
VWidth: 0
Flags: HW
LayerCount: 2
Back
Fore
SplineSet
0 661 m 1
 0 744 l 1
 167 744 l 1
 334 744 l 1
 334 661 l 1
 334 577 l 1
 167 577 l 1
 0 577 l 1
 0 661 l 1
389 661 m 0
 389 741 392 744 528 744 c 0
 664 744 667 741 667 661 c 0
 667 580 664 577 528 577 c 0
 392 577 389 580 389 661 c 0
0 411 m 0
 0 516 6 522 84 522 c 0
 161 522 167 516 167 411 c 0
 167 305 161 300 84 300 c 0
 6 300 0 305 0 411 c 0
223 411 m 1
 223 522 l 1
 445 522 l 1
 667 522 l 1
 667 411 l 1
 667 300 l 1
 445 300 l 1
 223 300 l 1
 223 411 l 1
0 161 m 1
 0 244 l 1
 167 244 l 1
 334 244 l 1
 334 161 l 1
 334 77 l 1
 167 77 l 1
 0 77 l 1
 0 161 l 1
389 161 m 0
 389 241 392 244 528 244 c 0
 664 244 667 241 667 161 c 0
 667 80 664 77 528 77 c 0
 392 77 389 80 389 161 c 0
0 -89 m 0
 0 -14 9 -6 84 -6 c 0
 159 -6 167 -14 167 -89 c 0
 167 -164 159 -173 84 -173 c 0
 9 -173 0 -164 0 -89 c 0
223 -89 m 1
 223 -6 l 1
 445 -6 l 1
 667 -6 l 1
 667 -89 l 1
 667 -173 l 1
 445 -173 l 1
 223 -173 l 1
 223 -89 l 1
EndSplineSet
Validated: 1
EndChar

StartChar: uni000C
Encoding: 12 12 12
Width: 667
VWidth: 0
Flags: HW
LayerCount: 2
Back
Fore
SplineSet
-1 661 m 1
 -1 744 l 1
 166 744 l 1
 333 744 l 1
 333 661 l 1
 333 577 l 1
 166 577 l 1
 -1 577 l 1
 -1 661 l 1
388 661 m 0
 388 741 391 744 527 744 c 0
 663 744 666 741 666 661 c 0
 666 580 663 577 527 577 c 0
 391 577 388 580 388 661 c 0
499 661 m 0
 499 677 488 688 471 688 c 0
 458 688 444 677 444 661 c 0
 444 647 458 633 471 633 c 0
 488 633 499 647 499 661 c 0
-1 411 m 0
 -1 516 5 522 83 522 c 0
 160 522 166 516 166 411 c 0
 166 305 160 300 83 300 c 0
 5 300 -1 305 -1 411 c 0
138 425 m 0
 138 447 127 466 110 466 c 0
 96 466 83 447 83 425 c 0
 83 402 96 383 110 383 c 0
 127 383 138 402 138 425 c 0
221 411 m 1
 221 522 l 1
 444 522 l 1
 666 522 l 1
 666 411 l 1
 666 300 l 1
 444 300 l 1
 221 300 l 1
 221 411 l 1
-1 161 m 1
 -1 244 l 1
 166 244 l 1
 333 244 l 1
 333 161 l 1
 333 77 l 1
 166 77 l 1
 -1 77 l 1
 -1 161 l 1
388 161 m 0
 388 241 391 244 527 244 c 0
 663 244 666 241 666 161 c 0
 666 80 663 77 527 77 c 0
 391 77 388 80 388 161 c 0
499 161 m 0
 499 177 488 188 471 188 c 0
 458 188 444 177 444 161 c 0
 444 147 458 133 471 133 c 0
 488 133 499 147 499 161 c 0
-1 -89 m 0
 -1 -14 8 -6 83 -6 c 0
 158 -6 166 -14 166 -89 c 0
 166 -164 158 -173 83 -173 c 0
 8 -173 -1 -164 -1 -89 c 0
138 -62 m 0
 138 -45 127 -34 110 -34 c 0
 96 -34 83 -45 83 -62 c 0
 83 -75 96 -89 110 -89 c 0
 127 -89 138 -75 138 -62 c 0
221 -89 m 1
 221 -6 l 1
 444 -6 l 1
 666 -6 l 1
 666 -89 l 1
 666 -173 l 1
 444 -173 l 1
 221 -173 l 1
 221 -89 l 1
EndSplineSet
Validated: 1
EndChar

StartChar: uni000D
Encoding: 13 13 13
Width: 667
VWidth: 0
Flags: HW
LayerCount: 2
Back
Fore
SplineSet
629 -158 m 0
 629 -148 638 -140 648 -140 c 0
 658 -140 667 -148 667 -158 c 0
 667 -168 658 -176 648 -176 c 0
 638 -176 629 -168 629 -158 c 0
-2 802 m 0
 -2 819 128 830 331 830 c 0
 594 830 666 827 666 774 c 0
 666 758 659 736 648 708 c 0
 636 678 611 664 585 664 c 0
 555 664 524 683 512 719 c 0
 500 754 477 775 460 775 c 0
 450 775 442 767 442 747 c 0
 442 733 406 719 359 719 c 0
 314 719 275 733 275 747 c 0
 275 767 267 775 257 775 c 0
 241 775 218 754 206 719 c 0
 198 688 164 663 137 663 c 0
 109 663 75 688 67 719 c 0
 59 749 37 774 23 774 c 0
 9 774 -2 788 -2 802 c 0
178 624 m 0
 212 677 245 691 331 691 c 0
 473 691 553 616 553 486 c 0
 553 413 539 386 498 372 c 0
 467 363 442 341 442 327 c 0
 442 310 400 302 352 302 c 0
 291 302 219 315 212 338 c 0
 208 350 199 357 190 357 c 0
 186 357 181 355 178 352 c 0
 173 347 170 341 170 335 c 0
 170 298 255 247 331 247 c 0
 378 247 442 272 475 302 c 0
 504 328 532 346 543 346 c 0
 545 346 547 345 548 344 c 0
 553 339 555 332 555 321 c 0
 555 275 512 181 464 136 c 0
 425 100 383 82 340 82 c 0
 299 82 259 98 220 130 c 0
 169 172 139 308 139 432 c 0
 139 510 151 583 178 624 c 0
459 594 m 0
 433 620 380 633 328 633 c 0
 275 633 222 619 198 591 c 0
 186 578 181 565 181 553 c 0
 181 505 260 469 339 469 c 0
 385 469 430 481 459 511 c 0
 478 529 488 541 488 552 c 0
 488 564 478 576 459 594 c 0
-2 594 m 0
 -2 633 9 663 25 663 c 0
 66 663 106 570 106 473 c 0
 106 470 106 466 106 463 c 2
 103 372 l 1
 75 449 l 2
 62 491 37 524 23 524 c 0
 9 524 -2 555 -2 594 c 0
617 591 m 0
 627 604 639 612 649 612 c 0
 655 612 660 609 662 602 c 0
 664 595 666 585 666 573 c 0
 666 509 633 386 609 386 c 0
 591 386 582 420 582 462 c 0
 582 510 594 568 617 591 c 0
-2 330 m 0
 -2 371 9 388 24 388 c 0
 53 388 99 322 117 227 c 0
 121 208 122 192 122 179 c 0
 122 151 115 136 104 136 c 0
 92 136 75 158 64 205 c 0
 56 244 37 274 23 274 c 0
 9 274 -2 299 -2 330 c 0
617 338 m 0
 621 339 625 340 628 340 c 0
 651 340 663 315 663 274 c 0
 663 254 660 229 653 202 c 0
 642 158 617 136 575 136 c 0
 546 136 533 139 533 147 c 0
 533 152 538 159 548 169 c 0
 567 188 581 230 581 263 c 0
 581 297 598 330 617 338 c 0
-2 66 m 0
 -2 111 7 134 26 134 c 0
 37 134 53 125 73 105 c 0
 102 76 237 59 366 59 c 0
 434 59 500 64 548 74 c 0
 591 84 619 90 636 90 c 0
 662 90 664 75 664 38 c 0
 664 -62 637 -114 581 -114 c 0
 553 -114 520 -89 512 -59 c 0
 500 -23 485 -5 470 -5 c 0
 454 -5 439 -23 428 -59 c 0
 420 -89 387 -114 359 -114 c 0
 331 -114 298 -89 289 -59 c 0
 281 -28 262 -3 248 -3 c 0
 234 -3 214 -28 206 -59 c 0
 198 -89 164 -114 137 -114 c 0
 109 -114 75 -89 67 -59 c 0
 59 -28 37 -3 23 -3 c 0
 9 -3 -2 27 -2 66 c 0
-2 -142 m 0
 -2 -126 9 -114 23 -114 c 0
 39 -114 59 -126 67 -142 c 0
 69 -145 70 -148 70 -151 c 0
 70 -161 59 -170 42 -170 c 0
 17 -170 -2 -156 -2 -142 c 0
206 -142 m 0
 214 -126 234 -114 248 -114 c 0
 262 -114 281 -126 289 -142 c 0
 291 -145 291 -147 291 -149 c 0
 291 -161 275 -170 248 -170 c 0
 220 -170 204 -160 204 -149 c 0
 204 -147 205 -144 206 -142 c 0
428 -142 m 0
 437 -126 456 -114 470 -114 c 0
 484 -114 503 -126 512 -142 c 0
 513 -144 514 -147 514 -149 c 0
 514 -160 498 -170 470 -170 c 0
 442 -170 426 -160 426 -149 c 0
 426 -147 427 -144 428 -142 c 0
EndSplineSet
Validated: 1
EndChar

StartChar: uni000E
Encoding: 14 14 14
Width: 667
VWidth: 0
Flags: HW
LayerCount: 2
Back
Fore
SplineSet
340 669 m 2
 418 841 l 1
 474 775 l 2
 526 711 665 300 665 208 c 0
 665 185.715741431 657.765624849 175.316527752 641.439585534 175.316527752 c 0
 635.054202021 175.316527752 627.278047329 176.907317557 618 180 c 0
 585 194 579 188 596 161 c 0
 610 138 604 130 582 138 c 0
 560 144 532 175 515 202 c 0
 479 266 424 327 404 327 c 0
 401.607522579 327 400.531077572 324.669195605 400.531077572 320.556641288 c 0
 400.531077572 292.009103874 452.399836335 177.607522579 476 161 c 0
 487 152 518 94 543 36 c 0
 568 -25 607 -98 632 -123 c 0
 641.185462446 -134.069659871 647.43091557 -142.698557286 647.43091557 -149.422357051 c 0
 647.43091557 -171.246732447 581.632103007 -173 337 -173 c 0
 151 -173 -1 -167 -1 -162 c 0
 -1 -153 26 -117 62 -78 c 0
 99 -42 149 61 174 144 c 0
 201 230 235 300 251 300 c 0
 265 300 276 319 276 344 c 0
 276 367.159871533 285.488505765 379.156795107 305.299492911 379.156795107 c 0
 312.005949985 379.156795107 319.895334684 377.781981069 329 375 c 0
 338.101053477 372.89975689 345.513938377 371.779740696 351.429276442 371.779740696 c 0
 365.13247271 371.779740696 370.799204494 377.790217403 370.799204494 391.548974798 c 0
 370.799204494 397.302187642 369.808383696 404.410177445 368 413 c 0
 360 444 346 466 337 466 c 0
 312 466 137 261 137 233 c 0
 137 197 51 105 18 105 c 0
 6.63212201871 105 1.38157657222 123.182071701 1.38157657222 153.751124283 c 0
 1.38157657222 228.055914706 32.4038835562 375.547905856 82 513 c 0
 119.626069553 616.331295489 144.637114735 666.048737402 164.825958873 666.048737402 c 0
 180.586991331 666.048737402 193.409076957 635.747860894 207 577 c 0
 218 530 235 494 243 494 c 0
 254 494 299 572 340 669 c 2
426 566 m 0
 434.355926159 584.99074127 438.095554667 603.98148254 438.095554667 613.328863235 c 0
 438.095554667 616.286664 437.721111048 618.278888952 437 619 c 0
 436.227633548 619.772366452 435.184108034 620.135529229 433.91131029 620.135529229 c 0
 417.056993449 620.135529229 360 556.455267096 360 536 c 0
 360 524.53766186 365.682750676 519.553659491 373.829687778 519.553659491 c 0
 389.848488775 519.553659491 415.394041478 538.822231286 426 566 c 0
140 436 m 0
 150.173098826 462.159396981 157.178077048 488.318793962 157.178077048 502.583932326 c 0
 157.178077048 507.950170843 156.186800671 511.633249581 154 513 c 0
 152.931703405 514.068296595 151.770242924 514.571787125 150.536945698 514.571787125 c 0
 136.125413924 514.571787125 111.904731103 445.821251717 111.904731103 406.155953271 c 0
 111.904731103 404.731621888 111.935962184 403.344794129 112 402 c 0
 112 396.627412382 113.119406559 394.133298774 115.041687582 394.133298774 c 0
 119.917497542 394.133298774 129.958748771 410.179639697 140 436 c 0
610 327 m 0
 610 344 599 355 582 355 c 0
 568 355 554 344 554 327 c 0
 554 313 568 300 582 300 c 0
 599 300 610 313 610 327 c 0
371 200 m 0
 359.238442291 245.281997178 338.139323401 271.888871992 322.752635158 271.888871992 c 0
 311.974951938 271.888871992 304 258.83454802 304 230 c 0
 304 208 318 188 332 188 c 0
 349 188 360 169 360 141 c 0
 360 121.170240565 363.145754874 108.261141853 368.938228123 108.261141853 c 0
 370.448507673 108.261141853 372.138713397 109.138713397 374 111 c 0
 378.76345054 114.464327665 380.901558479 123.741913946 380.901558479 136.558997091 c 0
 380.901558479 153.339768151 377.23654946 176.187720243 371 200 c 0
268 -23 m 0
 270.28821222 -21.1278263655 271.364807708 -19.2989247572 271.364807708 -17.6033093378 c 0
 271.364807708 -12.3382603964 260.984680737 -8.35830653421 244.266714971 -8.35830653421 c 0
 240.486309076 -8.35830653421 236.381823957 -8.56181760425 232 -9 c 0
 201 -9 193 -17 215 -25 c 0
 223.571428571 -28.8571428571 233.06122449 -30.5102040816 241.737609329 -30.5102040816 c 0
 253.306122449 -30.5102040816 263.428571429 -27.5714285714 268 -23 c 0
EndSplineSet
Validated: 1
EndChar

StartChar: uni000F
Encoding: 15 15 15
Width: 667
VWidth: 0
Flags: HW
LayerCount: 2
Back
Fore
SplineSet
180 682 m 0
 202 715 238 743 258 743 c 0
 333 743 435 629 480 501 c 0
 505 426 519 386 519 370 c 0
 519 364 517 361 513 361 c 0
 504 361 484 375 452 396 c 0
 420 417 401 427 384 427 c 0
 368 427 355 417 333 398 c 0
 305 373 274 354 263 354 c 0
 227 354 163 276 163 234 c 0
 163 212 144 179 122 159 c 0
 108 146 97 140 90 140 c 0
 83 140 80 146 80 157 c 0
 80 173 60 187 38 187 c 0
 16 187 -3 212 -3 243 c 0
 -3 301 110 576 180 682 c 0
358 590 m 0
 358 612 347 632 330 632 c 0
 316 632 302 612 302 590 c 0
 302 568 316 548 330 548 c 0
 347 548 358 568 358 590 c 0
135 298 m 0
 135 315 124 326 108 326 c 0
 94 326 80 315 80 298 c 0
 80 284 94 271 108 271 c 0
 124 271 135 284 135 298 c 0
272 315 m 0
 318 358 354 379 392 379 c 0
 422 379 453 366 491 340 c 0
 555 294 632 71 632 -54 c 0
 632 -64 631 -73 630 -82 c 2
 622 -160 l 1
 352 -157 l 2
 202 -157 72 -149 63 -138 c 0
 60 -135 59 -131 59 -124 c 0
 59 -50 201 249 272 315 c 0
385 271 m 0
 385 287 374 298 358 298 c 0
 344 298 330 287 330 271 c 0
 330 257 344 243 358 243 c 0
 374 243 385 257 385 271 c 0
EndSplineSet
Validated: 1
EndChar

StartChar: uni0010
Encoding: 16 16 16
Width: 667
VWidth: 0
Flags: HW
LayerCount: 2
Back
Fore
SplineSet
1 798 m 0
 1 817 5 826 13 826 c 0
 33 826 75 769 134 659 c 0
 187 567 237 492 248 492 c 0
 262 492 287 453 306 406 c 2
 342 320 l 1
 395 420 l 2
 423 476 456 520 467 520 c 0
 479 520 523 589 567 673 c 0
 613 752 652 814 661 814 c 0
 661 814 662 814 662 814 c 0
 663 813 663 812 663 811 c 0
 663 775 497 492 476 492 c 0
 465 492 437 451 412 401 c 0
 392 359 383 334 383 310 c 0
 383 287 392 264 412 228 c 0
 434 181 470 134 487 117 c 0
 524 86 658 -143 658 -171 c 0
 658 -173 657 -174 656 -174 c 0
 648 -174 606 -116 565 -44 c 0
 523 28 470 109 445 134 c 0
 423 159 390 201 373 231 c 0
 359 253 350 265 343 265 c 0
 333 265 324 247 309 209 c 0
 292 164 270 131 256 131 c 0
 242 131 215 98 195 53 c 0
 134 -66 54 -174 29 -174 c 0
 26 -174 24 -172 24 -169 c 0
 24 -159 42 -132 70 -102 c 0
 109 -61 140 -13 140 6 c 0
 140 26 167 70 204 109 c 0
 284 199 317 252 317 303 c 0
 317 324 312 344 301 367 c 0
 284 406 262 437 251 437 c 0
 242 437 192 512 140 603 c 0
 87 695 37 770 23 770 c 0
 12 770 1 784 1 798 c 0
EndSplineSet
Validated: 1
EndChar

StartChar: uni0011
Encoding: 17 17 17
Width: 667
VWidth: 0
Flags: HW
LayerCount: 2
Back
Fore
SplineSet
0 798 m 0
 0 817 4 827 12 827 c 0
 32 827 74 770 133 659 c 0
 186 567 236 492 247 492 c 0
 261 492 286 454 306 406 c 2
 342 320 l 1
 394 420 l 2
 422 476 456 520 467 520 c 0
 478 520 522 590 567 673 c 0
 612 753 653 815 660 815 c 0
 661 815 661 815 661 815 c 0
 662 814 662 813 662 812 c 0
 662 775 496 492 475 492 c 0
 464 492 436 451 411 401 c 0
 392 359 382 334 382 310 c 0
 382 287 392 265 411 229 c 0
 433 181 469 134 486 117 c 0
 523 86 658 -144 658 -171 c 0
 658 -173 657 -174 656 -174 c 0
 647 -174 606 -116 564 -44 c 0
 522 29 469 109 444 134 c 0
 422 159 389 201 372 231 c 0
 359 253 350 265 342 265 c 0
 332 265 323 248 308 209 c 0
 292 165 269 131 256 131 c 0
 242 131 214 98 194 54 c 0
 133 -66 53 -174 28 -174 c 0
 25 -174 23 -172 23 -169 c 0
 23 -159 41 -132 69 -102 c 0
 108 -60 139 -13 139 6 c 0
 139 26 167 70 203 109 c 0
 283 199 316 252 316 302 c 0
 316 324 311 344 300 367 c 0
 283 406 261 437 250 437 c 0
 242 437 192 512 139 604 c 0
 86 695 36 770 22 770 c 0
 11 770 0 784 0 798 c 0
EndSplineSet
Validated: 1
EndChar

StartChar: uni0012
Encoding: 18 18 18
Width: 667
VWidth: 0
Flags: HW
LayerCount: 2
Back
Fore
SplineSet
-2 802 m 0
 -2 821 2 830 10 830 c 0
 30 830 72 773 132 663 c 0
 184 571 234 496 246 496 c 0
 259 496 284 457 304 410 c 2
 340 324 l 1
 393 424 l 2
 421 480 454 524 465 524 c 0
 476 524 521 593 565 677 c 0
 610 756 650 818 658 818 c 0
 658 818 659 818 659 818 c 0
 660 817 660 816 660 815 c 0
 660 779 495 496 473 496 c 0
 462 496 434 455 409 405 c 0
 390 363 380 338 380 314 c 0
 380 291 390 268 409 232 c 0
 432 185 468 138 484 121 c 0
 521 90 656 -140 656 -167 c 0
 656 -169 655 -170 654 -170 c 0
 646 -170 604 -112 562 -40 c 0
 521 32 468 113 443 138 c 0
 421 163 387 205 371 235 c 0
 357 257 348 269 340 269 c 0
 330 269 322 251 307 213 c 0
 290 168 268 135 254 135 c 0
 240 135 212 102 193 57 c 0
 132 -62 51 -170 26 -170 c 0
 23 -170 22 -168 22 -166 c 0
 22 -155 40 -128 68 -98 c 0
 107 -57 137 -9 137 10 c 0
 137 30 165 74 201 113 c 0
 281 203 314 256 314 306 c 0
 314 327 309 348 298 371 c 0
 282 410 259 441 248 441 c 0
 240 441 190 516 137 607 c 0
 84 699 34 774 21 774 c 0
 9 774 -2 788 -2 802 c 0
EndSplineSet
Validated: 1
EndChar

StartChar: uni0013
Encoding: 19 19 19
Width: 667
VWidth: 0
Flags: HW
LayerCount: 2
Back
Fore
SplineSet
0 798 m 0
 0 817 4 826 12 826 c 0
 32 826 74 769 134 659 c 0
 186 567 236 492 248 492 c 0
 261 492 286 453 306 406 c 2
 342 320 l 1
 395 420 l 2
 423 476 456 520 467 520 c 0
 478 520 523 589 567 673 c 0
 612 752 652 814 660 814 c 0
 660 814 661 814 661 814 c 0
 662 813 662 812 662 811 c 0
 662 775 497 492 475 492 c 0
 464 492 436 451 411 401 c 0
 392 359 382 334 382 310 c 0
 382 287 392 264 411 228 c 0
 434 181 470 134 486 117 c 0
 523 86 658 -144 658 -171 c 0
 658 -173 657 -174 656 -174 c 0
 648 -174 606 -116 564 -44 c 0
 523 28 470 109 445 134 c 0
 423 159 389 201 373 231 c 0
 359 253 350 265 342 265 c 0
 332 265 324 247 309 209 c 0
 292 164 270 131 256 131 c 0
 242 131 214 98 195 53 c 0
 134 -66 53 -174 28 -174 c 0
 25 -174 24 -172 24 -170 c 0
 24 -159 42 -132 70 -102 c 0
 109 -61 139 -13 139 6 c 0
 139 26 167 70 203 109 c 0
 283 199 316 252 316 302 c 0
 316 323 311 344 300 367 c 0
 284 406 261 437 250 437 c 0
 242 437 192 512 139 603 c 0
 86 695 36 770 23 770 c 0
 11 770 0 784 0 798 c 0
EndSplineSet
Validated: 1
EndChar

StartChar: uni0014
Encoding: 20 20 20
Width: 667
VWidth: 0
Flags: HW
LayerCount: 2
Back
Fore
SplineSet
0 798 m 0
 0 817 4 826 12 826 c 0
 32 826 74 769 134 659 c 0
 186 567 236 492 248 492 c 0
 261 492 286 453 306 406 c 2
 342 320 l 1
 395 420 l 2
 423 476 456 520 467 520 c 0
 478 520 523 589 567 673 c 0
 612 752 652 814 660 814 c 0
 660 814 661 814 661 814 c 0
 662 813 662 812 662 811 c 0
 662 775 497 492 475 492 c 0
 464 492 436 451 411 401 c 0
 392 359 382 334 382 310 c 0
 382 287 392 264 411 228 c 0
 434 181 470 134 486 117 c 0
 523 86 658 -144 658 -171 c 0
 658 -173 657 -174 656 -174 c 0
 648 -174 606 -116 564 -44 c 0
 523 28 470 109 445 134 c 0
 423 159 389 201 373 231 c 0
 359 253 350 265 342 265 c 0
 332 265 324 247 309 209 c 0
 292 164 270 131 256 131 c 0
 242 131 214 98 195 53 c 0
 134 -66 53 -174 28 -174 c 0
 25 -174 24 -172 24 -170 c 0
 24 -159 42 -132 70 -102 c 0
 109 -61 139 -13 139 6 c 0
 139 26 167 70 203 109 c 0
 283 199 316 252 316 302 c 0
 316 323 311 344 300 367 c 0
 284 406 261 437 250 437 c 0
 242 437 192 512 139 603 c 0
 86 695 36 770 23 770 c 0
 11 770 0 784 0 798 c 0
EndSplineSet
Validated: 1
EndChar

StartChar: uni0015
Encoding: 21 21 21
Width: 667
VWidth: 0
Flags: HW
LayerCount: 2
Back
Fore
SplineSet
0 800 m 0
 0 819 4 828 12 828 c 0
 32 828 74 771 134 661 c 0
 186 569 236 494 248 494 c 0
 261 494 286 455 306 408 c 2
 342 322 l 1
 395 422 l 2
 423 478 456 522 467 522 c 0
 478 522 523 591 567 675 c 0
 612 754 652 816 660 816 c 0
 660 816 661 816 661 816 c 0
 662 815 662 814 662 813 c 0
 662 777 497 494 475 494 c 0
 464 494 436 453 411 403 c 0
 392 361 382 336 382 312 c 0
 382 289 392 266 411 230 c 0
 434 183 470 136 486 119 c 0
 523 88 658 -142 658 -169 c 0
 658 -171 657 -172 656 -172 c 0
 648 -172 606 -114 564 -42 c 0
 523 30 470 111 445 136 c 0
 423 161 389 203 373 233 c 0
 359 255 350 267 342 267 c 0
 332 267 324 249 309 211 c 0
 292 166 270 133 256 133 c 0
 242 133 214 100 195 55 c 0
 134 -64 53 -172 28 -172 c 0
 25 -172 24 -170 24 -168 c 0
 24 -157 42 -130 70 -100 c 0
 109 -59 139 -11 139 8 c 0
 139 28 167 72 203 111 c 0
 283 201 316 254 316 304 c 0
 316 325 311 346 300 369 c 0
 284 408 261 439 250 439 c 0
 242 439 192 514 139 605 c 0
 86 697 36 772 23 772 c 0
 11 772 0 786 0 800 c 0
EndSplineSet
Validated: 1
EndChar

StartChar: uni0016
Encoding: 22 22 22
Width: 667
VWidth: 0
Flags: HW
LayerCount: 2
Back
Fore
SplineSet
-2 798 m 0
 -2 817 2 826 10 826 c 0
 30 826 72 769 132 659 c 0
 184 567 234 492 246 492 c 0
 259 492 284 453 304 406 c 2
 340 320 l 1
 393 420 l 2
 421 476 454 520 465 520 c 0
 476 520 521 589 565 673 c 0
 610 752 650 814 658 814 c 0
 658 814 659 814 659 814 c 0
 660 813 660 812 660 811 c 0
 660 775 495 492 473 492 c 0
 462 492 434 451 409 401 c 0
 390 359 380 334 380 310 c 0
 380 287 390 264 409 228 c 0
 432 181 468 134 484 117 c 0
 521 86 656 -144 656 -171 c 0
 656 -173 655 -174 654 -174 c 0
 646 -174 604 -116 562 -44 c 0
 521 28 468 109 443 134 c 0
 421 159 387 201 371 231 c 0
 357 253 348 265 340 265 c 0
 330 265 322 247 307 209 c 0
 290 164 268 131 254 131 c 0
 240 131 212 98 193 53 c 0
 132 -66 51 -174 26 -174 c 0
 23 -174 22 -172 22 -170 c 0
 22 -159 40 -132 68 -102 c 0
 107 -61 137 -13 137 6 c 0
 137 26 165 70 201 109 c 0
 281 199 314 252 314 302 c 0
 314 323 309 344 298 367 c 0
 282 406 259 437 248 437 c 0
 240 437 190 512 137 603 c 0
 84 695 34 770 21 770 c 0
 9 770 -2 784 -2 798 c 0
EndSplineSet
Validated: 1
EndChar

StartChar: uni0017
Encoding: 23 23 23
Width: 667
VWidth: 0
Flags: HW
LayerCount: 2
Back
Fore
SplineSet
-2 798 m 0
 -2 817 2 826 10 826 c 0
 30 826 72 769 132 659 c 0
 184 567 234 492 246 492 c 0
 259 492 284 453 304 406 c 2
 340 320 l 1
 393 420 l 2
 421 476 454 520 465 520 c 0
 476 520 521 589 565 673 c 0
 610 752 650 814 658 814 c 0
 658 814 659 814 659 814 c 0
 660 813 660 812 660 811 c 0
 660 775 495 492 473 492 c 0
 462 492 434 451 409 401 c 0
 390 359 380 334 380 310 c 0
 380 287 390 264 409 228 c 0
 432 181 468 134 484 117 c 0
 521 86 656 -144 656 -171 c 0
 656 -173 655 -174 654 -174 c 0
 646 -174 604 -116 562 -44 c 0
 521 28 468 109 443 134 c 0
 421 159 387 201 371 231 c 0
 357 253 348 265 340 265 c 0
 330 265 322 247 307 209 c 0
 290 164 268 131 254 131 c 0
 240 131 212 98 193 53 c 0
 132 -66 51 -174 26 -174 c 0
 23 -174 22 -172 22 -170 c 0
 22 -159 40 -132 68 -102 c 0
 107 -61 137 -13 137 6 c 0
 137 26 165 70 201 109 c 0
 281 199 314 252 314 302 c 0
 314 323 309 344 298 367 c 0
 282 406 259 437 248 437 c 0
 240 437 190 512 137 603 c 0
 84 695 34 770 21 770 c 0
 9 770 -2 784 -2 798 c 0
EndSplineSet
Validated: 1
EndChar

StartChar: uni0018
Encoding: 24 24 24
Width: 667
VWidth: 0
Flags: HW
LayerCount: 2
Back
Fore
SplineSet
0 798 m 0
 0 817 4 826 12 826 c 0
 32 826 74 769 134 659 c 0
 186 567 236 492 248 492 c 0
 261 492 286 453 306 406 c 2
 342 320 l 1
 395 420 l 2
 423 476 456 520 467 520 c 0
 478 520 523 589 567 673 c 0
 612 752 652 814 660 814 c 0
 660 814 661 814 661 814 c 0
 662 813 662 812 662 811 c 0
 662 775 497 492 475 492 c 0
 464 492 436 451 411 401 c 0
 392 359 382 334 382 310 c 0
 382 287 392 264 411 228 c 0
 434 181 470 134 486 117 c 0
 523 86 658 -144 658 -171 c 0
 658 -173 657 -174 656 -174 c 0
 648 -174 606 -116 564 -44 c 0
 523 28 470 109 445 134 c 0
 423 159 389 201 373 231 c 0
 359 253 350 265 342 265 c 0
 332 265 324 247 309 209 c 0
 292 164 270 131 256 131 c 0
 242 131 214 98 195 53 c 0
 134 -66 53 -174 28 -174 c 0
 25 -174 24 -172 24 -170 c 0
 24 -159 42 -132 70 -102 c 0
 109 -61 139 -13 139 6 c 0
 139 26 167 70 203 109 c 0
 283 199 316 252 316 302 c 0
 316 323 311 344 300 367 c 0
 284 406 261 437 250 437 c 0
 242 437 192 512 139 603 c 0
 86 695 36 770 23 770 c 0
 11 770 0 784 0 798 c 0
EndSplineSet
Validated: 1
EndChar

StartChar: uni0019
Encoding: 25 25 25
Width: 667
VWidth: 0
Flags: HW
LayerCount: 2
Back
Fore
SplineSet
-2 800 m 0
 -2 819 2 828 10 828 c 0
 30 828 72 771 132 661 c 0
 184 569 234 494 246 494 c 0
 259 494 284 455 304 408 c 2
 340 322 l 1
 393 422 l 2
 421 478 454 522 465 522 c 0
 476 522 521 591 565 675 c 0
 610 754 650 816 658 816 c 0
 658 816 659 816 659 816 c 0
 660 815 660 814 660 813 c 0
 660 777 495 494 473 494 c 0
 462 494 434 453 409 403 c 0
 390 361 380 336 380 312 c 0
 380 289 390 266 409 230 c 0
 432 183 468 136 484 119 c 0
 521 88 656 -142 656 -169 c 0
 656 -171 655 -172 654 -172 c 0
 646 -172 604 -114 562 -42 c 0
 521 30 468 111 443 136 c 0
 421 161 387 203 371 233 c 0
 357 255 348 267 340 267 c 0
 330 267 322 249 307 211 c 0
 290 166 268 133 254 133 c 0
 240 133 212 100 193 55 c 0
 132 -64 51 -172 26 -172 c 0
 23 -172 22 -170 22 -168 c 0
 22 -157 40 -130 68 -100 c 0
 107 -59 137 -11 137 8 c 0
 137 28 165 72 201 111 c 0
 281 201 314 254 314 304 c 0
 314 325 309 346 298 369 c 0
 282 408 259 439 248 439 c 0
 240 439 190 514 137 605 c 0
 84 697 34 772 21 772 c 0
 9 772 -2 786 -2 800 c 0
EndSplineSet
Validated: 1
EndChar

StartChar: uni001A
Encoding: 26 26 26
Width: 667
VWidth: 0
Flags: HW
LayerCount: 2
Back
Fore
SplineSet
0 802 m 0
 0 821 4 830 12 830 c 0
 32 830 74 773 134 663 c 0
 186 571 236 496 248 496 c 0
 261 496 286 457 306 410 c 2
 342 324 l 1
 395 424 l 2
 423 480 456 524 467 524 c 0
 478 524 523 593 567 677 c 0
 612 756 652 818 660 818 c 0
 660 818 661 818 661 818 c 0
 662 817 662 816 662 815 c 0
 662 779 497 496 475 496 c 0
 464 496 436 455 411 405 c 0
 392 363 382 338 382 314 c 0
 382 291 392 268 411 232 c 0
 434 185 470 138 486 121 c 0
 523 90 658 -140 658 -167 c 0
 658 -169 657 -170 656 -170 c 0
 648 -170 606 -112 564 -40 c 0
 523 32 470 113 445 138 c 0
 423 163 389 205 373 235 c 0
 359 257 350 269 342 269 c 0
 332 269 324 251 309 213 c 0
 292 168 270 135 256 135 c 0
 242 135 214 102 195 57 c 0
 134 -62 53 -170 28 -170 c 0
 25 -170 24 -168 24 -166 c 0
 24 -155 42 -128 70 -98 c 0
 109 -57 139 -9 139 10 c 0
 139 30 167 74 203 113 c 0
 283 203 316 256 316 306 c 0
 316 327 311 348 300 371 c 0
 284 410 261 441 250 441 c 0
 242 441 192 516 139 607 c 0
 86 699 36 774 23 774 c 0
 11 774 0 788 0 802 c 0
EndSplineSet
Validated: 1
EndChar

StartChar: uni001B
Encoding: 27 27 27
Width: 667
VWidth: 0
Flags: HW
LayerCount: 2
Back
Fore
SplineSet
2 798 m 0
 2 817 6 826 14 826 c 0
 34 826 76 769 136 659 c 0
 188 567 238 492 250 492 c 0
 263 492 288 453 308 406 c 2
 344 320 l 1
 397 420 l 2
 425 476 458 520 469 520 c 0
 480 520 525 589 569 673 c 0
 614 752 654 814 662 814 c 0
 662 814 663 814 663 814 c 0
 664 813 664 812 664 811 c 0
 664 775 499 492 477 492 c 0
 466 492 438 451 413 401 c 0
 394 359 384 334 384 310 c 0
 384 287 394 264 413 228 c 0
 436 181 472 134 488 117 c 0
 525 86 660 -144 660 -171 c 0
 660 -173 659 -174 658 -174 c 0
 650 -174 608 -116 566 -44 c 0
 525 28 472 109 447 134 c 0
 425 159 391 201 375 231 c 0
 361 253 352 265 344 265 c 0
 334 265 326 247 311 209 c 0
 294 164 272 131 258 131 c 0
 244 131 216 98 197 53 c 0
 136 -66 55 -174 30 -174 c 0
 27 -174 26 -172 26 -170 c 0
 26 -159 44 -132 72 -102 c 0
 111 -61 141 -13 141 6 c 0
 141 26 169 70 205 109 c 0
 285 199 318 252 318 302 c 0
 318 323 313 344 302 367 c 0
 286 406 263 437 252 437 c 0
 244 437 194 512 141 603 c 0
 88 695 38 770 25 770 c 0
 13 770 2 784 2 798 c 0
EndSplineSet
Validated: 1
EndChar

StartChar: uni001C
Encoding: 28 28 28
Width: 667
VWidth: 0
Flags: HW
LayerCount: 2
Back
Fore
SplineSet
-2 800 m 0
 -2 819 2 828 10 828 c 0
 30 828 72 771 132 661 c 0
 184 569 234 494 246 494 c 0
 259 494 284 455 304 408 c 2
 340 322 l 1
 393 422 l 2
 421 478 454 522 465 522 c 0
 476 522 521 591 565 675 c 0
 610 754 650 816 658 816 c 0
 658 816 659 816 659 816 c 0
 660 815 660 814 660 813 c 0
 660 777 495 494 473 494 c 0
 462 494 434 453 409 403 c 0
 390 361 380 336 380 312 c 0
 380 289 390 266 409 230 c 0
 432 183 468 136 484 119 c 0
 521 88 656 -142 656 -169 c 0
 656 -171 655 -172 654 -172 c 0
 646 -172 604 -114 562 -42 c 0
 521 30 468 111 443 136 c 0
 421 161 387 203 371 233 c 0
 357 255 348 267 340 267 c 0
 330 267 322 249 307 211 c 0
 290 166 268 133 254 133 c 0
 240 133 212 100 193 55 c 0
 132 -64 51 -172 26 -172 c 0
 23 -172 22 -170 22 -168 c 0
 22 -157 40 -130 68 -100 c 0
 107 -59 137 -11 137 8 c 0
 137 28 165 72 201 111 c 0
 281 201 314 254 314 304 c 0
 314 325 309 346 298 369 c 0
 282 408 259 439 248 439 c 0
 240 439 190 514 137 605 c 0
 84 697 34 772 21 772 c 0
 9 772 -2 786 -2 800 c 0
EndSplineSet
Validated: 1
EndChar

StartChar: uni001D
Encoding: 29 29 29
Width: 667
VWidth: 0
Flags: HW
LayerCount: 2
Back
Fore
SplineSet
-0 797 m 0
 0 816 4 826 12 826 c 0
 32 826 74 769 133 659 c 0
 186 567 236 492 247 492 c 0
 261 492 286 453 305 406 c 2
 342 320 l 1
 394 420 l 2
 422 475 455 520 467 520 c 0
 478 520 522 589 567 672 c 0
 612 752 651 814 660 814 c 0
 660 814 661 814 661 814 c 0
 662 813 662 812 662 811 c 0
 662 774 496 492 475 492 c 0
 464 492 436 450 411 400 c 0
 392 358 382 334 382 310 c 0
 382 286 392 264 411 228 c 0
 433 181 469 134 486 117 c 0
 523 86 657 -144 657 -172 c 0
 657 -174 656 -175 655 -175 c 0
 647 -175 605 -116 564 -44 c 0
 522 28 469 109 444 134 c 0
 422 159 389 200 372 231 c 0
 359 253 350 265 342 265 c 0
 332 265 323 247 308 209 c 0
 292 164 269 131 255 131 c 0
 242 131 214 97 194 53 c 0
 133 -66 53 -175 28 -175 c 0
 25 -175 23 -173 23 -170 c 0
 23 -160 41 -132 69 -103 c 0
 108 -61 139 -14 139 6 c 0
 139 25 167 70 203 109 c 0
 283 198 316 251 316 302 c 0
 316 323 311 344 300 367 c 0
 283 406 261 436 250 436 c 0
 242 436 192 511 139 603 c 0
 86 695 36 770 22 770 c 0
 11 770 -0 784 -0 797 c 0
EndSplineSet
Validated: 1
EndChar

StartChar: uni001E
Encoding: 30 30 30
Width: 667
VWidth: 0
Flags: HW
LayerCount: 2
Back
Fore
SplineSet
0 799 m 0
 0 818 4 828 12 828 c 0
 32 828 74 771 134 660 c 0
 186 568 236 493 248 493 c 0
 261 493 286 455 306 407 c 2
 342 321 l 1
 395 421 l 2
 423 477 456 521 467 521 c 0
 478 521 523 591 567 674 c 0
 612 754 653 816 660 816 c 0
 661 816 661 816 661 816 c 0
 662 815 662 814 662 813 c 0
 662 776 497 493 475 493 c 0
 464 493 436 452 411 402 c 0
 392 360 382 335 382 312 c 0
 382 288 392 266 411 230 c 0
 434 182 470 135 486 118 c 0
 523 87 658 -143 658 -170 c 0
 658 -172 657 -173 656 -173 c 0
 648 -173 606 -115 564 -43 c 0
 523 30 470 110 445 135 c 0
 423 160 389 202 373 232 c 0
 359 254 350 266 342 266 c 0
 332 266 324 249 309 210 c 0
 292 166 270 132 256 132 c 0
 242 132 214 99 195 55 c 0
 134 -65 53 -173 28 -173 c 0
 25 -173 24 -171 24 -169 c 0
 24 -158 42 -131 70 -101 c 0
 109 -59 139 -12 139 7 c 0
 139 27 167 71 203 110 c 0
 283 200 316 253 316 303 c 0
 316 325 311 345 300 368 c 0
 284 407 261 438 250 438 c 0
 242 438 192 513 139 605 c 0
 86 696 36 771 23 771 c 0
 11 771 0 785 0 799 c 0
EndSplineSet
Validated: 1
EndChar

StartChar: uni001F
Encoding: 31 31 31
Width: 667
VWidth: 0
Flags: HW
LayerCount: 2
Back
Fore
SplineSet
-4 800 m 0
 -4 819 0 828 8 828 c 0
 28 828 70 771 130 661 c 0
 182 569 232 494 244 494 c 0
 257 494 282 455 302 408 c 2
 338 322 l 1
 391 422 l 2
 419 478 452 522 463 522 c 0
 474 522 519 591 563 675 c 0
 608 754 648 816 656 816 c 0
 656 816 657 816 657 816 c 0
 658 815 658 814 658 813 c 0
 658 777 493 494 471 494 c 0
 460 494 432 453 407 403 c 0
 388 361 378 336 378 312 c 0
 378 289 388 266 407 230 c 0
 430 183 466 136 482 119 c 0
 519 88 654 -142 654 -169 c 0
 654 -171 653 -172 652 -172 c 0
 644 -172 602 -114 560 -42 c 0
 519 30 466 111 441 136 c 0
 419 161 385 203 369 233 c 0
 355 255 346 267 338 267 c 0
 328 267 320 249 305 211 c 0
 288 166 266 133 252 133 c 0
 238 133 210 100 191 55 c 0
 130 -64 49 -172 24 -172 c 0
 21 -172 20 -170 20 -168 c 0
 20 -157 38 -130 66 -100 c 0
 105 -59 135 -11 135 8 c 0
 135 28 163 72 199 111 c 0
 279 201 312 254 312 304 c 0
 312 325 307 346 296 369 c 0
 280 408 257 439 246 439 c 0
 238 439 188 514 135 605 c 0
 82 697 32 772 19 772 c 0
 7 772 -4 786 -4 800 c 0
EndSplineSet
Validated: 1
EndChar

StartChar: exclam
Encoding: 33 33 33
Width: 667
VWidth: 0
Flags: HW
LayerCount: 2
Back
Fore
SplineSet
261 620 m 4
 290 686 322 716 352 716 c 4
 401 716 442 633 442 491 c 4
 442 486 442 480 442 475 c 4
 439 325 389 156 339 139 c 4
 337 138 336 138 334 138 c 4
 289 138 222 305 222 425 c 4
 222 481 242 567 261 620 c 4
389 509 m 4
 389 531 378 550 361 550 c 4
 347 550 333 531 333 509 c 4
 333 486 347 467 361 467 c 4
 378 467 389 486 389 509 c 4
286 34 m 4
 297 59 317 78 333 78 c 4
 362 78 382 43 382 8 c 4
 382 -10 376 -29 364 -41 c 4
 354 -51 343 -55 333 -55 c 4
 306 -55 281 -27 281 8 c 4
 281 16 283 25 286 34 c 4
EndSplineSet
Validated: 1
EndChar

StartChar: quotedbl
Encoding: 34 34 34
Width: 667
VWidth: 0
Flags: HW
LayerCount: 2
Back
Fore
SplineSet
194 536 m 4
 194 622 203 634 264 634 c 4
 317 634 333 620 333 570 c 4
 333 500 286 439 231 439 c 4
 208 439 194 475 194 536 c 4
389 570 m 4
 389 620 406 634 458 634 c 4
 519 634 528 622 528 536 c 4
 528 475 514 439 492 439 c 4
 436 439 389 500 389 570 c 4
EndSplineSet
Validated: 1
EndChar

StartChar: numbersign
Encoding: 35 35 35
Width: 667
VWidth: 0
Flags: HW
LayerCount: 2
Back
Fore
SplineSet
174 480 m 4
 196 505 236 520 266 520 c 4
 288 520 305 512 305 494 c 0
 305 480 324 466 346 466 c 0
 368 466 388 480 388 494 c 0
 388 512 404 521 426 521 c 0
 453 521 489 507 516 483 c 0
 540 456 554 420 554 393 c 0
 554 371 545 355 527 355 c 0
 513 355 499 335 499 313 c 0
 499 291 513 271 527 271 c 0
 545 271 554 255 554 233 c 0
 554 206 540 170 516 144 c 0
 489 119 453 105 426 105 c 0
 404 105 388 114 388 133 c 0
 388 149 368 160 346 160 c 0
 324 160 305 149 305 133 c 0
 305 114 289 105 267 105 c 0
 240 105 203 119 177 144 c 0
 152 170 138 206 138 233 c 0
 138 255 147 271 166 271 c 0
 182 271 193 291 193 313 c 0
 193 335 182 355 166 355 c 0
 148 355 139 372 139 394 c 0
 139 420 151 455 174 480 c 4
388 313 m 0
 388 335 368 355 346 355 c 0
 324 355 305 335 305 313 c 0
 305 291 324 271 346 271 c 0
 368 271 388 291 388 313 c 0
EndSplineSet
Validated: 1
EndChar

StartChar: dollar
Encoding: 36 36 36
Width: 667
VWidth: 0
Flags: HW
LayerCount: 2
Back
Fore
SplineSet
369 691 m 4
 379 727 398 745 415 745 c 4
 431 745 444 728 444 694 c 4
 444 666 475 622 514 597 c 4
 553 572 583 527 583 497 c 4
 583 461 575 443 561 443 c 4
 548 443 528 462 506 497 c 4
 485 533 465 550 450 550 c 4
 430 550 417 519 417 461 c 4
 417 391 436 352 503 305 c 4
 559 262 580 234 580 184 c 4
 580 175 579 165 578 155 c 4
 572 86 547 55 467 11 c 4
 411 -20 358 -67 353 -92 c 4
 343 -124 324 -140 308 -140 c 4
 292 -140 278 -124 278 -92 c 4
 278 -64 242 -14 194 19 c 4
 150 55 111 99 111 122 c 4
 111 149 119 162 134 162 c 4
 151 162 177 144 208 108 c 4
 239 74 261 56 276 56 c 4
 298 56 306 93 306 172 c 4
 306 272 294 294 222 336 c 4
 166 368 138 410 138 454 c 4
 138 496 163 539 211 577 c 4
 253 611 300 636 319 636 c 4
 339 636 361 661 369 691 c 4
333 469 m 4
 333 523 323 550 303 550 c 4
 290 550 272 537 250 511 c 4
 236 494 229 482 229 469 c 4
 229 456 236 444 250 427 c 4
 272 401 290 388 303 388 c 4
 323 388 333 415 333 469 c 4
450 102 m 5
 511 163 l 5
 450 224 l 5
 389 286 l 5
 389 163 l 5
 389 41 l 5
 450 102 l 5
EndSplineSet
Validated: 1
EndChar

StartChar: percent
Encoding: 37 37 37
Width: 667
VWidth: 0
Flags: HW
LayerCount: 2
Back
Fore
SplineSet
481 659 m 0
 493 674 502 682 508 682 c 0
 515 682 519 671 522 650 c 0
 523 647 523 644 523 641 c 0
 523 539 290 57 217 11 c 0
 197 -1 182 -7 171 -7 c 0
 158 -7 151 1 151 14 c 0
 151 34 164 65 192 103 c 0
 225 150 297 284 350 403 c 0
 406 522 464 636 481 659 c 0
111 564 m 0
 133 590 157 604 181 604 c 0
 202 604 223 593 244 572 c 0
 267 549 277 518 277 487 c 0
 277 424 235 359 180 359 c 0
 171 359 162 361 153 364 c 0
 116 379 91 440 91 495 c 0
 91 522 97 547 111 564 c 0
222 495 m 0
 222 525 203 550 181 550 c 0
 158 550 139 525 139 495 c 0
 139 464 158 439 181 439 c 0
 203 439 222 464 222 495 c 0
472 289 m 0
 494 314 517 326 541 326 c 0
 563 326 585 316 606 295 c 0
 629 272 639 241 639 211 c 0
 639 147 597 84 546 84 c 0
 533 84 519 88 506 97 c 0
 469 120 449 168 449 214 c 0
 449 242 457 269 472 289 c 0
583 203 m 0
 583 247 567 272 542 272 c 0
 517 272 500 247 500 203 c 0
 500 159 517 134 542 134 c 0
 567 134 583 159 583 203 c 0
EndSplineSet
Validated: 1
EndChar

StartChar: ampersand
Encoding: 38 38 38
Width: 667
VWidth: 0
Flags: HW
LayerCount: 2
Back
Fore
SplineSet
240 581 m 0
 270 615 315 632 360 632 c 0
 407 632 453 614 484 581 c 0
 505 557 517 539 517 518 c 0
 517 487 492 452 437 389 c 2
 379 325 l 1
 451 256 l 2
 489 218 507 200 518 200 c 0
 529 200 534 215 543 242 c 0
 551 272 573 300 587 300 c 0
 604 300 612 278 612 251 c 0
 612 221 601 185 582 172 c 0
 571 166 565 160 565 153 c 0
 565 145 571 136 582 125 c 0
 601 106 612 70 612 41 c 0
 612 15 604 -5 587 -5 c 0
 573 -5 554 14 545 36 c 0
 539 56 532 65 519 65 c 0
 505 65 484 56 448 36 c 0
 397 10 352 -3 311 -3 c 0
 261 -3 217 16 176 56 c 0
 135 94 114 136 114 177 c 0
 114 217 133 255 170 289 c 0
 202 317 215 341 215 380 c 0
 215 395 213 413 209 434 c 0
 205 454 203 472 203 488 c 0
 203 526 215 554 240 581 c 0
445 531 m 0
 445 542 409 550 362 550 c 0
 306 550 276 528 276 490 c 0
 276 469 285 443 304 414 c 0
 313 400 321 393 330 393 c 0
 343 393 359 408 387 442 c 0
 418 478 443 517 445 531 c 0
387 200 m 2
 354 256 320 300 309 300 c 0
 262 300 197 230 197 180 c 0
 197 177 198 175 198 172 c 0
 207 131 237 117 329 111 c 2
 445 103 l 1
 387 200 l 2
EndSplineSet
Validated: 1
EndChar

StartChar: quotesingle
Encoding: 39 39 39
Width: 667
VWidth: 0
Flags: HW
LayerCount: 2
Back
Fore
SplineSet
283 588 m 0
 293 612 321 631 344 631 c 0
 347 631 351 631 354 630 c 0
 390 623 414 585 414 540 c 0
 414 443 336 302 256 302 c 0
 255 302 254 302 253 302 c 0
 222 302 219 309 244 319 c 0
 290 337 328 388 328 435 c 0
 328 455 300 476 290 491 c 0
 280 506 279 523 279 540 c 0
 279 547 279 554 279 561 c 0
 279 571 280 580 283 588 c 0
EndSplineSet
Validated: 1
EndChar

StartChar: parenleft
Encoding: 40 40 40
Width: 667
VWidth: 0
Flags: HW
LayerCount: 2
Back
Fore
SplineSet
417 671 m 4
 439 697 472 716 489 716 c 4
 496 716 500 713 500 707 c 4
 500 702 469 638 431 563 c 4
 392 488 361 377 361 321 c 4
 361 207 433 -9 483 -43 c 4
 493 -50 498 -58 498 -67 c 4
 498 -72 496 -77 492 -82 c 4
 487 -87 481 -90 474 -90 c 4
 406 -90 278 161 278 313 c 4
 278 416 342 582 417 671 c 4
EndSplineSet
Validated: 1
EndChar

StartChar: parenright
Encoding: 41 41 41
Width: 667
VWidth: 0
Flags: HW
LayerCount: 2
Back
Fore
SplineSet
194 705 m 4
 194 707 196 708 199 708 c 4
 208 708 227 700 250 688 c 4
 319 652 417 430 417 308 c 4
 417 199 300 -48 236 -70 c 4
 222 -76 211 -80 205 -80 c 4
 201 -80 198 -78 198 -73 c 4
 198 -58 219 -19 264 66 c 4
 306 146 333 241 333 313 c 4
 333 385 306 480 264 560 c 4
 225 633 194 696 194 705 c 4
EndSplineSet
Validated: 1
EndChar

StartChar: asterisk
Encoding: 42 42 42
Width: 667
VWidth: 0
Flags: HW
LayerCount: 2
Back
Fore
SplineSet
307 461 m 4
 307 495 320 522 334 522 c 4
 351 522 362 495 362 461 c 4
 362 431 363 418 371 418 c 4
 378 418 390 428 412 447 c 4
 440 475 473 495 482 495 c 4
 495 495 501 486 501 473 c 4
 501 449 484 411 454 378 c 4
 435 356 424 344 424 337 c 4
 424 329 438 328 468 328 c 4
 501 328 529 317 529 300 c 4
 529 286 501 272 468 272 c 4
 438 272 424 271 424 264 c 4
 424 257 435 244 454 222 c 4
 484 189 501 152 501 128 c 4
 501 115 495 106 482 106 c 4
 473 106 440 125 412 153 c 4
 390 172 378 183 371 183 c 4
 363 183 362 169 362 139 c 4
 362 106 351 78 334 78 c 4
 320 78 307 106 307 139 c 4
 307 169 306 183 298 183 c 4
 291 183 279 172 257 153 c 4
 229 125 195 106 187 106 c 4
 174 106 168 115 168 128 c 4
 168 152 185 189 215 222 c 4
 234 244 245 257 245 264 c 4
 245 271 231 272 201 272 c 4
 168 272 140 286 140 300 c 4
 140 317 168 328 201 328 c 4
 231 328 245 329 245 337 c 4
 245 344 234 356 215 378 c 4
 185 411 168 449 168 473 c 4
 168 486 174 495 187 495 c 4
 195 495 229 475 257 447 c 4
 279 428 291 418 298 418 c 4
 306 418 307 431 307 461 c 4
EndSplineSet
Validated: 1
EndChar

StartChar: plus
Encoding: 43 43 43
Width: 667
VWidth: 0
Flags: HW
LayerCount: 2
Back
Fore
SplineSet
278 481 m 4
 278 567 286 578 347 578 c 4
 408 578 417 567 417 481 c 4
 417 389 422 384 514 384 c 4
 600 384 611 375 611 314 c 4
 611 253 600 245 514 245 c 4
 422 245 417 239 417 147 c 4
 417 61 408 50 347 50 c 4
 286 50 278 61 278 147 c 4
 278 239 272 245 181 245 c 4
 94 245 83 253 83 314 c 4
 83 375 94 384 181 384 c 4
 272 384 278 389 278 481 c 4
EndSplineSet
Validated: 1
EndChar

StartChar: comma
Encoding: 44 44 44
Width: 667
VWidth: 0
Flags: HW
LayerCount: 2
Back
Fore
SplineSet
283 128 m 0
 303 147 331 161 347 161 c 0
 392 161 444 100 444 47 c 0
 444 -16 289 -144 214 -144 c 0
 188 -143 175 -141 175 -137 c 4
 175 -131 194 -121 233 -100 c 0
 274 -77 291 -60 291 -45 c 0
 291 -38 288 -32 281 -25 c 0
 262 -6 252 22 252 49 c 0
 252 78 262 107 283 128 c 0
EndSplineSet
Validated: 1
EndChar

StartChar: hyphen
Encoding: 45 45 45
Width: 667
VWidth: 0
Flags: HW
LayerCount: 2
Back
Fore
SplineSet
111 300 m 4
 111 353 131 356 361 356 c 4
 592 356 611 353 611 300 c 4
 611 247 592 245 361 245 c 4
 131 245 111 247 111 300 c 4
EndSplineSet
Validated: 1
EndChar

StartChar: period
Encoding: 46 46 46
Width: 667
VWidth: 0
Flags: HW
LayerCount: 2
Back
Fore
SplineSet
289 342 m 0
 298 367 320 378 342 378 c 0
 372 378 401 376 411 320 c 0
 412 316 412 313 412 310 c 0
 412 275 378 249 343 249 c 0
 328 249 312 255 300 267 c 0
 289 278 283 295 283 313 c 0
 283 323 285 333 289 342 c 0
EndSplineSet
Validated: 1
EndChar

StartChar: slash
Encoding: 47 47 47
Width: 667
VWidth: 0
Flags: HW
LayerCount: 2
Back
Fore
SplineSet
386 528 m 4
 426 627 478 691 506 691 c 4
 520 691 528 677 528 647 c 4
 528 572 219 -8 178 -8 c 4
 154 -8 141 1 141 22 c 4
 141 55 171 116 231 217 c 4
 281 300 350 439 386 528 c 4
EndSplineSet
Validated: 1
EndChar

StartChar: zero
Encoding: 48 48 48
Width: 667
VWidth: 0
Flags: HW
LayerCount: 2
Back
Fore
SplineSet
306 600 m 4
 342 638 378 657 411 657 c 4
 472 657 523 594 544 481 c 4
 550 451 553 423 553 397 c 4
 553 310 519 237 436 128 c 4
 371 44 316 2 269 2 c 4
 235 2 205 23 178 64 c 4
 153 101 142 151 142 206 c 4
 142 333 203 492 306 600 c 4
439 431 m 4
 432 491 417 521 395 521 c 4
 364 521 320 459 267 339 c 4
 241 280 228 231 228 194 c 4
 228 147 248 119 286 111 c 4
 287 111 289 111 291 111 c 4
 348 111 440 297 440 410 c 4
 440 417 440 424 439 431 c 4
EndSplineSet
Validated: 1
EndChar

StartChar: one
Encoding: 49 49 49
Width: 667
VWidth: 0
Flags: HW
LayerCount: 2
Back
Fore
SplineSet
291 545 m 0
 347 607 414 658 425 658 c 0
 425 658 425 658 425 658 c 0
 431 658 435 617 435 553 c 0
 435 503 433 439 428 369 c 0
 422 276 418 212 418 168 c 0
 418 89 429 71 456 60 c 0
 487 48 502 36 502 26 c 0
 502 7 446 -6 347 -6 c 0
 246 -6 197 3 197 25 c 0
 197 38 231 56 264 80 c 0
 300 108 306 169 319 280 c 0
 325 331 328 366 328 390 c 0
 328 437 304 437 258 437 c 0
 225 437 207 437 207 447 c 0
 207 459 233 486 291 545 c 0
EndSplineSet
Validated: 1
EndChar

StartChar: two
Encoding: 50 50 50
Width: 667
VWidth: 0
Flags: HW
LayerCount: 2
Back
Fore
SplineSet
253 618 m 0
 307 665 373 689 430 689 c 0
 467 689 500 679 522 657 c 0
 542 637 556 568 556 504 c 0
 556 398 541 363 425 240 c 2
 300 107 l 1
 425 118 l 2
 468 122 497 128 516 128 c 0
 555 128 556 113 556 68 c 0
 556 -4 553 -4 333 -4 c 0
 167 -4 111 4 111 32 c 0
 111 54 186 146 278 237 c 0
 411 371 444 421 444 490 c 0
 444 547 431 576 401 576 c 0
 375 576 336 554 283 510 c 0
 230 465 200 444 184 444 c 0
 170 444 167 460 167 493 c 0
 167 523 206 579 253 618 c 0
EndSplineSet
Validated: 1
EndChar

StartChar: three
Encoding: 51 51 51
Width: 667
VWidth: 0
Flags: HW
LayerCount: 2
Back
Fore
SplineSet
256 596 m 4
 294 637 337 657 378 657 c 4
 418 657 456 638 483 599 c 4
 511 559 525 519 525 482 c 4
 525 446 512 412 486 383 c 4
 466 362 457 349 457 338 c 4
 457 327 466 316 486 299 c 4
 514 276 528 237 528 196 c 4
 528 145 506 92 464 66 c 4
 400 23 345 3 296 3 c 4
 252 3 213 19 178 52 c 4
 131 96 109 132 109 152 c 4
 109 163 115 169 128 169 c 4
 142 169 164 161 194 144 c 4
 234 120 263 108 293 108 c 4
 311 108 331 113 353 121 c 4
 411 141 440 172 440 203 c 4
 440 231 415 260 364 280 c 6
 281 310 l 5
 350 371 l 6
 393 413 413 437 413 462 c 4
 413 479 404 497 389 521 c 4
 379 539 370 548 356 548 c 4
 340 548 317 537 278 513 c 4
 247 494 225 486 211 486 c 4
 200 486 194 491 194 500 c 4
 194 518 214 552 256 596 c 4
EndSplineSet
Validated: 1
EndChar

StartChar: four
Encoding: 52 52 52
Width: 667
VWidth: 0
Flags: HW
LayerCount: 2
Back
Fore
SplineSet
200 536 m 4
 219 611 250 661 272 661 c 4
 293 661 302 650 302 614 c 4
 302 593 299 563 294 522 c 4
 289 480 285 450 285 430 c 4
 285 390 298 384 331 384 c 4
 367 384 394 414 417 481 c 4
 433 534 467 578 489 578 c 4
 514 578 526 568 526 537 c 4
 526 506 514 453 489 367 c 4
 467 292 442 178 431 114 c 4
 417 34 397 -5 369 -5 c 4
 347 -5 337 5 337 35 c 4
 337 50 340 71 344 97 c 4
 356 156 369 225 378 253 c 4
 381 261 382 267 382 273 c 4
 382 295 356 300 281 300 c 4
 200 300 166 308 166 366 c 4
 166 401 179 455 200 536 c 4
EndSplineSet
Validated: 1
EndChar

StartChar: five
Encoding: 53 53 53
Width: 667
VWidth: 0
Flags: HW
LayerCount: 2
Back
Fore
SplineSet
225 494 m 0
 283 631 286 631 417 631 c 0
 508 631 556 617 567 589 c 0
 569 584 570 579 570 576 c 0
 570 553 542 547 461 547 c 0
 365 547 315 525 315 485 c 0
 315 456 343 417 400 372 c 0
 464 319 496 273 496 223 c 0
 496 179 471 133 419 78 c 0
 368 23 326 -4 284 -4 c 0
 245 -4 206 20 158 69 c 0
 111 119 88 150 88 164 c 0
 88 169 91 171 97 171 c 0
 109 171 133 162 169 144 c 0
 212 121 254 110 290 110 c 0
 338 110 376 129 400 167 c 0
 411 184 416 201 416 216 c 0
 416 268 360 311 267 319 c 0
 211 325 167 333 167 342 c 0
 167 350 194 419 225 494 c 0
EndSplineSet
Validated: 1
EndChar

StartChar: six
Encoding: 54 54 54
Width: 667
VWidth: 0
Flags: HW
LayerCount: 2
Back
Fore
SplineSet
269 605 m 4
 298 622 331 629 363 629 c 4
 448 629 528 577 528 502 c 4
 528 486 525 478 516 478 c 4
 506 478 489 488 458 508 c 4
 422 533 375 552 358 552 c 4
 294 552 222 461 222 377 c 4
 222 330 223 311 233 311 c 4
 240 311 252 321 272 338 c 4
 305 368 332 383 359 383 c 4
 390 383 422 363 464 324 c 4
 505 285 526 247 526 208 c 4
 526 161 495 115 436 69 c 4
 376 24 343 1 312 1 c 4
 283 1 256 19 211 55 c 4
 150 105 139 133 139 263 c 4
 139 424 192 558 269 605 c 4
428 241 m 4
 404 277 377 295 348 295 c 4
 322 295 295 281 269 252 c 4
 240 220 225 194 225 173 c 4
 225 147 248 130 294 119 c 4
 307 116 319 114 331 114 c 4
 392 114 440 153 440 200 c 4
 440 214 436 227 428 241 c 4
EndSplineSet
Validated: 1
EndChar

StartChar: seven
Encoding: 55 55 55
Width: 667
VWidth: 0
Flags: HW
LayerCount: 2
Back
Fore
SplineSet
138 563 m 4
 171 627 191 633 380 633 c 4
 491 633 582 627 582 619 c 4
 582 610 532 510 471 396 c 4
 413 283 355 144 343 91 c 4
 330 13 313 -6 260 -6 c 4
 218 -6 197 5 197 36 c 4
 197 74 227 139 291 246 c 4
 343 338 396 444 405 480 c 4
 409 497 412 510 412 519 c 4
 412 546 390 549 318 549 c 4
 252 549 202 533 177 502 c 4
 160 478 145 467 134 467 c 4
 124 467 117 478 117 495 c 4
 117 512 123 536 138 563 c 4
EndSplineSet
Validated: 1
EndChar

StartChar: eight
Encoding: 56 56 56
Width: 667
VWidth: 0
Flags: HW
LayerCount: 2
Back
Fore
SplineSet
249 591 m 0
 291 636 339 658 384 658 c 0
 420 658 454 644 482 616 c 0
 510 588 524 554 524 518 c 0
 524 476 505 431 466 391 c 0
 436 360 422 343 422 327 c 0
 422 312 433 299 452 277 c 0
 481 244 496 216 496 188 c 0
 496 149 467 111 407 66 c 0
 347 20 303 -3 268 -3 c 0
 235 -3 209 16 182 55 c 0
 154 95 140 136 140 176 c 0
 140 214 152 251 177 285 c 0
 196 311 215 328 215 370 c 0
 215 384 205 418 202 433 c 0
 198 451 196 467 196 481 c 0
 196 522 212 552 249 591 c 0
410 488 m 0
 411 497 412 504 412 510 c 0
 412 540 397 549 360 549 c 0
 324 549 308 539 308 510 c 0
 308 504 309 496 310 488 c 0
 316 452 338 424 360 424 c 0
 382 424 405 452 410 488 c 0
374 188 m 0
 374 238 357 260 310 266 c 0
 305 267 300 267 295 267 c 0
 265 267 240 254 232 233 c 0
 226 217 223 201 223 187 c 0
 223 142 251 109 295 109 c 0
 300 109 305 109 310 110 c 0
 357 116 374 138 374 188 c 0
EndSplineSet
Validated: 1
EndChar

StartChar: nine
Encoding: 57 57 57
Width: 667
VWidth: 0
Flags: HW
LayerCount: 2
Back
Fore
SplineSet
261 564 m 4
 305 608 356 631 402 631 c 4
 445 631 484 611 511 572 c 4
 539 532 553 497 553 450 c 4
 553 410 543 362 522 295 c 4
 470 118 324 -4 228 -4 c 4
 176 -4 139 32 139 114 c 4
 139 124 141 129 146 129 c 4
 152 129 160 123 172 111 c 4
 194 89 219 79 245 79 c 4
 280 79 316 100 344 139 c 4
 371 178 385 205 385 226 c 4
 385 254 358 270 300 286 c 4
 230 306 194 358 194 419 c 4
 194 466 216 518 261 564 c 4
439 445 m 4
 433 491 404 516 376 516 c 4
 353 516 330 500 319 467 c 4
 315 454 313 441 313 430 c 4
 313 389 337 361 372 361 c 4
 382 361 392 363 403 367 c 4
 427 374 440 400 440 430 c 4
 440 435 440 440 439 445 c 4
EndSplineSet
Validated: 1
EndChar

StartChar: colon
Encoding: 58 58 58
Width: 667
VWidth: 0
Flags: HW
LayerCount: 2
Back
Fore
SplineSet
311 377 m 4
 328 394 344 402 359 402 c 4
 382 402 405 383 428 346 c 4
 436 333 440 320 440 307 c 4
 440 265 403 228 364 228 c 4
 350 228 335 232 322 244 c 4
 294 266 280 290 280 314 c 4
 280 335 290 356 311 377 c 4
311 99 m 4
 328 116 344 124 359 124 c 4
 382 124 405 106 428 69 c 4
 436 56 440 42 440 29 c 4
 440 -13 403 -50 364 -50 c 4
 350 -50 335 -45 322 -34 c 4
 294 -12 280 12 280 36 c 4
 280 57 290 78 311 99 c 4
EndSplineSet
Validated: 1
EndChar

StartChar: semicolon
Encoding: 59 59 59
Width: 667
VWidth: 0
Flags: HW
LayerCount: 2
Back
Fore
SplineSet
306 338 m 4
 325 363 350 383 361 383 c 4
 372 383 397 363 417 338 c 4
 431 323 437 311 437 299 c 4
 437 285 428 270 408 249 c 4
 386 229 374 218 361 218 c 4
 348 218 336 229 314 249 c 4
 295 270 285 285 285 299 c 4
 285 311 292 323 306 338 c 4
303 88 m 4
 325 113 347 133 358 133 c 4
 389 133 444 69 444 33 c 4
 444 -17 314 -145 258 -145 c 4
 239 -145 229 -144 229 -139 c 4
 229 -134 243 -124 272 -104 c 4
 303 -81 317 -67 317 -48 c 4
 317 -37 311 -24 300 -6 c 4
 288 13 282 28 282 42 c 4
 282 57 289 71 303 88 c 4
EndSplineSet
Validated: 1
EndChar

StartChar: less
Encoding: 60 60 60
Width: 667
VWidth: 0
Flags: HW
LayerCount: 2
Back
Fore
SplineSet
556 313 m 0
 556 677 561 744 597 744 c 0
 633 744 639 677 639 313 c 0
 639 -51 633 -117 597 -117 c 0
 561 -117 556 -51 556 313 c 0
389 313 m 0
 389 641 392 660 444 660 c 0
 497 660 500 641 500 313 c 0
 500 -15 497 -34 444 -34 c 0
 392 -34 389 -15 389 313 c 0
250 313 m 0
 250 505 258 549 292 549 c 0
 325 549 333 505 333 313 c 0
 333 121 325 77 292 77 c 0
 258 77 250 121 250 313 c 0
111 313 m 0
 111 396 125 466 139 466 c 0
 156 466 167 396 167 313 c 0
 167 230 156 160 139 160 c 0
 125 160 111 230 111 313 c 0
29 314 m 0
 29 350 37 383 43 383 c 0
 44 383 47 381 48 377 c 0
 51 367 55 338 55 323 c 0
 55 308 51 273 47 260 c 0
 44 251 42 246 40 246 c 0
 36 246 29 285 29 314 c 0
EndSplineSet
Validated: 1
EndChar

StartChar: equal
Encoding: 61 61 61
Width: 667
VWidth: 0
Flags: HW
LayerCount: 2
Back
Fore
SplineSet
110 385 m 0
 110 437 130 440 360 440 c 0
 591 440 610 437 610 385 c 0
 610 332 591 329 360 329 c 0
 130 329 110 332 110 385 c 0
110 176 m 0
 110 210 157 218 360 218 c 0
 563 218 610 210 610 176 c 0
 610 143 563 135 360 135 c 0
 157 135 110 143 110 176 c 0
EndSplineSet
Validated: 1
EndChar

StartChar: greater
Encoding: 62 62 62
Width: 667
VWidth: 0
Flags: HW
LayerCount: 2
Back
Fore
SplineSet
28 314 m 0
 28 678 33 745 69 745 c 0
 106 745 111 678 111 314 c 0
 111 -50 106 -116 69 -116 c 0
 33 -116 28 -50 28 314 c 0
167 314 m 0
 167 642 169 661 222 661 c 0
 275 661 278 642 278 314 c 0
 278 -14 275 -33 222 -33 c 0
 169 -33 167 -14 167 314 c 0
333 314 m 0
 333 506 342 550 375 550 c 0
 408 550 417 506 417 314 c 0
 417 122 408 78 375 78 c 0
 342 78 333 122 333 314 c 0
500 314 m 0
 500 397 514 467 528 467 c 0
 544 467 556 397 556 314 c 0
 556 231 544 161 528 161 c 0
 514 161 500 231 500 314 c 0
614 314 m 0
 614 350 620 382 625 382 c 0
 627 382 630 380 631 376 c 0
 634 366 637 340 637 325 c 0
 637 310 635 275 631 262 c 0
 628 253 625 248 623 248 c 0
 619 248 614 285 614 314 c 0
EndSplineSet
Validated: 1
EndChar

StartChar: question
Encoding: 63 63 63
Width: 667
VWidth: 0
Flags: HW
LayerCount: 2
Back
Fore
SplineSet
207 616 m 4
 250 664 308 688 365 688 c 4
 413 688 461 670 499 633 c 4
 535 597 552 555 552 509 c 4
 552 446 521 376 457 299 c 4
 405 235 360 171 360 158 c 4
 360 144 341 133 318 133 c 4
 291 133 278 146 278 168 c 4
 278 204 314 265 380 333 c 4
 441 396 464 424 464 456 c 4
 464 471 458 487 449 508 c 4
 428 552 397 574 362 574 c 4
 330 574 296 556 263 521 c 4
 231 486 196 468 171 468 c 4
 151 468 138 480 138 505 c 4
 138 524 168 574 207 616 c 4
260 35 m 4
 269 60 291 71 313 71 c 4
 343 71 376 50 382 13 c 4
 383 10 383 6 383 3 c 4
 383 -31 348 -57 314 -57 c 4
 299 -57 283 -52 271 -40 c 4
 261 -29 254 -11 254 7 c 4
 254 17 256 26 260 35 c 4
EndSplineSet
Validated: 1
EndChar

StartChar: at
Encoding: 64 64 64
Width: 667
VWidth: 0
Flags: HW
LayerCount: 2
Back
Fore
SplineSet
302 720 m 0
 310 728 325 740 348 740 c 0
 357 740 366 740 375 738 c 0
 416 733 443 686 443 638 c 0
 443 612 433 587 417 566 c 0
 410 557 398 544 398 537 c 0
 398 521 426 515 472 499 c 0
 558 469 611 377 611 255 c 0
 611 212 603 191 591 191 c 0
 577 191 557 218 536 271 c 0
 516 325 485 355 466 355 c 0
 457 355 451 348 451 332 c 0
 451 322 453 310 458 294 c 0
 469 258 492 169 506 91 c 0
 519 16 504 -88 562 -107 c 0
 577 -112 585 -119 585 -126 c 0
 585 -138 561 -140 518 -140 c 0
 515 -140 512 -140 508 -140 c 0
 441 -137 431 -115 411 -9 c 0
 393 91 379 134 361 134 c 0
 356 134 352 132 347 127 c 0
 339 119 322 58 311 -9 c 0
 292 -115 281 -131 214 -140 c 0
 207 -141 200 -141 194 -141 c 0
 160 -141 140 -139 140 -127 c 0
 140 -120 146 -113 162 -107 c 0
 222 -83 207 16 217 91 c 0
 227 169 253 258 264 294 c 0
 269 310 271 322 271 332 c 0
 271 348 265 355 256 355 c 0
 237 355 206 325 186 271 c 0
 165 218 145 191 131 191 c 0
 119 191 111 212 111 255 c 0
 111 377 164 471 253 499 c 0
 297 513 325 523 325 537 c 0
 325 543 314 552 308 558 c 0
 289 577 278 620 278 658 c 0
 278 687 289 707 302 720 c 0
EndSplineSet
Validated: 1
EndChar

StartChar: A
Encoding: 65 65 65
Width: 667
VWidth: 0
Flags: HW
LayerCount: 2
Back
Fore
SplineSet
161 685 m 0
 194 705 229 715 263 715 c 0
 320 715 376 689 422 641 c 0
 522 533 544 480 597 233 c 0
 622 110 647 2 656 -12 c 0
 657 -13 657 -14 657 -14 c 0
 657 -23 622 -32 572 -32 c 0
 565 -32 534 -32 526 -32 c 0
 471 -32 450 -27 450 -20 c 0
 450 -19 452 -17 456 -16 c 0
 498 -2 500 27 500 65 c 0
 500 70 500 75 500 80 c 0
 500 158 497 160 361 160 c 0
 225 160 222 158 222 80 c 0
 222 74 222 68 222 62 c 0
 222 26 225 -2 269 -15 c 0
 272 -16 273 -18 273 -19 c 0
 273 -25 229 -31 178 -31 c 2
 58 -32 l 1
 139 219 l 2
 184 359 233 488 247 502 c 0
 264 519 278 544 278 555 c 0
 278 569 260 576 236 576 c 0
 205 576 165 564 144 544 c 0
 135 535 129 531 124 531 c 0
 114 531 111 547 111 585 c 0
 111 624 133 671 161 685 c 0
444 349 m 0
 444 394 428 452 406 483 c 0
 390 503 380 515 371 515 c 0
 358 515 347 490 322 433 c 0
 296 371 282 333 282 309 c 0
 282 277 307 271 361 271 c 0
 433 271 444 283 444 349 c 0
EndSplineSet
Validated: 1
EndChar

StartChar: B
Encoding: 66 66 66
Width: 667
VWidth: 0
Flags: HW
LayerCount: 2
Back
Fore
SplineSet
128 605 m 0
 120 619 84 640 84 648 c 0
 84 659 100 661 132 661 c 0
 156 661 189 660 231 660 c 0
 342 660 400 644 456 602 c 0
 502 566 528 509 528 462 c 0
 528 434 518 409 497 396 c 0
 492 392 489 387 489 380 c 0
 489 368 501 352 525 335 c 0
 568 305 588 267 588 227 c 0
 588 117 440 -6 250 -6 c 2
 139 -6 l 1
 139 274 l 2
 139 337 140 400 140 453 c 0
 140 529 138 587 128 605 c 0
417 508 m 0
 397 530 358 549 331 549 c 0
 292 549 278 530 278 466 c 0
 278 402 292 383 331 383 c 0
 389 383 433 423 433 466 c 0
 433 480 428 495 417 508 c 0
503 255 m 0
 481 280 425 299 372 299 c 0
 286 299 278 291 278 216 c 0
 278 144 289 133 356 133 c 0
 400 133 458 149 486 171 c 0
 511 190 523 202 523 216 c 0
 523 226 516 238 503 255 c 0
EndSplineSet
Validated: 1
EndChar

StartChar: C
Encoding: 67 67 67
Width: 667
VWidth: 0
Flags: HW
LayerCount: 2
Back
Fore
SplineSet
192 611 m 0
 255 669 288 686 359 686 c 0
 374 686 391 685 411 684 c 0
 519 678 547 661 583 600 c 0
 601 567 609 543 609 522 c 0
 609 505 604 491 594 475 c 0
 562 423 509 386 475 386 c 0
 466 386 458 389 453 395 c 0
 449 400 447 405 447 410 c 0
 447 419 455 426 467 431 c 0
 492 442 500 467 500 497 c 0
 500 533 465 551 417 551 c 0
 381 551 338 541 297 520 c 0
 211 472 194 442 194 309 c 0
 194 180 264 107 367 107 c 0
 410 107 458 118 508 145 c 0
 536 160 552 166 565 166 c 0
 578 166 584 160 584 151 c 0
 584 129 556 88 494 50 c 0
 437 15 387 -2 339 -2 c 0
 280 -2 225 24 167 78 c 0
 102 139 84 159 84 241 c 0
 84 268 86 301 89 345 c 0
 100 511 108 539 192 611 c 0
EndSplineSet
Validated: 1
EndChar

StartChar: D
Encoding: 68 68 68
Width: 667
VWidth: 0
Flags: HW
LayerCount: 2
Back
Fore
SplineSet
105 386 m 2
 106 689 l 1
 249 689 l 2
 332 689 430 681 463 672 c 0
 577 641 639 474 639 309 c 0
 639 177 600 47 516 -11 c 0
 499 -22 388 -33 268 -33 c 0
 219 -33 180 -33 149 -33 c 0
 82 -33 55 -31 55 -16 c 0
 55 -8 79 0 89 24 c 0
 102 55 106 149 106 283 c 0
 106 316 105 350 105 386 c 2
482 506 m 0
 457 534 391 550 316 550 c 2
 193 550 l 1
 193 328 l 1
 193 106 l 1
 307 106 l 2
 491 106 527 139 527 314 c 0
 527 411 513 478 482 506 c 0
EndSplineSet
Validated: 1
EndChar

StartChar: E
Encoding: 69 69 69
Width: 667
VWidth: 0
Flags: HW
LayerCount: 2
Back
Fore
SplineSet
318 687 m 0
 382 687 406 688 443 688 c 0
 488 688 512 688 527 688 c 0
 531 688 524 716 538 716 c 0
 549 716 551 717 552 705 c 0
 553 695 553 674 553 657 c 0
 553 621 554 635 554 615 c 2
 554 550 l 1
 387 550 l 1
 220 550 l 1
 220 467 l 2
 220 392 229 384 304 384 c 0
 367 384 387 372 387 328 c 0
 387 284 367 272 304 272 c 0
 229 272 220 264 220 189 c 2
 220 106 l 1
 387 106 l 2
 551 106 553 103 554 31 c 2
 554 -33 l 1
 344 -32 l 1
 137 -31 l 1
 137 300 l 2
 137 410 139 491 139 548 c 0
 139 613 136 646 123 652 c 0
 121 653 85 660 85 674 c 0
 85 676 86 678 88 680 c 0
 94 686 134 687 194 687 c 0
 230 687 272 687 318 687 c 0
EndSplineSet
Validated: 1
EndChar

StartChar: F
Encoding: 70 70 70
Width: 667
VWidth: 0
Flags: HW
LayerCount: 2
Back
Fore
SplineSet
139 328 m 1
 139 689 l 1
 375 689 l 1
 611 689 l 1
 611 611 l 1
 611 550 l 1
 444 550 l 1
 278 551 l 1
 278 470 l 2
 278 406 289 384 328 384 c 0
 358 384 403 359 431 328 c 0
 451 305 463 292 463 284 c 0
 463 272 438 272 381 272 c 2
 278 272 l 1
 278 120 l 2
 278 -25 275 -33 208 -33 c 2
 139 -33 l 1
 139 328 l 1
EndSplineSet
Validated: 1
EndChar

StartChar: G
Encoding: 71 71 71
Width: 667
VWidth: 0
Flags: HW
LayerCount: 2
Back
Fore
SplineSet
222 679 m 0
 272 705 325 716 376 716 c 0
 491 716 596 657 625 557 c 0
 629 542 631 531 631 522 c 0
 631 500 619 493 589 493 c 0
 558 493 528 512 517 534 c 0
 506 562 474 576 433 576 c 0
 379 576 310 551 264 507 c 0
 211 451 194 407 194 312 c 0
 194 204 206 184 278 145 c 0
 328 118 398 105 453 105 c 0
 495 105 529 113 539 129 c 0
 545 138 548 149 548 161 c 0
 548 198 529 242 495 242 c 0
 484 242 474 244 466 244 c 0
 458 244 445 230 445 222 c 0
 445 208 425 194 403 194 c 0
 375 194 361 210 361 231 c 0
 361 255 380 286 414 305 c 0
 449 323 482 332 510 332 c 0
 584 332 633 285 633 196 c 0
 633 180 631 163 628 145 c 0
 603 13 555 -32 428 -32 c 0
 411 -32 392 -32 372 -30 c 0
 219 -16 156 26 111 145 c 0
 93 192 86 248 86 308 c 0
 86 465 141 638 222 679 c 0
EndSplineSet
Validated: 1
EndChar

StartChar: H
Encoding: 72 72 72
Width: 667
VWidth: 0
Flags: HW
LayerCount: 2
Back
Fore
SplineSet
111 328 m 2
 111 436 110 512 110 565 c 0
 110 685 116 687 161 689 c 0
 166 689 170 689 174 689 c 0
 217 689 222 676 222 611 c 0
 222 591 222 567 222 536 c 2
 222 384 l 1
 333 384 l 1
 444 384 l 1
 444 536 l 2
 444 684 447 689 522 689 c 2
 583 689 l 1
 583 328 l 1
 583 -33 l 1
 514 -33 l 1
 445 -33 l 1
 445 134 l 1
 445 300 l 1
 336 300 l 1
 222 300 l 1
 222 150 l 2
 222 119 221 92 221 70 c 0
 221 26 225 1 246 -6 c 0
 249 -7 277 -11 277 -18 c 0
 277 -19 276 -19 276 -20 c 0
 272 -26 214 -29 194 -30 c 2
 111 -33 l 1
 111 328 l 2
EndSplineSet
Validated: 1
EndChar

StartChar: I
Encoding: 73 73 73
Width: 667
VWidth: 0
Flags: HW
LayerCount: 2
Back
Fore
SplineSet
194 634 m 0
 194 684 214 689 347 689 c 0
 481 689 500 684 500 634 c 0
 500 597 481 578 444 578 c 0
 394 578 389 559 389 342 c 0
 389 125 394 106 444 106 c 0
 481 106 500 86 500 50 c 0
 500 0 481 -5 347 -5 c 0
 214 -5 194 0 194 50 c 0
 194 86 214 106 250 106 c 0
 300 106 306 125 306 342 c 0
 306 559 300 578 250 578 c 0
 214 578 194 597 194 634 c 0
EndSplineSet
Validated: 1
EndChar

StartChar: J
Encoding: 74 74 74
Width: 667
VWidth: 0
Flags: HW
LayerCount: 2
Back
Fore
SplineSet
440 430 m 2
 435 716 l 1
 515 716 l 1
 592 716 l 1
 587 405 l 2
 581 16 548 -34 365 -34 c 0
 207 -34 182 -17 126 113 c 0
 101 173 88 211 88 235 c 0
 88 264 109 271 154 271 c 0
 206 271 219 263 219 222 c 0
 219 215 219 206 218 196 c 0
 217 187 217 178 217 171 c 0
 217 129 232 113 284 94 c 0
 308 85 327 81 344 81 c 0
 366 81 385 89 404 105 c 0
 433 129 445 161 445 267 c 0
 445 309 441 362 440 430 c 2
EndSplineSet
Validated: 1
EndChar

StartChar: K
Encoding: 75 75 75
Width: 667
VWidth: 0
Flags: HW
LayerCount: 2
Back
Fore
SplineSet
435 701 m 0
 450 716 468 722 487 722 c 0
 544 722 610 664 610 596 c 0
 608 567 608 553 602 553 c 0
 597 553 587 566 568 590 c 0
 550 613 536 626 521 626 c 0
 495 626 468 584 418 482 c 0
 387 418 371 365 371 318 c 0
 371 260 395 211 443 162 c 0
 477 128 501 110 522 110 c 0
 547 110 563 138 596 185 c 2
 635 241 l 1
 624 137 l 2
 608 -18 593 -32 513 -32 c 0
 463 -32 421 4 355 107 c 0
 305 185 246 246 224 246 c 0
 205 246 197 234 197 199 c 0
 197 178 200 148 205 107 c 2
 224 -32 l 1
 138 -32 l 2
 88 -32 61 -31 61 -15 c 0
 61 -7 73 5 82 21 c 0
 102 58 111 181 111 302 c 0
 111 441 99 578 77 587 c 0
 63 592 56 599 56 609 c 0
 56 640 129 690 196 690 c 0
 257 690 277 676 277 637 c 0
 277 610 257 579 235 568 c 0
 210 560 193 518 193 457 c 0
 193 400 204 371 223 371 c 0
 250 371 294 428 346 537 c 0
 388 618 427 693 435 701 c 0
EndSplineSet
Validated: 1
EndChar

StartChar: L
Encoding: 76 76 76
Width: 667
VWidth: 0
Flags: HW
LayerCount: 2
Back
Fore
SplineSet
105 656 m 0
 87 656 82 666 82 673 c 0
 82 677 84 681 85 682 c 0
 92 688 102 690 120 690 c 0
 133 690 150 689 174 689 c 2
 277 689 l 1
 277 397 l 1
 277 106 l 1
 388 106 l 2
 410 106 429 105 445 105 c 0
 473 105 491 107 499 116 c 0
 510 128 493 160 527 161 c 0
 527 161 528 161 528 161 c 0
 553 161 555 138 555 105 c 0
 555 96 555 87 555 78 c 2
 555 -5 l 1
 346 -5 l 1
 138 -5 l 1
 138 309 l 2
 138 378 139 440 139 491 c 0
 139 594 134 656 105 656 c 0
EndSplineSet
Validated: 1
EndChar

StartChar: M
Encoding: 77 77 77
Width: 667
VWidth: 0
Flags: HW
LayerCount: 2
Back
Fore
SplineSet
113 407 m 4
 132 562 157 690 168 690 c 4
 196 690 360 360 363 301 c 4
 363 298 364 296 365 296 c 4
 371 296 396 348 427 426 c 4
 524 679 530 690 568 690 c 4
 593 690 610 621 621 462 c 4
 632 335 646 173 655 98 c 6
 671 -32 l 5
 585 -32 l 6
 532 -32 513 -30 513 -9 c 4
 513 1 518 17 527 40 c 4
 541 75 552 170 552 264 c 4
 552 274 552 285 552 296 c 4
 550 399 549 443 542 443 c 4
 538 443 531 420 521 379 c 4
 505 321 485 273 471 273 c 4
 460 273 443 237 432 190 c 4
 422 137 410 111 395 111 c 4
 376 111 352 151 321 229 c 4
 296 296 255 360 230 368 c 4
 224 370 219 372 215 372 c 4
 200 372 194 356 194 310 c 4
 194 284 196 249 199 201 c 4
 207 85 224 10 252 -7 c 4
 259 -11 263 -15 263 -18 c 4
 263 -28 233 -32 168 -32 c 4
 80 -32 57 -30 57 3 c 4
 57 14 60 28 63 46 c 4
 71 87 93 248 113 407 c 4
EndSplineSet
Validated: 1
EndChar

StartChar: N
Encoding: 78 78 78
Width: 667
VWidth: 0
Flags: HW
LayerCount: 2
Back
Fore
SplineSet
548 650 m 4
 573 670 601 689 609 689 c 4
 612 689 614 672 614 643 c 4
 614 601 611 535 604 461 c 4
 595 334 584 178 584 114 c 4
 581 6 576 -5 512 -5 c 4
 467 -5 442 11 442 39 c 4
 442 86 290 375 231 439 c 4
 224 446 217 451 213 451 c 4
 196 451 192 399 192 242 c 4
 192 28 167 -61 112 -61 c 4
 105 -61 101 7 101 108 c 4
 101 160 102 221 104 286 c 4
 109 534 123 634 145 634 c 4
 181 631 304 481 390 336 c 4
 422 278 446 249 463 249 c 4
 487 249 498 307 498 428 c 4
 498 572 509 622 548 650 c 4
EndSplineSet
Validated: 1
EndChar

StartChar: O
Encoding: 79 79 79
Width: 667
VWidth: 0
Flags: HW
LayerCount: 2
Back
Fore
SplineSet
168 552 m 0
 227 607 285 634 343 634 c 0
 407 634 471 602 538 538 c 0
 624 458 638 427 638 321 c 0
 638 188 568 103 513 60 c 0
 495.66796875 46.4501953125 475 42 443 21 c 0
 422.778698759 7.72977106041 407 -6 360 -6 c 0
 316 -6 287 11 259 32 c 0
 245.400156246 42.1998828152 230.000098218 44.0001368036 191 72 c 0
 134.474609375 112.58203125 82 188 82 333 c 0
 82 452 93 483 168 552 c 0
521 460 m 0
 500 481 457 492 410 492 c 0
 357 492 301 478 268 452 c 0
 238 433 210 363 202 296 c 0
 199 277 198 260 198 244 c 0
 198 148 250 105 360 105 c 0
 485 105 555 177 555 310 c 0
 555 374 541 441 521 460 c 0
305 355 m 0
 305 371 318 383 332 383 c 0
 349 383 360 371 360 355 c 0
 360 341 349 327 332 327 c 0
 318 327 305 341 305 355 c 0
EndSplineSet
Validated: 1
EndChar

StartChar: P
Encoding: 80 80 80
Width: 667
VWidth: 0
Flags: HW
LayerCount: 2
Back
Fore
SplineSet
117 652 m 0
 110 660 86 660 86 675 c 0
 86 676 86 677 86 678 c 0
 88 687 107 689 148 689 c 0
 174 689 211 688 257 688 c 0
 427 688 455 680 513 616 c 0
 557 568 580 514 580 462 c 0
 580 421 565 381 535 349 c 0
 502 313 452 299 341 299 c 2
 193 299 l 1
 193 133 l 2
 193 -17 188 -34 138 -34 c 0
 109 -34 95 -31 95 -18 c 0
 95 -10 101 2 110 19 c 0
 129 56 138 191 138 329 c 0
 138 386 139 440 139 487 c 0
 139 567 136 628 117 652 c 0
485 538 m 0
 457 560 380 577 313 577 c 0
 196 577 193 577 193 480 c 0
 193 383 193 383 313 383 c 0
 402 383 449 399 488 441 c 0
 513 468 516 484 516 496 c 0
 516 509 511 517 485 538 c 0
EndSplineSet
Validated: 1
EndChar

StartChar: Q
Encoding: 81 81 81
Width: 667
VWidth: 0
Flags: HW
LayerCount: 2
Back
Fore
SplineSet
125 678 m 4
 158 703 217 716 278 716 c 4
 345 716 415 701 458 672 c 4
 549 613 609 441 609 288 c 4
 609 226 600 167 578 120 c 4
 567 97 562 80 562 64 c 4
 562 38 577 17 611 -19 c 4
 639 -50 653 -70 653 -80 c 4
 653 -84 650 -86 645 -86 c 4
 631 -86 601 -73 556 -47 c 4
 517 -25 425 -8 353 -5 c 4
 242 -5 203 9 133 78 c 4
 72 141 56 159 56 258 c 4
 56 294 58 340 61 403 c 4
 72 595 83 647 125 678 c 4
467 467 m 4
 404 526 342 554 289 554 c 4
 202 554 138 479 122 339 c 4
 117 302 115 274 115 251 c 4
 115 197 129 171 164 136 c 4
 200 100 258 78 322 78 c 4
 378 78 401 79 401 90 c 4
 401 97 393 107 378 122 c 4
 353 145 333 189 333 220 c 4
 333 255 350 272 370 272 c 4
 392 272 416 251 422 211 c 4
 428 170 450 147 486 147 c 4
 531 147 544 170 550 267 c 4
 551 285 552 300 552 314 c 4
 552 380 533 407 467 467 c 4
EndSplineSet
Validated: 1
EndChar

StartChar: R
Encoding: 82 82 82
Width: 667
VWidth: 0
Flags: HW
LayerCount: 2
Back
Fore
SplineSet
109 356 m 1
 109 717 l 1
 251 716 l 2
 432 715 520 660 545 530 c 0
 549 510 551 494 551 480 c 0
 551 441 535 416 493 377 c 2
 420 310 l 1
 479 221 l 2
 513 166 538 143 568 143 c 0
 574 143 580 144 587 146 c 0
 596 149 604 151 611 151 c 0
 631 151 641 138 641 113 c 0
 641 95 635 69 623 38 c 0
 612 10 592 -3 568 -3 c 0
 508 -3 420 76 362 196 c 0
 331 262 282 298 245 298 c 0
 216 298 195 276 195 230 c 0
 195 191 215 152 237 144 c 0
 259 133 279 96 279 60 c 0
 279 7 266 -6 198 -6 c 0
 195 -6 193 -6 190 -6 c 2
 109 -5 l 1
 109 356 l 1
415 538 m 0
 398 560 340 577 290 577 c 0
 201 577 195 571 195 480 c 0
 195 388 201 383 287 383 c 0
 370 383 433 435 433 489 c 0
 433 506 428 522 415 538 c 0
EndSplineSet
Validated: 1
EndChar

StartChar: S
Encoding: 83 83 83
Width: 667
VWidth: 0
Flags: HW
LayerCount: 2
Back
Fore
SplineSet
292 655 m 0
 334 679 376 691 417 691 c 0
 492 691 560 650 600 574 c 0
 614 545 622 524 622 511 c 0
 622 501 617 496 607 496 c 0
 605 496 602 496 600 496 c 0
 564 496 556 511 511 535 c 0
 470 556 453 572 388 572 c 0
 383 572 377 572 371 572 c 0
 289 569 229 513 229 473 c 0
 229 473 229 472 229 472 c 0
 230 416 290 423 369 396 c 0
 447 369 536 330 564 305 c 0
 598 276 612 239 612 201 c 0
 612 102 510 -6 375 -6 c 0
 322 -6 300 4 291 14 c 0
 273 34 259 38 242 49 c 0
 223 61 175 80 139 119 c 0
 108 151 94 169 94 178 c 0
 94 186 104 185 122 188 c 0
 128 189 134 189 140 189 c 0
 179 189 202 166 236 144 c 0
 270 122 326 109 382 109 c 0
 391 109 399 109 408 110 c 0
 500 119 514 130 522 196 c 0
 524 212 525 227 525 239 c 0
 525 258 487 278 455 280 c 0
 389 284 205 333 175 358 c 0
 151 378 140 406 140 438 c 0
 140 510 197 601 292 655 c 0
EndSplineSet
Validated: 1
EndChar

StartChar: T
Encoding: 84 84 84
Width: 667
VWidth: 0
Flags: HW
LayerCount: 2
Back
Fore
SplineSet
82 628 m 2
 82 690 l 1
 360 690 l 1
 638 690 l 1
 638 628 l 2
 638 559 630 550 541 550 c 2
 443 550 l 1
 443 300 l 2
 443 153 443 51 459 51 c 0
 472 51 501 41 501 25 c 0
 501 20 499 15 494 10 c 0
 481 -4 452 -5 401 -5 c 0
 388 -5 375 -5 360 -5 c 0
 285 -5 241 -5 228 11 c 0
 223 17 221 22 221 26 c 0
 221 43 251 51 262 51 c 0
 276 51 277 118 277 221 c 0
 277 246 277 272 277 300 c 2
 277 550 l 1
 180 550 l 2
 91 550 82 559 82 628 c 2
EndSplineSet
Validated: 1
EndChar

StartChar: U
Encoding: 85 85 85
Width: 667
VWidth: 0
Flags: HW
LayerCount: 2
Back
Fore
SplineSet
111 414 m 2
 111 689 l 1
 203 686 l 2
 240 685 272 685 273 679 c 0
 273 678 273 678 273 677 c 0
 273 659 239 661 235 659 c 0
 224 652 221 628 221 578 c 0
 221 546 222 503 222 447 c 0
 222 431 222 413 222 395 c 0
 222 364 221 336 221 311 c 0
 221 138 233 132 292 117 c 0
 312 113 336 111 362 111 c 0
 386 111 412 113 431 117 c 0
 497 134 500 139 500 395 c 0
 500 472 501 530 501 571 c 0
 501 629 499 656 486 661 c 0
 485 661 483 661 480 661 c 0
 479 661 478 661 476 661 c 0
 464 661 446 662 446 679 c 0
 446 684 484 685 522 686 c 2
 611 689 l 1
 611 414 l 2
 611 181 603 131 553 67 c 0
 506 6 475 -5 361 -5 c 0
 247 -5 217 6 169 67 c 0
 119 131 111 181 111 414 c 2
EndSplineSet
Validated: 1
EndChar

StartChar: V
Encoding: 86 86 86
Width: 667
VWidth: 0
Flags: HW
LayerCount: 2
Back
Fore
SplineSet
83 657 m 0
 83 676 122 690 194 690 c 0
 256 690 306 679 306 662 c 0
 306 648 289 635 267 635 c 0
 224 635 202 602 202 544 c 0
 202 489 222 410 261 315 c 0
 281 271 308 204 322 168 c 0
 329 149 335 138 343 138 c 0
 360 138 383 185 439 312 c 0
 497 449 525 538 525 587 c 0
 525 620 512 635 486 635 c 0
 464 635 444 648 444 662 c 0
 444 679 489 690 542 690 c 0
 619 690 639 679 639 637 c 0
 639 496 403 -4 333 -4 c 0
 292 -4 242 79 189 232 c 0
 153 346 86 612 83 657 c 0
EndSplineSet
Validated: 1
EndChar

StartChar: W
Encoding: 87 87 87
Width: 667
VWidth: 0
Flags: HW
LayerCount: 2
Back
Fore
SplineSet
78 349 m 0
 76 416 74 468 74 509 c 0
 74 629 85 661 118 661 c 0
 160 661 167 616 167 391 c 2
 167 135 l 1
 247 230 l 1
 331 327 l 1
 414 230 l 1
 497 132 l 1
 500 391 l 2
 503 616 505 661 549 661 c 0
 578 661 590 634 590 541 c 0
 590 497 587 435 583 349 c 0
 573 101 562 2 522 2 c 0
 500 2 471 30 428 80 c 2
 333 188 l 1
 239 82 l 2
 196 34 165 6 142 6 c 0
 99 6 85 106 78 349 c 0
EndSplineSet
Validated: 1
EndChar

StartChar: X
Encoding: 88 88 88
Width: 667
VWidth: 0
Flags: HW
LayerCount: 2
Back
Fore
SplineSet
57 718 m 0
 57 738 66 747 80 747 c 0
 115 747 182 694 232 618 c 0
 276 548 320 493 334 493 c 0
 345 493 393 548 437 618 c 0
 482 687 537 743 565 743 c 0
 592 743 607 739 607 725 c 0
 607 703 571 654 490 551 c 2
 370 398 l 1
 493 226 l 2
 557 132 612 40 612 23 c 0
 612 2 595 -8 574 -8 c 0
 544 -8 505 11 487 43 c 0
 470 70 434 140 407 195 c 0
 376 251 345 298 337 298 c 0
 307 295 168 82 168 37 c 0
 168 12 145 -7 112 -7 c 0
 77 -7 60 3 60 25 c 0
 60 46 76 80 109 126 c 0
 137 168 168 229 179 262 c 0
 190 293 215 337 237 354 c 0
 251 366 258 376 258 389 c 0
 258 408 243 432 209 476 c 0
 170 526 140 582 140 595 c 0
 140 612 120 640 98 659 c 0
 76 679 57 704 57 718 c 0
EndSplineSet
Validated: 1
EndChar

StartChar: Y
Encoding: 89 89 89
Width: 667
VWidth: 0
Flags: HW
LayerCount: 2
Back
Fore
SplineSet
83 730 m 0
 83 738 106 744 136 744 c 0
 175 744 191 715 206 646 c 0
 217 594 226 567 247 549 c 0
 258 540 286 513 306 466 c 0
 325 421 347 383 358 383 c 0
 383 383 528 655 528 702 c 0
 528 724 553 744 583 744 c 0
 614 744 639 738 639 730 c 0
 639 702 494 427 442 349 c 0
 411 308 389 230 389 163 c 0
 389 69 397 49 444 49 c 0
 475 49 500 38 500 21 c 0
 500 -24 427 -30 355 -30 c 0
 333 -30 312 -27 292 -23 c 0
 270 -19 224 -13 224 22 c 0
 224 23 224 23 224 24 c 0
 225 38 242 49 278 49 c 0
 319 49 338 85 338 140 c 0
 338 212 305 317 242 416 c 0
 158 549 83 699 83 730 c 0
EndSplineSet
Validated: 1
EndChar

StartChar: Z
Encoding: 90 90 90
Width: 667
VWidth: 0
Flags: HW
LayerCount: 2
Back
Fore
SplineSet
116 656 m 0
 128 668 146 684 153 684 c 0
 160 684 157 670 160 661 c 0
 166 645 263 634 391 634 c 0
 521 634 610 622 610 606 c 0
 610 589 555 509 485 425 c 0
 416 339 341 234 318 189 c 2
 274 106 l 1
 424 106 l 2
 505 106 572 106 605 139 c 0
 618 152 627 159 631 159 c 0
 634 159 636 156 636 152 c 0
 636 139 625 110 605 64 c 0
 574 -3 563 -5 327 -5 c 0
 99 -5 82 -3 82 50 c 0
 82 81 102 114 124 122 c 0
 163 139 416 495 416 534 c 0
 416 542 341 550 249 550 c 0
 134 550 80 564 80 597 c 0
 80 612 92 632 116 656 c 0
EndSplineSet
Validated: 1
EndChar

StartChar: bracketleft
Encoding: 91 91 91
Width: 667
VWidth: 0
Flags: HW
LayerCount: 2
Back
Fore
SplineSet
222 272 m 5
 222 689 l 5
 375 689 l 6
 519 689 528 686 528 620 c 4
 528 559 517 550 431 550 c 6
 333 550 l 5
 333 259 l 5
 333 -33 l 5
 431 -33 l 6
 508 -33 528 -44 528 -89 c 4
 528 -139 508 -144 375 -144 c 6
 222 -144 l 5
 222 272 l 5
EndSplineSet
Validated: 1
EndChar

StartChar: backslash
Encoding: 92 92 92
Width: 667
VWidth: 0
Flags: HW
LayerCount: 2
Back
Fore
SplineSet
139 634 m 0
 139 670 153 687 171 687 c 0
 192 687 219 666 239 625 c 0
 258 592 331 459 400 328 c 0
 485 171 525 79 525 33 c 0
 525 6 511 -5 486 -5 c 0
 464 -5 444 20 444 50 c 0
 444 81 433 106 417 106 c 0
 403 106 381 139 372 184 c 0
 350 270 281 406 231 461 c 0
 211 481 194 517 194 539 c 0
 194 561 183 578 167 578 c 0
 153 578 139 603 139 634 c 0
EndSplineSet
Validated: 1
EndChar

StartChar: bracketright
Encoding: 93 93 93
Width: 667
VWidth: 0
Flags: HW
LayerCount: 2
Back
Fore
SplineSet
193 621 m 0
 193 687 202 690 346 690 c 2
 499 690 l 1
 499 273 l 1
 499 -143 l 1
 346 -143 l 2
 213 -143 193 -138 193 -88 c 0
 193 -43 213 -32 291 -32 c 2
 388 -32 l 1
 388 260 l 1
 388 551 l 1
 291 551 l 2
 205 551 193 560 193 621 c 0
221 385 m 0
 221 421 241 440 277 440 c 0
 313 440 332 421 332 385 c 0
 332 348 313 329 277 329 c 0
 241 329 221 348 221 385 c 0
EndSplineSet
Validated: 1
EndChar

StartChar: asciicircum
Encoding: 94 94 94
Width: 667
VWidth: 0
Flags: HW
LayerCount: 2
Back
Fore
SplineSet
218 484 m 0
 288 595 352 687 360 687 c 0
 368 687 432 595 502 484 c 0
 576 371 606 321 606 298 c 0
 606 283 594 279 574 276 c 0
 570 275 566 275 561 275 c 0
 528 275 476 295 441 323 c 2
 360 388 l 1
 280 323 l 2
 245 294 192 275 159 275 c 0
 154 275 150 275 146 276 c 0
 126 279 114 283 114 298 c 0
 114 321 144 371 218 484 c 0
EndSplineSet
Validated: 1
EndChar

StartChar: underscore
Encoding: 95 95 95
Width: 667
VWidth: 0
Flags: HW
LayerCount: 2
Back
Fore
SplineSet
0 -88 m 0
 0 -35 19 -32 333 -32 c 0
 647 -32 667 -35 667 -88 c 0
 667 -140 647 -143 333 -143 c 0
 19 -143 0 -140 0 -88 c 0
EndSplineSet
Validated: 1
EndChar

StartChar: grave
Encoding: 96 96 96
Width: 667
VWidth: 0
Flags: HW
LayerCount: 2
Back
Fore
SplineSet
312 616 m 0
 319 635 340 662 370 662 c 0
 371 662 372 662 373 662 c 0
 377 662 379.932140045 661.766964989 383 661 c 0
 411 654 451 635 451 588 c 0
 451 571 447.615187249 551.153338639 439 529 c 0
 432 511 411 493 411 478 c 0
 411 427 452.934763435 391.899080649 473 379 c 0
 487 370 494 364 494 361 c 0
 494 358 490 357 480 357 c 0
 473 357 462 357 448 359 c 0
 386 367 306 493 306 578 c 0
 306 592 308 605 312 616 c 0
EndSplineSet
Validated: 1
EndChar

StartChar: a
Encoding: 97 97 97
Width: 667
VWidth: 0
Flags: HW
LayerCount: 2
Back
Fore
SplineSet
462 396 m 0
 487 419 509 438 515 438 c 0
 516 438 516 433 516 423 c 0
 516 396 513 332 507 258 c 0
 503 206 501 169 501 143 c 0
 501 103 506 89 521 89 c 0
 526 89 532 91 540 94 c 0
 550 98 558 100 565 100 c 0
 577 100 583 93 583 84 c 0
 583 68 569 44 540 19 c 0
 523 5 509 -2 493 -2 c 0
 479 -2 464 4 445 16 c 0
 427 27 411 32 398 32 c 0
 389 32 381 29 376 21 c 0
 364 4 339 -5 309 -5 c 0
 269 -5 222 11 190 41 c 0
 157 71 140 124 140 179 c 0
 140 240 160 304 201 346 c 0
 239 387 296 411 341 411 c 0
 369 411 392 402 404 383 c 0
 408 376 414 373 422 373 c 0
 433 373 447 381 462 396 c 0
384 205 m 0
 377 267 342 297 306 297 c 0
 265 297 223 259 223 188 c 0
 223 133 240 102 282 91 c 0
 297 86 310 84 321 84 c 0
 364 84 386 115 386 173 c 0
 386 183 385 194 384 205 c 0
EndSplineSet
Validated: 1
EndChar

StartChar: b
Encoding: 98 98 98
Width: 667
VWidth: 0
Flags: HW
LayerCount: 2
Back
Fore
SplineSet
193 657 m 0
 209 690 243 718 265 718 c 0
 298 718 307 679 307 543 c 2
 307 368 l 1
 401 379 l 2
 409 380 417 381 425 381 c 0
 520 381 584 302 584 185 c 0
 584 54 520 15 243 -15 c 0
 199 -20 170 -23 152 -23 c 0
 137 -23 130 -21 130 -15 c 0
 130 -10 138 -1 151 12 c 0
 184 46 195 115 195 304 c 0
 195 521 190 551 148 551 c 0
 118 551 109 560 129 573 c 0
 145 585 173 621 193 657 c 0
457 285 m 0
 432 294 413 299 398 299 c 0
 368 299 352 278 332 226 c 0
 324 203 319 184 319 168 c 0
 319 131 341 111 381 111 c 0
 395 111 411 113 429 118 c 0
 477 129 504 173 504 214 c 0
 504 245 489 273 457 285 c 0
EndSplineSet
Validated: 1
EndChar

StartChar: c
Encoding: 99 99 99
Width: 667
VWidth: 0
Flags: HW
LayerCount: 2
Back
Fore
SplineSet
235 399 m 0
 278 444 326 467 375 467 c 0
 414 467 454 452 493 424 c 0
 532 397 552 376 552 363 c 0
 552 351 536 345 505 345 c 0
 490 345 471 346 449 349 c 0
 433 351 418 352 405 352 c 0
 322 352 280 312 280 232 c 0
 280 222 281 211 282 199 c 0
 290 134 311 112 377 104 c 0
 381 104 395 102 411 102 c 0
 433 102 458 105 473 116 c 0
 494 132 510 138 522 138 c 0
 539 138 549 126 554 111 c 0
 555 109 555 107 555 105 c 0
 555 65 427 -3 355 -3 c 0
 236 -3 162 107 162 222 c 0
 162 285 185 350 235 399 c 0
EndSplineSet
Validated: 1
EndChar

StartChar: d
Encoding: 100 100 100
Width: 667
VWidth: 0
Flags: HW
LayerCount: 2
Back
Fore
SplineSet
419 563 m 2
 419 690 419 726 443 726 c 0
 452 726 465 721 483 713 c 0
 526 694 539 682 539 566 c 0
 539 526 537 474 535 405 c 0
 534 363 533 325 533 292 c 0
 533 179 540 116 558 105 c 0
 568 98 572 84 572 68 c 0
 572 35 554 -6 530 -6 c 0
 519 -6 494 10 477 33 c 0
 464 49 453 57 438 57 c 0
 421 57 399 47 363 27 c 0
 324 5 301 -6 279 -6 c 0
 258 -6 238 3 205 21 c 0
 145 54 115 115 115 182 c 0
 115 234 133 289 171 338 c 0
 212 389 234 406 279 406 c 0
 293 406 308 405 327 402 c 2
 419 385 l 1
 419 563 l 2
385 294 m 0
 364 315 339 325 315 325 c 0
 256 325 201 270 201 193 c 0
 201 187 201 181 202 174 c 0
 209 113 239 80 280 80 c 0
 306 80 336 93 366 121 c 0
 400 152 418 187 418 221 c 0
 418 247 407 272 385 294 c 0
EndSplineSet
Validated: 1
EndChar

StartChar: e
Encoding: 101 101 101
Width: 667
VWidth: 0
Flags: HW
LayerCount: 2
Back
Fore
SplineSet
270 464 m 0
 293 478 341 488 387 488 c 0
 398 488 408 487 418 486 c 0
 509 481 515 475 515 384 c 0
 515 292 507 284 370 228 c 0
 284 194 249 180 249 167 c 0
 249 157 264 148 290 134 c 0
 318 118 369 108 417 108 c 0
 431 108 444 109 457 111 c 0
 476 113 493 114 508 114 c 0
 537 114 557 110 557 103 c 0
 557 61 432 -5 354 -5 c 0
 262 -5 140 106 140 189 c 0
 140 278 212 431 270 464 c 0
440 350 m 0
 441 354 442 357 442 360 c 0
 442 376 425 383 403 383 c 0
 371 383 328 368 304 339 c 0
 293 325 286 315 286 309 c 0
 286 304 291 302 303 302 c 0
 313 302 328 303 348 306 c 0
 393 309 432 331 440 350 c 0
EndSplineSet
Validated: 1
EndChar

StartChar: f
Encoding: 102 102 102
Width: 667
VWidth: 0
Flags: HW
LayerCount: 2
Back
Fore
SplineSet
325 670 m 0
 338 683 365 690 395 690 c 0
 444 690 500 673 511 645 c 0
 522 617 527 597 527 583 c 0
 527 564 517 556 496 556 c 0
 486 556 473 558 458 561 c 0
 442 565 429 568 420 568 c 0
 391 568 389 542 389 453 c 0
 389 339 394 328 456 328 c 0
 492 328 531 345 536 364 c 0
 541 376 545 381 547 381 c 0
 550 381 551 375 551 366 c 0
 551 341 541 290 528 245 c 0
 520 217 512 191 508 191 c 0
 504 191 504 211 503 225 c 0
 500 253 478 272 442 272 c 0
 402 272 389 266 389 216 c 0
 389 196 391 170 394 134 c 0
 398 96 401 69 401 49 c 0
 401 0 386 -5 347 -5 c 0
 308 -5 294 1 294 50 c 0
 294 70 296 97 300 134 c 0
 303 172 305 199 305 219 c 0
 305 269 291 272 242 272 c 0
 197 272 167 253 158 222 c 0
 147 184 144 184 144 231 c 0
 144 232 144 234 144 235 c 0
 144 286 175 378 187 378 c 0
 190 378 191 374 192 364 c 0
 194 345 219 328 250 328 c 0
 300 328 306 347 306 489 c 0
 306 578 314 661 325 670 c 0
EndSplineSet
Validated: 1
EndChar

StartChar: g
Encoding: 103 103 103
Width: 667
VWidth: 0
Flags: HW
LayerCount: 2
Back
Fore
SplineSet
256 457 m 4
 294 496 352 520 397 520 c 4
 424 520 447 512 458 493 c 4
 464 484 477 480 491 480 c 4
 500 480 509 481 517 484 c 4
 526 488 533 490 539 490 c 4
 547 490 551 485 551 475 c 4
 551 466 548 453 542 434 c 4
 531 398 500 320 472 265 c 6
 419 162 l 5
 494 151 l 6
 532 145 551 142 551 138 c 4
 551 134 536 128 508 118 c 4
 472 107 444 73 444 43 c 4
 444 -37 329 -142 241 -142 c 4
 236 -142 232 -142 228 -141 c 4
 164 -135 153 -118 153 -49 c 4
 153 12 175 48 247 95 c 4
 290 125 316 148 316 156 c 4
 316 158 314 159 311 159 c 4
 258 159 194 245 194 320 c 4
 194 359 222 420 256 457 c 4
417 398 m 4
 417 423 401 435 379 435 c 4
 357 435 328 422 306 395 c 4
 291 378 285 357 285 338 c 4
 285 302 308 270 344 270 c 4
 383 270 417 329 417 398 c 4
389 54 m 4
 389 84 383 100 369 100 c 4
 349 100 312 70 250 7 c 4
 201 -44 180 -69 180 -84 c 4
 180 -95 189 -101 206 -107 c 4
 211 -109 217 -110 224 -110 c 4
 286 -110 389 -14 389 54 c 4
EndSplineSet
Validated: 1
EndChar

StartChar: h
Encoding: 104 104 104
Width: 667
VWidth: 0
Flags: HW
LayerCount: 2
Back
Fore
SplineSet
173 617 m 0
 179 629 186 637 202 639 c 0
 202 639 202 639 203 639 c 0
 218 639 212 571 217 461 c 0
 222 342 231 245 239 245 c 0
 244 245 275 259 303 278 c 0
 326 292 348 299 366 299 c 0
 414 299 444 255 444 175 c 0
 444 99 473 54 514 54 c 0
 531 54 550 62 569 78 c 0
 585 91 595 98 602 98 c 0
 609 98 611 89 611 70 c 0
 611 17 554 -30 488 -30 c 0
 481 -30 474 -29 467 -28 c 0
 419 -22 400 3 394 64 c 0
 385 141 369 177 336 177 c 0
 321 177 303 170 281 156 c 0
 244 134 224 88 224 49 c 0
 224 21 235 -4 258 -14 c 0
 263 -16 265 -19 265 -21 c 0
 265 -26 250 -29 222 -30 c 2
 161 -33 l 1
 166 275 l 2
 167 320 167 363 167 403 c 0
 167 433 167 461 167 487 c 0
 167 557 168 607 173 617 c 0
EndSplineSet
Validated: 1
EndChar

StartChar: i
Encoding: 105 105 105
Width: 667
VWidth: 0
Flags: HW
LayerCount: 2
Back
Fore
SplineSet
298 550 m 0
 298 567 324 586 346 586 c 0
 368 586 394 569 394 552 c 0
 394 538 368 515 346 515 c 0
 324 515 298 536 298 550 c 0
296 259 m 0
 290 316 287 355 287 382 c 0
 287 433 299 439 332 439 c 0
 382 439 388 420 388 261 c 0
 388 161 402 72 416 64 c 0
 436 52 445 41 445 31 c 0
 445 10 404 -5 332 -5 c 0
 261 -5 221 9 221 27 c 0
 221 38 236 50 266 61 c 0
 292 70 303 89 303 146 c 0
 303 173 301 210 296 259 c 0
EndSplineSet
Validated: 1
EndChar

StartChar: j
Encoding: 106 106 106
Width: 667
VWidth: 0
Flags: HW
LayerCount: 2
Back
Fore
SplineSet
444 576 m 0
 444 612 464 632 500 632 c 0
 536 632 556 612 556 576 c 0
 556 540 536 520 500 520 c 0
 464 520 444 540 444 576 c 0
482 409 m 0
 490 426 497 435 502 435 c 0
 513 435 517 363 522 237 c 0
 524 188 525 147 525 111 c 0
 525 -44 503 -87 431 -119 c 0
 389 -138 347 -147 309 -147 c 0
 214 -147 142 -91 142 -6 c 0
 142 2 143 11 144 20 c 0
 150 51 153 67 158 67 c 0
 164 67 172 48 189 9 c 0
 214 -53 261 -86 310 -86 c 0
 338 -86 366 -75 392 -52 c 0
 433 -16 444 34 444 159 c 0
 444 251 462 376 482 409 c 0
EndSplineSet
Validated: 1
EndChar

StartChar: k
Encoding: 107 107 107
Width: 667
VWidth: 0
Flags: HW
LayerCount: 2
Back
Fore
SplineSet
205 517 m 0
 218 538 230 548 240 548 c 0
 262 548 277 500 277 408 c 0
 277 333 285 269 296 269 c 0
 307 269 357 308 405 356 c 0
 453 404 500 429 528 429 c 0
 531 429 535 429 538 428 c 0
 565 416 582 374 582 340 c 0
 582 316 573 297 555 297 c 0
 541 297 527 311 527 328 c 0
 527 332 523 335 517 335 c 0
 503 335 476 324 443 306 c 0
 399 281 360 244 360 228 c 0
 360 184 529 77 580 77 c 0
 586 77 591 79 593 83 c 0
 595 88 596 91 598 91 c 0
 603 91 607 72 607 42 c 0
 607 40 607 38 607 36 c 0
 607 -11 591 -34 562 -34 c 0
 528 -34 478 -2 416 61 c 0
 356 123 320 153 300 153 c 0
 283 153 277 129 277 81 c 0
 277 36 252 -22 221 -50 c 0
 195 -73 173 -84 158 -84 c 0
 148 -84 141 -78 141 -68 c 0
 141 -58 148 -43 163 -25 c 0
 181 -4 192 70 192 182 c 0
 192 203 192 226 191 250 c 0
 190 274 190 298 190 321 c 0
 190 420 195 501 205 517 c 0
EndSplineSet
Validated: 1
EndChar

StartChar: l
Encoding: 108 108 108
Width: 667
VWidth: 0
Flags: HW
LayerCount: 2
Back
Fore
SplineSet
333 592 m 0
 375 688 392 713 436 713 c 0
 444 713 454 712 464 711 c 0
 531 703 542 689 550 603 c 0
 551 592 552 582 552 573 c 0
 552 509 525 468 433 364 c 0
 350 272 306 197 306 150 c 0
 306 104 315 81 333 81 c 0
 348 81 372 99 403 134 c 0
 435 169 478 190 504 190 c 0
 518 190 528 184 528 170 c 0
 528 156 483 111 428 67 c 0
 378 28 336 8 303 8 c 0
 263 8 239 37 225 95 c 0
 220 116 229 166 204 166 c 0
 198 166 191 164 182 158 c 0
 181 157 179 156 177 155 c 0
 171 152 170 169 170 179 c 0
 170 203 184 245 209 303 c 0
 242 373 278 445 278 450 c 0
 278 456 303 520 333 592 c 0
500 600 m 0
 500 623 488 633 472 633 c 0
 448 633 414 610 394 572 c 0
 350 486 322 406 322 373 c 0
 322 362 325 356 331 356 c 0
 361 356 500 556 500 600 c 0
EndSplineSet
Validated: 1
EndChar

StartChar: m
Encoding: 109 109 109
Width: 667
VWidth: 0
Flags: HW
LayerCount: 2
Back
Fore
SplineSet
178 445 m 0
 199 459 228 465 255 465 c 0
 299 465 341 450 353 422 c 0
 360 402 365 391 370 391 c 0
 376 391 383 402 394 422 c 0
 410 451 445 465 481 465 c 0
 522 465 564 448 583 414 c 0
 601 378 610 328 610 274 c 0
 610 203 594 128 564 75 c 0
 533 24 499 -2 475 -2 c 0
 457 -2 444 15 444 50 c 0
 444 81 456 106 472 106 c 0
 498 106 522 202 522 270 c 0
 522 298 518 321 508 331 c 0
 497 342 483 347 469 347 c 0
 431 347 389 310 389 261 c 0
 389 231 375 184 361 161 c 0
 355 151 350 146 346 146 c 0
 337 146 333 169 333 220 c 0
 333 286 319 328 289 339 c 0
 275 345 262 348 251 348 c 0
 209 348 190 300 161 161 c 0
 144 70 117 -5 106 -5 c 0
 94 -5 83 64 83 150 c 0
 83 300 117 406 178 445 c 0
EndSplineSet
Validated: 1
EndChar

StartChar: n
Encoding: 110 110 110
Width: 667
VWidth: 0
Flags: HW
LayerCount: 2
Back
Fore
SplineSet
161 433 m 0
 192 472 229 493 253 493 c 0
 268 493 278 484 278 466 c 0
 278 452 300 438 328 438 c 0
 428 438 500 358 500 244 c 0
 500 157 520 106 553 106 c 0
 567 106 581 120 600 135 c 0
 616 148 626 155 632 155 c 0
 636 155 637 151 637 143 c 0
 637 136 635 124 633 108 c 0
 623 36 587 0 545 0 c 0
 475 0 389 93 389 221 c 0
 389 310 381 327 331 327 c 0
 291 327 278 321 278 260 c 0
 278 236 281 198 281 154 c 2
 284 -6 l 1
 203 -6 l 2
 143 -6 113 4 113 24 c 0
 113 37 126 55 153 77 c 0
 178 99 194 160 194 235 c 0
 194 312 192 341 177 341 c 0
 172 341 164 336 153 327 c 0
 140 316 129 311 122 311 c 0
 114 311 110 318 110 329 c 0
 110 351 127 392 161 433 c 0
EndSplineSet
Validated: 1
EndChar

StartChar: o
Encoding: 111 111 111
Width: 667
VWidth: 0
Flags: HW
LayerCount: 2
Back
Fore
SplineSet
207 371 m 0
 252 416 305 436 356 436 c 0
 460 436 555 353 555 221 c 0
 555 86 460 -2 356 -2 c 0
 305 -2 252 19 207 65 c 0
 161 109 139 164 139 218 c 0
 139 272 161 327 207 371 c 0
449 310 m 0
 417 339 387 354 357 354 c 0
 326 354 296 337 266 304 c 0
 240 275 227 246 227 218 c 0
 227 177 255 140 310 110 c 0
 342 91 361 82 378 82 c 0
 397 82 413 93 441 118 c 0
 478 153 497 187 497 221 c 0
 497 252 481 282 449 310 c 0
390 198 m 0
 390 203 390 221 390 225 c 0
 390 241 393 245 398 245 c 0
 400 245 402 244 404 242 c 0
 409 237 416 223 416 212 c 0
 416 209 416 205 416 200 c 0
 416 190 415 177 406 169 c 0
 401 165 397 162 395 162 c 0
 391 162 390 169 390 179 c 0
 390 184 390 191 390 198 c 0
EndSplineSet
Validated: 1
EndChar

StartChar: p
Encoding: 112 112 112
Width: 667
VWidth: 0
Flags: HW
LayerCount: 2
Back
Fore
SplineSet
193 162 m 2
 194 440 l 1
 336 440 l 2
 497 440 550 396 553 257 c 0
 553 146 508 107 380 107 c 0
 278 107 275 104 275 12 c 0
 275 -65 236 -116 180 -116 c 0
 172 -116 170 -115 170 -112 c 0
 170 -105 194 -87 194 -60 c 0
 194 -9 193 73 193 162 c 2
466 304 m 0
 444 318 394 329 353 329 c 0
 289 329 275 318 275 260 c 0
 275 201 289 190 355 190 c 0
 428 190 489 232 489 269 c 0
 489 282 482 294 466 304 c 0
EndSplineSet
Validated: 1
EndChar

StartChar: q
Encoding: 113 113 113
Width: 667
VWidth: 0
Flags: HW
LayerCount: 2
Back
Fore
SplineSet
466 431 m 0
 477 442 491 459 498 459 c 0
 517 459 516 390 521 192 c 0
 526 -9 522 -81 542 -81 c 0
 547 -81 562 -66 568 -61 c 0
 584 -47 596 -41 602 -41 c 0
 607 -41 609 -44 609 -50 c 0
 609 -61 600 -85 582 -119 c 0
 566 -147 527 -172 499 -172 c 0
 452 -172 443 -153 443 -28 c 0
 443 58 438 93 425 93 c 0
 421 93 416 90 410 84 c 0
 391 64 346 50 307 50 c 0
 201 50 136 137 136 229 c 0
 136 284 159 340 210 381 c 0
 258 419 307 438 344 438 c 0
 370 438 387 423 404 405 c 0
 409 400 414 396 421 396 c 0
 434 396 447 412 466 431 c 0
418 284 m 0
 394 313 363 325 333 325 c 0
 278 325 225 283 225 220 c 0
 225 213 225 205 227 197 c 0
 232 164 260 147 316 147 c 0
 389 147 439 186 439 233 c 0
 439 249 432 267 418 284 c 0
EndSplineSet
Validated: 1
EndChar

StartChar: r
Encoding: 114 114 114
Width: 667
VWidth: 0
Flags: HW
LayerCount: 2
Back
Fore
SplineSet
263 390 m 0
 273 438 293 464 312 464 c 0
 326 464 339 452 349 426 c 0
 357 404 418 373 485 354 c 0
 556 334 608 311 608 296 c 0
 608 285 569 271 525 271 c 0
 514 271 503 272 492 274 c 0
 448 282 455 297 418 298 c 2
 354 300 l 1
 321 132 l 2
 300 23 277 -24 243 -30 c 0
 239 -31 234 -31 231 -31 c 0
 206 -31 194 -13 194 31 c 0
 194 67 202 120 218 195 c 0
 235 259 252 345 263 390 c 0
EndSplineSet
Validated: 1
EndChar

StartChar: s
Encoding: 115 115 115
Width: 667
VWidth: 0
Flags: HW
LayerCount: 2
Back
Fore
SplineSet
239 424 m 0
 266 453 307 465 349 465 c 0
 435 465 528 413 528 338 c 0
 528 324 524 317 514 317 c 0
 502 317 480 327 444 349 c 0
 408 370 384 381 365 381 c 0
 351 381 340 375 328 363 c 0
 320 355 315 347 315 339 c 0
 315 318 341 291 397 244 c 0
 453 197 500 138 500 116 c 0
 500 29 394 -33 305 -33 c 0
 258 -33 215 -16 194 22 c 0
 176 56 167 82 167 94 c 0
 167 101 169 104 173 104 c 0
 179 104 187 98 200 86 c 0
 222 64 270 53 314 53 c 0
 355 53 394 63 406 83 c 0
 407 85 408 88 408 91 c 0
 408 114 370 161 308 211 c 0
 233 275 198 316 198 353 c 0
 198 377 212 398 239 424 c 0
EndSplineSet
Validated: 1
EndChar

StartChar: t
Encoding: 116 116 116
Width: 667
VWidth: 0
Flags: HW
LayerCount: 2
Back
Fore
SplineSet
279 550 m 0
 279 606 293 634 320 634 c 0
 348 634 362 603 362 536 c 0
 362 450 370 439 432 439 c 0
 470 439 501 434 501 428 c 0
 501 422 509 397 518 372 c 0
 521 364 523 358 523 353 c 0
 523 333 501 328 448 328 c 0
 365 328 362 322 362 214 c 0
 362 128 363 101 401 101 c 0
 412 101 426 102 444 105 c 0
 488 113 495 128 507 128 c 0
 524 128 526 118 526 106 c 0
 526 102 526 97 526 93 c 0
 526 81 521 63 512 39 c 0
 501 9 459 -5 387 -5 c 2
 279 -5 l 1
 279 189 l 2
 279 375 276 384 212 384 c 0
 176 384 131 405 120 427 c 0
 118 433 117 438 117 443 c 0
 117 462 146 467 195 467 c 0
 270 467 279 475 279 550 c 0
EndSplineSet
Validated: 1
EndChar

StartChar: u
Encoding: 117 117 117
Width: 667
VWidth: 0
Flags: HW
LayerCount: 2
Back
Fore
SplineSet
167 287 m 0
 167 421 175 440 222 440 c 0
 267 440 275 418 283 282 c 0
 292 137 297 121 356 112 c 0
 366 111 375 110 384 110 c 0
 466 110 500 169 500 304 c 0
 500 407 511 440 542 440 c 0
 572 440 583 404 583 290 c 0
 583 106 500 -5 392 -5 c 0
 344 -5 291 17 239 65 c 0
 178 121 167 154 167 287 c 0
EndSplineSet
Validated: 1
EndChar

StartChar: v
Encoding: 118 118 118
Width: 667
VWidth: 0
Flags: HW
LayerCount: 2
Back
Fore
SplineSet
158 337 m 2
 85 468 l 1
 185 468 l 2
 240 468 273 468 273 457 c 0
 273 450 247 449 231 433 c 0
 213 414 211 392 211 375 c 0
 211 355 224 329 255 279 c 0
 316 177 347 129 375 129 c 0
 400 129 422 169 460 246 c 0
 494 314 520 388 520 419 c 0
 520 423 517 435 516 438 c 0
 514 444 502 451 502 455 c 0
 502 467 516 468 537 468 c 0
 547 468 559 468 571 468 c 2
 638 468 l 1
 566 310 l 2
 527 221 477 129 458 104 c 0
 435 82 419 46 419 29 c 0
 419 10 402 -4 385 -4 c 0
 349 -4 302 68 158 337 c 2
EndSplineSet
Validated: 1
EndChar

StartChar: w
Encoding: 119 119 119
Width: 667
VWidth: 0
Flags: HW
LayerCount: 2
Back
Fore
SplineSet
32 421 m 0
 31 422 31 423 31 424 c 0
 31 434 49 440 77 440 c 0
 118 440 138 407 166 287 c 0
 185 204 210 135 221 135 c 0
 232 135 255 165 271 204 c 0
 288 243 316 273 332 273 c 0
 349 273 377 243 393 204 c 0
 410 165 435 135 446 135 c 0
 457 135 488 204 513 287 c 0
 541 385 571 440 596 440 c 0
 621 440 634 439 634 424 c 0
 634 408 622 379 599 323 c 0
 577 273 538 179 510 115 c 0
 485 48 455 -4 443 -4 c 0
 432 -4 407 35 388 79 c 0
 365 132 350 159 335 159 c 0
 320 159 305 132 282 79 c 0
 260 35 235 -4 221 -4 c 0
 207 -4 177 54 152 129 c 0
 110 240 71 340 32 421 c 0
EndSplineSet
Validated: 1
EndChar

StartChar: x
Encoding: 120 120 120
Width: 667
VWidth: 0
Flags: HW
LayerCount: 2
Back
Fore
SplineSet
111 419 m 0
 111 432 118 439 131 439 c 0
 157 439 205 412 256 363 c 2
 333 288 l 1
 411 363 l 2
 461 411 508 438 535 438 c 0
 548 438 556 431 556 416 c 0
 556 405 511 352 458 299 c 2
 361 205 l 1
 464 99 l 2
 517 45 540 18 540 5 c 0
 540 -4 530 -6 511 -6 c 0
 478 -6 431 19 403 49 c 0
 371 84 345 101 320 101 c 0
 294 101 268 84 236 49 c 0
 208 19 161 -6 128 -6 c 0
 110 -6 100 -4 100 5 c 0
 100 18 125 47 181 105 c 2
 289 216 l 1
 200 308 l 2
 150 358 111 408 111 419 c 0
EndSplineSet
Validated: 1
EndChar

StartChar: y
Encoding: 121 121 121
Width: 667
VWidth: 0
Flags: HW
LayerCount: 2
Back
Fore
SplineSet
109 415 m 0
 109 434 115 442 126 442 c 0
 152 442 206 386 256 298 c 0
 298 223 345 154 356 145 c 0
 357 145 358 144 359 144 c 0
 374 144 406 200 431 273 c 0
 471 381 513 439 549 439 c 0
 557 439 565 436 573 429 c 0
 574 428 575 425 575 422 c 0
 575 362 391 -11 326 -82 c 0
 287 -124 233 -146 193 -146 c 0
 161 -146 137 -131 137 -102 c 0
 137 -85 138 -67 147 -64 c 0
 158 -60 162 -77 165 -80 c 0
 171 -87 178 -85 186 -85 c 0
 228 -85 293 -37 315 7 c 0
 316 9 316 12 316 15 c 0
 316 47 278 129 220 220 c 0
 159 312 109 401 109 415 c 0
EndSplineSet
Validated: 1
EndChar

StartChar: z
Encoding: 122 122 122
Width: 667
VWidth: 0
Flags: HW
LayerCount: 2
Back
Fore
SplineSet
139 426 m 0
 139 463 161 469 229 469 c 0
 262 469 305 468 361 468 c 0
 513 468 584 458 584 416 c 0
 584 383 538 331 453 246 c 2
 322 115 l 1
 453 112 l 2
 561 110 583 96 583 48 c 0
 583 1 564 -4 361 -4 c 0
 214 -4 139 7 139 26 c 0
 139 46 208 129 294 215 c 2
 450 371 l 1
 294 379 l 2
 181 385 139 370 139 426 c 0
EndSplineSet
Validated: 1
EndChar

StartChar: braceleft
Encoding: 123 123 123
Width: 667
VWidth: 0
Flags: HW
LayerCount: 2
Back
Fore
SplineSet
328 519 m 0
 336 688 336 691 417 691 c 0
 464 691 500 680 500 663 c 0
 500 649 474 647 443 647 c 0
 393 647 389 616 389 486 c 0
 389 402 378 327 361 316 c 0
 352 310 348 300 348 285 c 0
 348 271 352 252 361 230 c 0
 378 191 389 105 389 38 c 0
 389 -64 393 -87 455 -87 c 0
 490 -87 505 -96 505 -104 c 0
 505 -114 471 -121 432 -121 c 0
 429 -121 425 -121 421 -121 c 0
 343 -117 345 -92 339 11 c 0
 328 194 308 238 244 258 c 2
 181 274 l 1
 250 311 l 2
 311 341 319 366 328 519 c 0
EndSplineSet
Validated: 1
EndChar

StartChar: bar
Encoding: 124 124 124
Width: 667
VWidth: 0
Flags: HW
LayerCount: 2
Back
Fore
SplineSet
332 287 m 0
 332 358 331 422 331 476 c 0
 331 612 335 690 360 690 c 0
 385 690 389 612 389 476 c 0
 389 422 388 358 388 287 c 0
 388 229 389 153 389 106 c 0
 389 -25 389 -78 378 -94 c 0
 363 -112 l 0
 360 -115 356 -116 354 -116 c 0
 331 -116 332 -21 331 98 c 0
 331 152 332 216 332 287 c 0
EndSplineSet
Validated: 1
EndChar

StartChar: braceright
Encoding: 125 125 125
Width: 667
VWidth: 0
Flags: HW
LayerCount: 2
Back
Fore
SplineSet
138 661 m 0
 138 678 180 689 232 689 c 0
 313 689 332 678 357 603 c 0
 374 553 388 472 388 422 c 0
 388 350 402 328 466 306 c 0
 494 295 508 286 508 280 c 0
 508 277 503 275 493 275 c 0
 432 272 388 189 388 81 c 0
 388 36 377 -33 360 -72 c 0
 340 -127 320 -141 253 -141 c 0
 246 -141 238 -141 230 -141 c 0
 173 -141 147 -140 147 -135 c 0
 147 -130 164 -122 193 -108 c 0
 288 -64 330 -5 332 84 c 0
 332 125 343 189 360 228 c 0
 369 250 373 269 373 283 c 0
 373 298 369 308 360 314 c 0
 343 325 332 367 332 411 c 0
 332 492 230 634 168 634 c 0
 152 634 138 647 138 661 c 0
EndSplineSet
Validated: 1
EndChar

StartChar: asciitilde
Encoding: 126 126 126
Width: 667
VWidth: 0
Flags: HW
LayerCount: 2
Back
Fore
SplineSet
166 372 m 0
 207 416 233 437 262 437 c 0
 288 437 317 420 360 386 c 0
 405 351 437 334 462 334 c 0
 486 334 502 351 513 386 c 0
 524 422 548 440 570 440 c 0
 591 440 610 422 610 386 c 0
 610 321 547 281 465 281 c 0
 435 281 402 287 368 299 c 0
 328 314 300 322 276 322 c 0
 252 322 231 314 205 299 c 0
 177 284 155 277 140 277 c 0
 126 277 119 284 119 295 c 0
 119 312 134 339 166 372 c 0
160 161 m 0
 191 179 222 188 255 188 c 0
 291 188 330 178 374 158 c 0
 400 146 420 141 440 141 c 0
 463 141 484 148 513 163 c 0
 542 179 565 186 581 186 c 0
 595 186 602 180 602 169 c 0
 602 155 591 134 568 108 c 0
 537 72 493 54 451 54 c 0
 415 54 382 67 360 94 c 0
 338 120 304 134 273 134 c 0
 242 134 215 120 205 94 c 0
 193 67 169 53 148 53 c 0
 128 53 110 66 110 94 c 0
 110 113 132 147 160 161 c 0
EndSplineSet
Validated: 1
EndChar

StartChar: uni007F
Encoding: 127 127 127
Width: 667
VWidth: 0
Flags: HW
LayerCount: 2
Back
Fore
SplineSet
-0 594 m 2
 -0 747 l 1
 333 747 l 1
 667 747 l 1
 661 283 l 1
 655 -184 l 1
 642 150 l 2
 619 616 572 691 300 691 c 0
 183 691 94 625 67 511 c 0
 55 465 42 443 31 443 c 0
 14 443 0 497 -0 594 c 2
272 561 m 0
 257 562 250 564 250 565 c 0
 250 569 290 572 361 572 c 0
 432 572 473 569 473 565 c 0
 473 564 466 562 453 561 c 0
 428 558 394 556 361 556 c 0
 328 556 296 558 272 561 c 0
314 505 m 0
 305 508 300 511 300 513 c 0
 300 517 318 519 347 519 c 0
 383 519 403 516 403 511 c 0
 403 509 401 507 397 505 c 0
 388 502 373 501 358 501 c 0
 342 501 326 502 314 505 c 0
178 164 m 0
 178 299 179 378 182 378 c 0
 183 378 184 364 186 336 c 0
 189 288 190 226 190 163 c 0
 190 100 189 38 186 -11 c 0
 184 -38 183 -51 182 -51 c 0
 179 -51 178 27 178 164 c 0
314 450 m 0
 305 453 300 455 300 457 c 0
 300 461 318 464 347 464 c 0
 383 464 403 461 403 455 c 0
 403 454 401 452 397 450 c 0
 388 447 373 446 358 446 c 0
 342 446 326 447 314 450 c 0
444 150 m 0
 444 344 455 469 472 469 c 0
 489 469 500 344 500 150 c 0
 500 -45 489 -170 472 -170 c 0
 455 -170 444 -45 444 150 c 0
94 136 m 0
 94 261 96 333 99 333 c 0
 100 333 101 322 103 297 c 0
 106 252 107 194 107 136 c 0
 107 78 106 21 103 -22 c 0
 101 -48 100 -60 99 -60 c 0
 96 -60 94 12 94 136 c 0
561 358 m 0
 561 396 564 418 569 418 c 0
 571 418 573 415 575 408 c 0
 578 394 579 376 579 358 c 0
 579 341 578 324 575 311 c 0
 573 303 570 299 569 299 c 0
 564 299 561 321 561 358 c 0
314 366 m 0
 305 369 300 372 300 374 c 0
 300 378 318 380 347 380 c 0
 383 380 403 377 403 372 c 0
 403 370 401 368 397 366 c 0
 388 364 373 362 358 362 c 0
 342 362 326 364 314 366 c 0
-0 303 m 0
 -0 319 14 330 28 330 c 0
 44 330 55 319 55 303 c 0
 55 289 44 275 28 275 c 0
 14 275 -0 289 -0 303 c 0
289 80 m 0
 289 184 291 244 293 244 c 0
 294 244 296 235 297 214 c 0
 300 176 302 128 302 81 c 0
 302 33 300 -14 297 -50 c 0
 296 -72 294 -82 293 -82 c 0
 291 -82 289 -22 289 80 c 0
372 80 m 0
 372 184 374 244 376 244 c 0
 377 244 379 235 380 214 c 0
 383 176 384 128 384 81 c 0
 384 33 383 -14 380 -50 c 0
 379 -72 377 -82 376 -82 c 0
 374 -82 372 -22 372 80 c 0
528 164 m 0
 528 180 542 191 555 191 c 0
 572 191 583 180 583 164 c 0
 583 150 572 136 555 136 c 0
 542 136 528 150 528 164 c 0
564 -45 m 0
 564 13 567 46 571 46 c 0
 572 46 573 42 575 33 c 0
 578 15 579 -9 579 -34 c 0
 579 -59 578 -85 575 -106 c 0
 573 -120 571 -126 570 -126 c 0
 566 -126 564 -96 564 -45 c 0
-0 -59 m 0
 -0 -42 14 -31 28 -31 c 0
 44 -31 55 -42 55 -59 c 0
 55 -72 44 -86 28 -86 c 0
 14 -86 -0 -72 -0 -59 c 0
EndSplineSet
Validated: 1
EndChar

StartChar: Euro
Encoding: 128 8364 128
Width: 667
VWidth: 0
Flags: HW
LayerCount: 2
Back
Fore
SplineSet
103 -86 m 0
 106 -78 108 -69 108 -60 c 0
 108 -49 105 -38 100 -33 c 0
 98 -31 97 -30 95 -30 c 0
 90 -30 86 -41 86 -60 c 0
 86 -63 86 -66 86 -69 c 0
 86 -100 95 -108 103 -86 c 0
50 280 m 0
 50 719 53 738 106 738 c 0
 156 738 161 719 161 516 c 0
 161 313 167 294 217 294 c 0
 248 294 273 275 273 252 c 0
 273 230 248 211 217 211 c 0
 167 211 161 191 161 16 c 0
 161 -159 156 -178 106 -178 c 0
 53 -178 50 -159 50 280 c 0
103 572 m 0
 106 580 108 589 108 598 c 0
 108 609 105 620 100 625 c 0
 98 627 97 628 95 628 c 0
 90 628 86 617 86 598 c 0
 86 595 86 592 86 589 c 0
 86 558 95 550 103 572 c 0
EndSplineSet
Validated: 1
EndChar

StartChar: NameMe.129
Encoding: 129 -1 129
Width: 667
VWidth: 0
Flags: HW
LayerCount: 2
Back
Fore
SplineSet
-2 800 m 0
 -2 819 2 828 10 828 c 0
 30 828 72 771 132 661 c 0
 184 569 234 494 246 494 c 0
 259 494 284 455 304 408 c 2
 340 322 l 1
 393 422 l 2
 421 478 454 522 465 522 c 0
 476 522 521 591 565 675 c 0
 610 754 650 816 658 816 c 0
 658 816 659 816 659 816 c 0
 660 815 660 814 660 813 c 0
 660 777 495 494 473 494 c 0
 462 494 434 453 409 403 c 0
 390 361 380 336 380 312 c 0
 380 289 390 266 409 230 c 0
 432 183 468 136 484 119 c 0
 521 88 656 -142 656 -169 c 0
 656 -171 655 -172 654 -172 c 0
 646 -172 604 -114 562 -42 c 0
 521 30 468 111 443 136 c 0
 421 161 387 203 371 233 c 0
 357 255 348 267 340 267 c 0
 330 267 322 249 307 211 c 0
 290 166 268 133 254 133 c 0
 240 133 212 100 193 55 c 0
 132 -64 51 -172 26 -172 c 0
 23 -172 22 -170 22 -168 c 0
 22 -157 40 -130 68 -100 c 0
 107 -59 137 -11 137 8 c 0
 137 28 165 72 201 111 c 0
 281 201 314 254 314 304 c 0
 314 325 309 346 298 369 c 0
 282 408 259 439 248 439 c 0
 240 439 190 514 137 605 c 0
 84 697 34 772 21 772 c 0
 9 772 -2 786 -2 800 c 0
EndSplineSet
Validated: 1
EndChar

StartChar: quotesinglbase
Encoding: 130 8218 130
Width: 667
VWidth: 0
Flags: HW
LayerCount: 2
Back
Fore
SplineSet
86 414 m 2
 86 686 l 1
 203 686 l 1
 319 686 l 1
 256 627 l 2
 214 588 200 561 200 460 c 0
 200 432 201 399 203 358 c 0
 211 155 214 144 289 119 c 0
 312 110 338 106 364 106 c 0
 390 106 417 110 442 119 c 0
 514 144 517 155 525 358 c 0
 527 398 528 430 528 458 c 0
 528 560 514 588 472 627 c 2
 408 686 l 1
 525 686 l 1
 642 686 l 1
 642 414 l 2
 642 147 614 52 519 -14 c 0
 500 -28 432 -35 364 -35 c 0
 296 -35 228 -28 208 -14 c 0
 114 52 86 147 86 414 c 2
EndSplineSet
Validated: 1
EndChar

StartChar: florin
Encoding: 131 402 131
Width: 667
VWidth: 0
Flags: HW
LayerCount: 2
Back
Fore
SplineSet
375 674 m 0
 375 664 383 655 393 655 c 0
 403 655 411 664 411 674 c 0
 411 684 403 693 393 693 c 0
 383 693 375 684 375 674 c 0
310 674 m 0
 310 664 318 655 328 655 c 0
 338 655 346 664 346 674 c 0
 346 684 338 693 328 693 c 0
 318 693 310 684 310 674 c 0
297 731 m 0
 305 739 325 744 348 744 c 0
 357 744 366 744 375 742 c 0
 416 737 443 680 443 623 c 0
 443 592 435 562 417 540 c 0
 408 529 403 519 403 512 c 0
 403 501 413 493 436 487 c 0
 490 468 631 305 631 263 c 0
 631 260 630 258 628 256 c 0
 626 254 623 254 620 254 c 0
 604 254 573 267 544 287 c 0
 502 313 480 326 466 326 c 0
 450 326 445 308 436 270 c 0
 433 260 432 250 432 240 c 0
 432 211 443 182 464 159 c 0
 483 137 493 125 493 118 c 0
 493 110 480 109 450 109 c 0
 397 109 389 92 389 -2 c 0
 389 -63 378 -113 361 -113 c 0
 347 -113 333 -63 333 -2 c 0
 333 92 325 109 272 109 c 0
 242 109 229 110 229 118 c 0
 229 125 239 137 258 159 c 0
 279 182 290 211 290 240 c 0
 290 250 289 260 286 270 c 0
 277 308 272 326 256 326 c 0
 242 326 220 313 178 287 c 0
 149 267 118 254 101 254 c 0
 97 254 94 254 92 256 c 0
 91 258 90 260 90 262 c 0
 90 301 216 451 286 487 c 0
 309 499 320 511 320 522 c 0
 320 528 316 533 308 537 c 0
 289 550 278 601 278 648 c 0
 278 684 284 717 297 731 c 0
389 570 m 0
 394 576 397 580 397 584 c 0
 397 593 385 598 361 598 c 0
 337 598 325 593 325 584 c 0
 325 580 328 576 333 570 c 0
 343 560 352 556 361 556 c 0
 370 556 379 560 389 570 c 0
EndSplineSet
Validated: 1
EndChar

StartChar: quotedblbase
Encoding: 132 8222 132
Width: 667
VWidth: 0
Flags: HW
LayerCount: 2
Back
Fore
SplineSet
333 330 m 0
 333 477 345 580 361 580 c 0
 378 580 389 477 389 330 c 0
 389 183 378 80 361 80 c 0
 345 80 333 183 333 330 c 0
206 458 m 0
 217 488 229 501 239 501 c 0
 261 501 278 436 278 327 c 0
 278 214 271 168 250 168 c 0
 249 168 247 168 245 169 c 0
 218 179 196 293 196 380 c 0
 196 412 199 440 206 458 c 0
445 330 m 0
 445 446 452 492 475 492 c 0
 477 492 479 492 481 491 c 0
 500 483 514 424 514 330 c 0
 514 236 500 177 481 172 c 0
 478 171 476 170 473 170 c 0
 452 170 445 217 445 330 c 0
111 330 m 0
 111 347 125 358 139 358 c 0
 156 358 167 347 167 330 c 0
 167 316 156 302 139 302 c 0
 125 302 111 316 111 330 c 0
556 330 m 0
 556 347 570 358 583 358 c 0
 600 358 611 347 611 330 c 0
 611 316 600 302 583 302 c 0
 570 302 556 316 556 330 c 0
EndSplineSet
Validated: 1
EndChar

StartChar: ellipsis
Encoding: 133 8230 133
Width: 667
VWidth: 0
Flags: HW
LayerCount: 2
Back
Fore
SplineSet
288 653 m 0
 297 668 322 675 352 675 c 0
 412 675 493 649 518 614 c 0
 538 584 568 545 588 523 c 0
 600 508 607 496 607 488 c 0
 607 480 600 474 588 470 c 0
 568 464 555 442 555 423 c 0
 555 403 538 378 521 370 c 0
 502 362 513 362 549 370 c 0
 560 373 570 374 579 374 c 0
 597 374 610 368 610 359 c 0
 610 345 582 320 549 301 c 2
 485 270 l 1
 549 287 l 2
 565 291 578 293 588 293 c 0
 600 293 607 289 607 282 c 0
 607 267 581 236 527 187 c 0
 471 135 447 110 447 93 c 0
 447 82 459 75 482 67 c 0
 490 64 496 62 501 62 c 0
 509 62 513 66 513 73 c 0
 513 76 512 80 510 84 c 0
 509 86 509 88 509 90 c 0
 509 109 527 136 555 153 c 0
 579 167 594 176 602 176 c 0
 605 176 607 174 607 170 c 0
 607 159 590 128 557 73 c 0
 534 34 515 15 503 15 c 0
 497 15 493 18 491 26 c 0
 484 41 479 48 473 48 c 0
 467 48 460 40 449 23 c 0
 438 8 431 -0 425 -0 c 0
 419 -0 414 8 407 23 c 0
 405 27 404 29 402 29 c 0
 396 29 391 -4 391 -55 c 0
 388 -141 377 -174 346 -174 c 0
 316 -174 305 -144 305 -55 c 0
 305 6 300 34 291 34 c 0
 287 34 283 29 277 20 c 0
 264 2 256 -7 249 -7 c 0
 242 -7 235 1 224 17 c 0
 215 32 209 52 209 71 c 0
 209 79 210 88 213 95 c 0
 215 100 216 105 216 110 c 0
 216 122 209 131 199 131 c 0
 187 131 179 113 179 86 c 0
 179 76 180 65 182 53 c 0
 186 30 189 14 189 5 c 0
 189 1 188 -1 187 -1 c 0
 181 -1 167 22 138 70 c 0
 102 128 85 158 85 170 c 0
 85 175 88 178 93 178 c 0
 100 178 110 175 124 170 c 0
 130 167 136 166 142 166 c 0
 157 166 166 177 166 198 c 0
 166 223 146 242 118 242 c 0
 102 242 94 244 94 250 c 0
 94 257 106 269 132 292 c 0
 163 318 178 332 178 347 c 0
 178 360 166 373 143 395 c 0
 121 418 110 432 110 445 c 0
 110 461 126 478 157 509 c 0
 191 543 218 585 218 606 c 0
 218 607 218 608 218 609 c 0
 218 615 217 618 214 618 c 0
 209 618 199 606 188 584 c 0
 168 545 138 517 122 517 c 0
 115 517 110 522 110 534 c 0
 110 567 193 641 227 641 c 0
 230 641 233 640 235 639 c 0
 240 638 245 637 251 637 c 0
 267 637 282 643 288 653 c 0
313 617 m 0
 332 664 316 673 291 628 c 0
 284 618 280 608 280 600 c 0
 280 594 282 590 285 587 c 0
 286 585 288 584 290 584 c 0
 297 584 307 597 313 617 c 0
510 589 m 0
 502 609 477 634 457 642 c 0
 451 644 445 645 441 645 c 0
 433 645 429 641 429 633 c 0
 429 628 430 623 432 617 c 0
 441 598 466 573 485 564 c 0
 491 562 496 561 500 561 c 0
 509 561 513 565 513 574 c 0
 513 578 512 583 510 589 c 0
388 548 m 0
 388 564 377 576 360 576 c 0
 346 576 332 564 332 548 c 0
 332 534 346 520 360 520 c 0
 377 520 388 534 388 548 c 0
555 492 m 0
 555 509 543 520 527 520 c 0
 513 520 499 509 499 492 c 0
 499 478 513 464 527 464 c 0
 543 464 555 478 555 492 c 0
305 464 m 0
 305 481 285 492 263 492 c 0
 241 492 221 481 221 464 c 0
 221 451 241 437 263 437 c 0
 285 437 305 451 305 464 c 0
443 326 m 0
 443 342 432 353 416 353 c 0
 402 353 388 342 388 326 c 0
 388 312 402 298 416 298 c 0
 432 298 443 312 443 326 c 0
305 270 m 0
 305 287 285 298 263 298 c 0
 241 298 221 287 221 270 c 0
 221 256 241 242 263 242 c 0
 285 242 305 256 305 270 c 0
388 131 m 0
 388 148 377 159 360 159 c 0
 346 159 332 148 332 131 c 0
 332 117 346 103 360 103 c 0
 377 103 388 117 388 131 c 0
82 353 m 0
 82 370 96 381 110 381 c 0
 127 381 138 370 138 353 c 0
 138 339 127 326 110 326 c 0
 96 326 82 339 82 353 c 0
EndSplineSet
Validated: 1
EndChar

StartChar: dagger
Encoding: 134 8224 134
Width: 667
VWidth: 0
Flags: HW
LayerCount: 2
Back
Fore
SplineSet
322 473 m 0
 337 487 346 493 350 493 c 0
 351 493 352 492 352 490 c 0
 352 483 341 462 319 429 c 0
 303 403 293 375 293 358 c 0
 293 353 294 348 297 346 c 0
 299 344 300 341 300 339 c 0
 300 332 289 326 269 326 c 0
 241 326 222 315 222 298 c 0
 222 277 232 268 246 268 c 0
 281 268 344 322 355 382 c 0
 370 439 405 479 442 479 c 0
 447 479 453 478 458 476 c 0
 475 469 483 462 483 453 c 0
 483 445 477 436 464 423 c 0
 451 410 441 403 432 403 c 0
 424 403 418 409 411 421 c 0
 394 443 389 443 389 418 c 0
 389 354 402 340 472 340 c 0
 539 340 541 332 541 187 c 0
 541 104 552 21 564 1 c 0
 568 -4 569 -11 569 -17 c 0
 569 -30 563 -44 550 -52 c 0
 523 -68 487 -76 461 -76 c 0
 443 -76 431 -72 431 -64 c 0
 431 -62 431 -60 433 -57 c 0
 440 -48 453 -42 467 -42 c 0
 474 -42 482 -43 489 -46 c 0
 495 -49 502 -50 509 -50 c 0
 522 -50 536 -44 541 -35 c 0
 544 -31 545 -27 545 -24 c 0
 545 -14 531 -8 511 -8 c 0
 483 -8 443 -20 422 -40 c 0
 402 -60 389 -96 389 -124 c 0
 389 -152 369 -174 347 -174 c 0
 325 -174 305 -149 305 -121 c 0
 305 -74 280 -42 254 -42 c 0
 241 -42 229 -49 219 -65 c 0
 202 -93 194 -96 194 -68 c 0
 194 -52 186 -38 175 -38 c 0
 168 -39 161 -40 155 -40 c 0
 110 -40 80 -14 80 13 c 0
 80 29 91 46 119 57 c 0
 130 62 136 67 136 73 c 0
 136 80 127 89 111 101 c 0
 95 111 86 125 86 137 c 0
 86 142 88 147 91 151 c 0
 95 154 100 156 105 156 c 0
 117 156 130 147 141 132 c 0
 152 114 160 105 167 105 c 0
 174 105 182 114 194 132 c 0
 211 160 222 162 222 140 c 0
 222 121 241 104 264 104 c 0
 292 104 305 112 305 122 c 0
 305 139 275 162 225 173 c 0
 180 182 136 210 127 235 c 0
 121 249 118 261 118 271 c 0
 118 287 125 297 135 297 c 0
 144 297 155 289 166 271 c 0
 189 235 194 237 194 276 c 0
 194 301 186 326 175 335 c 0
 161 340 169 340 186 337 c 0
 188 337 190 336 192 336 c 0
 207 336 215 351 215 374 c 0
 215 379 215 384 214 390 c 0
 214 394 214 398 214 402 c 0
 214 436 225 451 255 451 c 0
 280 451 311 462 322 473 c 0
277 410 m 0
 277 426 266 437 250 437 c 0
 236 437 222 426 222 410 c 0
 222 396 236 382 250 382 c 0
 266 382 277 396 277 410 c 0
527 298 m 0
 527 315 508 326 486 326 c 0
 464 326 444 315 444 298 c 0
 444 285 464 271 486 271 c 0
 508 271 527 285 527 298 c 0
380 210 m 0
 384 218 385 227 385 235 c 0
 385 247 382 257 377 262 c 0
 375 264 374 265 372 265 c 0
 367 265 363 255 363 239 c 0
 363 235 364 231 364 226 c 0
 364 196 372 187 380 210 c 0
444 104 m 0
 444 121 433 132 416 132 c 0
 402 132 389 121 389 104 c 0
 389 90 402 76 416 76 c 0
 433 76 444 90 444 104 c 0
202 12 m 0
 194 32 177 48 164 48 c 0
 150 48 139 32 139 12 c 0
 139 -10 155 -27 177 -27 c 0
 195 -27 205 -17 205 -3 c 0
 205 2 204 7 202 12 c 0
361 7 m 0
 361 29 350 48 333 48 c 0
 319 48 305 29 305 7 c 0
 305 -15 319 -35 333 -35 c 0
 350 -35 361 -15 361 7 c 0
572 196 m 0
 578 218 591 231 600 231 c 0
 602 231 603 231 605 229 c 0
 607 227 609 224 609 220 c 0
 609 209 600 193 586 179 c 0
 558 154 555 157 572 196 c 0
555 76 m 0
 555 93 569 104 583 104 c 0
 600 104 611 93 611 76 c 0
 611 62 600 48 583 48 c 0
 569 48 555 62 555 76 c 0
EndSplineSet
Validated: 1
EndChar

StartChar: daggerdbl
Encoding: 135 8225 135
Width: 667
VWidth: 0
Flags: HW
LayerCount: 2
Back
Fore
SplineSet
337 638 m 0
 326 651 320 660 320 666 c 0
 320 674 329 677 345 677 c 0
 367 677 387 669 387 658 c 0
 387 650 405 645 431 645 c 0
 441 645 453 645 465 647 c 0
 506 652 517 649 492 641 c 0
 465 633 442 608 442 588 c 0
 442 569 426 547 409 538 c 0
 396 535 390 526 390 517 c 0
 390 512 391 507 395 502 c 0
 399 497 405 494 411 494 c 0
 420 494 430 500 437 510 c 0
 454 538 501 553 542 553 c 0
 578 553 609 541 609 516 c 0
 609 502 598 497 581 505 c 0
 578 507 574 508 570 508 c 0
 536 508 457 466 387 413 c 0
 386 412 385 411 385 410 c 0
 385 396 448 352 476 352 c 0
 487 352 515 372 537 397 c 0
 556 415 568 424 574 424 c 0
 580 424 581 415 581 397 c 0
 581 359 527 330 468 330 c 0
 451 330 432 332 415 338 c 0
 403 341 392 343 383 343 c 0
 369 343 359 339 359 330 c 0
 359 301 426 280 487 280 c 0
 508 280 529 282 545 288 c 0
 561 294 572 298 577 298 c 0
 579 298 581 297 581 295 c 0
 581 290 573 279 559 260 c 0
 544 243 535 221 535 204 c 0
 535 197 536 190 540 185 c 0
 545 178 547 172 547 167 c 0
 547 161 542 158 535 158 c 0
 518 158 485 174 456 205 c 0
 436 225 423 235 413 235 c 0
 403 235 395 226 384 210 c 0
 371 188 363 173 363 160 c 0
 363 136 391 125 465 110 c 2
 567 91 l 1
 470 74 l 2
 395 63 378 59 378 0 c 0
 378 -15 379 -35 381 -59 c 0
 383 -81 384 -99 384 -114 c 0
 384 -162 373 -176 348 -176 c 0
 312 -176 303 -142 303 -23 c 0
 303 78 286 133 260 133 c 0
 242 133 221 107 198 52 c 0
 176 2 170 -3 181 41 c 0
 184 53 186 63 186 71 c 0
 186 93 174 102 145 102 c 0
 136 102 131 104 131 108 c 0
 131 115 152 131 192 149 c 0
 287 197 331 235 331 277 c 0
 331 290 324 296 312 296 c 0
 291 296 256 277 220 241 c 0
 185 206 141 186 113 186 c 0
 94 186 81 194 81 213 c 0
 81 230 101 241 123 241 c 0
 145 241 176 266 192 297 c 0
 209 327 240 352 265 352 c 0
 301 352 356 450 356 517 c 0
 356 521 356 524 356 527 c 0
 356 547 345 535 334 505 c 0
 323 479 318 466 313 466 c 0
 307 466 302 481 292 513 c 0
 281 547 256 574 234 574 c 0
 215 574 190 594 181 619 c 0
 177 628 175 634 175 639 c 0
 175 647 180 650 189 650 c 0
 197 650 210 647 228 641 c 0
 262 630 298 608 309 591 c 0
 315 581 324 576 332 576 c 0
 338 576 343 578 348 583 c 0
 352 586 354 591 354 597 c 0
 354 609 347 626 337 638 c 0
137 555 m 0
 137 559 140 561 144 561 c 0
 155 561 176 551 201 530 c 0
 268 471 304 426 304 401 c 0
 304 387 293 380 270 380 c 0
 251 380 198 360 151 335 c 0
 125 322 106 315 98 315 c 0
 95 315 94 316 94 317 c 0
 94 319 96 322 101 327 c 0
 113 339 119 353 119 369 c 0
 119 382 115 397 106 413 c 0
 98 429 94 441 94 450 c 0
 94 459 99 463 109 463 c 0
 123 463 137 444 137 422 c 0
 137 399 156 380 178 380 c 0
 201 380 220 397 220 419 c 0
 220 438 201 472 178 491 c 0
 156 510 137 538 137 555 c 0
EndSplineSet
Validated: 1
EndChar

StartChar: circumflex
Encoding: 136 710 136
Width: 667
VWidth: 0
Flags: HW
LayerCount: 2
Back
Fore
SplineSet
160 786 m 0
 160 808 174 827 188 827 c 0
 204 827 216 808 216 786 c 0
 216 763 204 744 188 744 c 0
 174 744 160 708 160 661 c 0
 160 616 149 577 132 577 c 0
 104 577 -7 677 -7 702 c 0
 -7 713 3 718 17 718 c 0
 42 718 78 702 85 683 c 0
 93 661 102 666 102 697 c 0
 104 722 118 744 132 744 c 0
 149 744 160 763 160 786 c 0
316 758 m 0
 324 797 343 827 357 827 c 0
 374 827 382 817 382 802 c 0
 382 781 368 753 341 727 c 0
 318 702 299 658 299 627 c 2
 299 569 l 1
 352 627 l 2
 379 661 424 688 449 688 c 0
 474 688 493 702 493 716 c 0
 493 733 513 744 535 744 c 0
 557 744 577 763 577 786 c 0
 577 808 591 827 604 827 c 0
 622 827 632 823 632 810 c 0
 632 798 622 776 604 741 c 0
 588 713 557 688 535 688 c 0
 511 688 497 685 497 674 c 0
 497 660 522 630 577 572 c 0
 624 525 660 472 660 458 c 0
 660 455 659 454 656 454 c 0
 645 454 609 485 566 530 c 0
 503 598 465 629 431 629 c 0
 409 629 390 616 366 594 c 0
 341 568 327 531 327 504 c 0
 327 482 336 466 354 466 c 0
 371 466 382 480 382 494 c 0
 382 511 402 522 427 522 c 0
 477 522 549 458 549 411 c 0
 549 391 577 355 613 325 c 0
 636 306 650 289 650 280 c 0
 650 276 647 273 641 272 c 0
 624 272 588 291 563 319 c 0
 542 338 529 348 519 348 c 0
 510 348 502 340 493 325 c 0
 484 312 471 304 461 304 c 0
 455 304 450 306 446 311 c 0
 442 316 441 321 441 325 c 0
 441 335 447 343 460 347 c 0
 484 356 495 378 495 401 c 0
 495 433 474 466 438 466 c 0
 402 466 382 447 382 413 c 0
 382 383 366 355 349 347 c 0
 340 344 335 339 335 332 c 0
 335 320 349 303 377 280 c 0
 410 250 438 202 438 177 c 0
 438 149 446 135 459 135 c 0
 474 135 496 153 521 188 c 0
 546 224 573 242 596 242 c 0
 616 242 633 228 643 200 c 0
 652 177 649 166 632 175 c 0
 626 179 619 180 611 180 c 0
 564 180 493 113 493 58 c 0
 493 22 482 -6 466 -6 c 0
 452 -6 438 -25 438 -48 c 0
 438 -70 452 -89 466 -89 c 0
 482 -89 493 -70 493 -48 c 0
 493 -20 503 -7 517 -7 c 0
 532 -7 552 -26 563 -59 c 0
 571 -89 584 -102 605 -102 c 0
 611 -102 619 -101 627 -98 c 0
 668 -81 668 -84 635 -125 c 0
 611 -156 588 -171 573 -171 c 0
 558 -171 549 -158 549 -131 c 0
 549 -104 536 -90 521 -90 c 0
 508 -90 494 -101 485 -123 c 0
 480 -136 475 -142 469 -142 c 0
 461 -142 453 -134 441 -117 c 0
 428 -100 419 -91 410 -91 c 0
 401 -91 392 -102 379 -125 c 0
 362 -156 339 -172 325 -172 c 0
 316 -172 310 -166 310 -155 c 0
 310 -149 312 -141 316 -131 c 0
 319 -124 321 -117 321 -112 c 0
 321 -98 314 -89 304 -89 c 0
 288 -89 257 -109 232 -131 c 0
 207 -157 189 -170 180 -170 c 0
 176 -170 174 -167 174 -160 c 0
 174 -150 179 -132 191 -106 c 0
 207 -70 246 -31 274 -25 c 0
 307 -15 324 9 324 57 c 0
 324 61 324 65 324 69 c 0
 324 101 319 119 313 119 c 0
 311 119 309 117 307 113 c 0
 302 94 277 77 254 77 c 0
 232 77 216 58 216 36 c 0
 216 13 204 -6 188 -6 c 0
 174 -6 160 -23 160 -45 c 0
 160 -99 85 -170 30 -170 c 0
 29 -170 28 -170 27 -170 c 0
 -12 -170 -12 -164 21 -153 c 0
 82 -128 121 -81 146 -6 c 0
 171 72 227 133 268 133 c 0
 285 133 299 150 302 169 c 0
 302 194 307 194 318 169 c 0
 324 150 343 133 357 133 c 0
 374 133 382 148 382 170 c 0
 382 197 368 235 341 261 c 0
 322 280 309 320 309 357 c 0
 309 364 309 371 310 377 c 0
 316 419 313 430 307 405 c 0
 299 372 278 356 258 356 c 0
 236 356 216 375 216 411 c 0
 216 441 204 466 188 466 c 0
 168 466 159 451 159 430 c 0
 159 398 180 352 216 327 c 0
 252 301 270 266 270 237 c 0
 270 209 253 188 218 188 c 0
 188 188 154 163 146 133 c 0
 138 102 116 77 102 77 c 0
 88 77 77 58 77 36 c 0
 77 13 57 -6 35 -6 c 0
 13 -6 -7 13 -7 36 c 0
 -7 58 7 77 24 77 c 0
 60 77 160 183 160 222 c 0
 160 233 141 244 118 244 c 0
 96 244 77 233 77 216 c 0
 77 202 57 188 35 188 c 0
 13 188 -7 202 -7 216 c 0
 -7 233 13 244 35 244 c 0
 57 244 77 258 77 272 c 0
 77 288 57 300 35 300 c 0
 13 300 -7 313 -7 327 c 0
 -7 344 13 355 35 355 c 0
 57 355 77 344 77 327 c 0
 77 313 96 300 121 300 c 0
 143 300 154 307 154 322 c 0
 154 328 152 335 149 344 c 0
 141 369 132 405 132 427 c 0
 132 450 104 466 63 466 c 0
 24 466 -7 480 -7 494 c 0
 -7 513 20 522 51 522 c 0
 88 522 132 509 141 488 c 0
 144 482 146 479 149 479 c 0
 153 479 157 492 157 516 c 0
 160 550 174 577 188 577 c 0
 204 577 216 602 216 633 c 0
 216 663 235 688 257 688 c 0
 279 688 304 719 316 758 c 0
299 522 m 0
 299 552 279 577 257 577 c 0
 235 577 216 552 216 522 c 0
 216 491 235 466 257 466 c 0
 279 466 299 491 299 522 c 0
216 272 m 0
 216 288 204 300 188 300 c 0
 174 300 160 288 160 272 c 0
 160 258 174 244 188 244 c 0
 204 244 216 258 216 272 c 0
438 63 m 0
 438 102 427 133 410 133 c 0
 396 133 382 102 382 63 c 0
 382 25 371 -6 354 -6 c 0
 341 -6 327 -25 327 -48 c 0
 327 -70 341 -89 354 -89 c 0
 371 -89 382 -70 382 -48 c 0
 382 -25 396 -6 410 -6 c 0
 427 -6 438 25 438 63 c 0
549 41 m 0
 549 63 564 73 583 73 c 0
 611 73 647 51 654 16 c 0
 655 11 656 6 656 2 c 0
 656 -12 650 -19 635 -19 c 0
 628 -19 619 -17 607 -14 c 0
 574 -6 549 19 549 41 c 0
EndSplineSet
Validated: 1
EndChar

StartChar: perthousand
Encoding: 137 8240 137
Width: 667
VWidth: 0
Flags: HW
LayerCount: 2
Back
Fore
SplineSet
504 -165 m 0
 499 -161 494 -150 520 -149 c 0
 525 -149 529 -148 533 -148 c 0
 550 -148 556 -152 556 -158 c 0
 556 -159 555 -161 553 -163 c 0
 548 -168 541 -171 530 -171 c 0
 521 -171 511 -171 504 -165 c 0
338 -53 m 0
 316 -45 324 -37 354 -37 c 0
 359 -37 363 -36 367 -36 c 0
 384 -36 394 -40 394 -46 c 0
 394 -47 393 -49 391 -51 c 0
 386 -56 375 -59 364 -59 c 0
 355 -59 346 -57 338 -53 c 0
544 764 m 0
 569 808 586 800 566 753 c 0
 560 733 549 720 542 720 c 0
 541 720 539 720 538 722 c 0
 535 725 533 729 533 735 c 0
 533 743 537 754 544 764 c 0
260 782 m 0
 285 826 302 818 282 771 c 0
 276 751 265 738 258 738 c 0
 257 738 255 738 254 740 c 0
 251 743 249 747 249 753 c 0
 249 761 253 772 260 782 c 0
474 628 m 0
 499 672 516 664 496 617 c 0
 490 597 479 584 472 584 c 0
 471 584 469 584 468 586 c 0
 465 589 463 593 463 599 c 0
 463 607 467 618 474 628 c 0
308 362 m 0
 333 406 356 403 330 351 c 0
 321 332 313 318 306 318 c 0
 305 318 303 318 302 320 c 0
 299 323 297 327 297 333 c 0
 297 341 301 352 308 362 c 0
143 447 m 0
 143 475 146 490 151 490 c 0
 153 490 155 488 157 483 c 0
 160 474 162 460 162 447 c 0
 162 434 160 422 157 414 c 0
 155 408 152 405 150 405 c 0
 146 405 143 420 143 447 c 0
310 -165 m 0
 305 -161 300 -150 326 -149 c 0
 331 -149 335 -148 339 -148 c 0
 356 -148 362 -152 362 -158 c 0
 362 -159 361 -161 359 -163 c 0
 354 -168 347 -171 336 -171 c 0
 327 -171 317 -171 310 -165 c 0
3 761 m 0
 2 771 2 780 2 788 c 0
 2 811 5 827 9 827 c 0
 22 827 36 772 36 735 c 0
 36 720 34 708 28 705 c 0
 27 704 25 704 24 704 c 0
 14 704 6 727 3 761 c 0
184 661 m 0
 208 684 232 698 243 698 c 0
 245 698 247 698 248 697 c 0
 249 696 250 694 250 692 c 0
 250 680 232 660 206 641 c 0
 183 623 172 610 172 600 c 0
 172 594 177 589 187 586 c 0
 208 578 220 559 220 544 c 0
 220 532 212 522 195 522 c 0
 166 522 152 549 152 580 c 0
 152 608 162 639 184 661 c 0
3 605 m 0
 3 633 6 648 11 648 c 0
 13 648 15 646 17 641 c 0
 20 632 22 618 22 605 c 0
 22 592 20 580 17 572 c 0
 15 566 12 563 10 563 c 0
 6 563 3 578 3 605 c 0
250 602 m 0
 250 638 253 641 267 605 c 0
 286 549 333 513 377 513 c 0
 390 513 402 516 414 522 c 0
 428 529 439 532 447 532 c 0
 457 532 462 526 462 511 c 0
 462 491 438 481 407 481 c 0
 369 481 320 496 289 522 c 0
 268 540 250 574 250 598 c 0
 250 600 250 601 250 602 c 0
6 430 m 0
 5 449 5 464 5 476 c 0
 5 497 6 508 9 508 c 0
 13 508 19 495 28 472 c 0
 35 453 39 430 39 410 c 0
 39 392 36 376 31 366 c 0
 27 359 24 356 21 356 c 0
 13 356 8 381 6 430 c 0
503 319 m 0
 462 355 464 355 520 327 c 0
 544 315 561 310 578 310 c 0
 596 310 612 317 631 330 c 0
 636 334 638 335 639 335 c 0
 640 335 640 335 640 335 c 0
 640 332 610 301 562 252 c 0
 505 197 462 142 462 126 c 0
 462 124 463 123 464 122 c 0
 473 111 459 111 434 122 c 0
 427 125 419 126 411 126 c 0
 384 126 353 112 323 88 c 0
 262 36 262 36 312 94 c 0
 332 118 344 145 344 160 c 0
 344 164 344 167 342 169 c 0
 341 170 340 172 340 172 c 0
 340 174 342 175 347 175 c 0
 354 175 365 173 381 169 c 0
 386 168 391 167 397 167 c 0
 427 167 462 186 495 219 c 0
 523 249 536 265 536 279 c 0
 536 291 525 302 503 319 c 0
3 244 m 0
 3 272 6 287 11 287 c 0
 13 287 15 285 17 280 c 0
 20 270 22 257 22 244 c 0
 22 232 20 219 17 211 c 0
 15 205 12 202 10 202 c 0
 6 202 3 217 3 244 c 0
231 277 m 0
 220 297 225 299 242 288 c 0
 253 282 257 270 257 256 c 0
 257 217 224 161 189 161 c 0
 183 161 181 163 181 168 c 0
 181 175 189 189 203 205 c 0
 223 222 234 247 234 264 c 0
 234 269 233 274 231 277 c 0
84 227 m 0
 84 232 83 236 83 240 c 0
 83 256 87 266 92 266 c 0
 94 266 96 265 98 263 c 0
 103 258 106 248 106 237 c 0
 106 228 104 219 100 211 c 0
 92 188 84 197 84 227 c 0
9 -6 m 0
 9 49 16 89 27 89 c 0
 29 89 30 89 31 88 c 0
 38 83 43 74 43 64 c 0
 43 58 41 52 37 47 c 0
 35 44 34 39 34 34 c 0
 34 16 48 -12 70 -37 c 0
 105 -77 124 -115 124 -138 c 0
 124 -153 116 -163 100 -163 c 0
 98 -163 95 -162 92 -162 c 0
 31 -153 12 -120 9 -6 c 0
98 -109 m 0
 99 -108 99 -107 99 -105 c 0
 99 -96 88 -78 70 -64 c 0
 56 -52 47 -46 41 -46 c 0
 37 -46 35 -50 35 -59 c 0
 35 -64 36 -72 37 -81 c 0
 42 -110 54 -126 69 -126 c 0
 77 -126 88 -120 98 -109 c 0
573 74 m 0
 600 91 637 102 650 102 c 0
 655 102 657 101 657 99 c 0
 657 94 644 83 623 72 c 0
 550 30 519 1 519 -32 c 0
 519 -46 524 -61 534 -78 c 0
 559 -128 559 -128 506 -76 c 0
 483 -52 471 -31 471 -17 c 0
 471 -10 473 -6 478 -3 c 0
 486 3 491 14 491 25 c 0
 491 33 489 41 484 49 c 0
 470 74 473 80 492 66 c 0
 499 62 509 60 519 60 c 0
 537 60 557 66 573 74 c 0
95 47 m 0
 120 91 137 83 117 36 c 0
 111 16 100 3 93 3 c 0
 92 3 90 3 89 5 c 0
 86 8 84 12 84 18 c 0
 84 26 88 37 95 47 c 0
178 -12 m 2
 216 28 233 45 241 45 c 0
 247 45 248 37 248 22 c 0
 248 8 220 -20 187 -37 c 2
 123 -70 l 1
 178 -12 l 2
192 -89 m 0
 218 -72 234 -64 241 -64 c 0
 244 -64 245 -65 245 -67 c 0
 245 -71 241 -78 234 -89 c 0
 225 -103 200 -117 184 -117 c 0
 164 -117 167 -106 192 -89 c 0
187 -164 m 0
 181 -162 178 -159 178 -158 c 0
 178 -153 193 -151 220 -151 c 0
 248 -151 263 -154 263 -158 c 0
 263 -160 261 -162 256 -164 c 0
 246 -167 233 -168 220 -168 c 0
 208 -168 195 -167 187 -164 c 0
409 -164 m 0
 387 -156 395 -148 425 -148 c 0
 430 -148 434 -147 438 -147 c 0
 455 -147 465 -151 465 -157 c 0
 465 -158 464 -160 462 -162 c 0
 457 -167 446 -170 435 -170 c 0
 426 -170 417 -168 409 -164 c 0
603 -164 m 0
 581 -156 589 -148 620 -148 c 0
 624 -148 628 -147 632 -147 c 0
 649 -147 659 -151 659 -157 c 0
 659 -158 658 -160 656 -162 c 0
 651 -167 641 -170 630 -170 c 0
 621 -170 612 -168 603 -164 c 0
EndSplineSet
Validated: 1
EndChar

StartChar: Scaron
Encoding: 138 352 138
Width: 667
VWidth: 0
Flags: HW
LayerCount: 2
Back
Fore
SplineSet
34 350 m 0
 50 376 59 389 69 389 c 0
 78 389 87 378 103 358 c 0
 121 336 131 325 140 325 c 0
 149 325 157 336 172 358 c 0
 188 379 197 390 206 390 c 0
 216 390 226 379 242 358 c 0
 258 336 268 325 278 325 c 0
 288 325 298 336 314 358 c 0
 330 379 340 390 350 390 c 0
 359 390 368 379 384 358 c 0
 399 336 408 325 417 325 c 0
 426 325 435 336 450 358 c 0
 466 379 474 390 484 390 c 0
 493 390 503 379 520 358 c 0
 536 336 546 325 556 325 c 0
 566 325 577 337 595 361 c 0
 613 383 623 394 630 394 c 0
 637 394 642 384 650 364 c 0
 656 352 658 338 658 326 c 0
 658 314 658 291 652 287 c 0
 646 281 553 279 438 279 c 0
 355 279 261 280 181 280 c 0
 79 280 0 283 0 289 c 0
 0 294 14 322 34 350 c 0
EndSplineSet
Validated: 1
EndChar

StartChar: guilsinglleft
Encoding: 139 8249 139
Width: 667
VWidth: 0
Flags: HW
LayerCount: 2
Back
Fore
SplineSet
554 703 m 0
 554 712 562 719 571 719 c 0
 580 719 588 712 588 703 c 0
 588 694 580 687 571 687 c 0
 562 687 554 694 554 703 c 0
410 757 m 0
 410 766 418 773 427 773 c 0
 436 773 444 766 444 757 c 0
 444 748 436 741 427 741 c 0
 418 741 410 748 410 757 c 0
330 701 m 0
 330 710 338 717 347 717 c 0
 356 717 364 710 364 701 c 0
 364 692 356 685 347 685 c 0
 338 685 330 692 330 701 c 0
190 759 m 0
 190 768 198 775 207 775 c 0
 216 775 224 768 224 759 c 0
 224 750 216 743 207 743 c 0
 198 743 190 750 190 759 c 0
106 705 m 0
 106 714 114 721 123 721 c 0
 132 721 140 714 140 705 c 0
 140 696 132 689 123 689 c 0
 114 689 106 696 106 705 c 0
382 509 m 0
 382 518 390 525 399 525 c 0
 408 525 416 518 416 509 c 0
 416 500 408 493 399 493 c 0
 390 493 382 500 382 509 c 0
524 507 m 0
 524 516 532 523 541 523 c 0
 550 523 558 516 558 507 c 0
 558 498 550 491 541 491 c 0
 532 491 524 498 524 507 c 0
330 481 m 0
 330 490 338 497 347 497 c 0
 356 497 364 490 364 481 c 0
 364 472 356 465 347 465 c 0
 338 465 330 472 330 481 c 0
274 513 m 0
 274 522 282 529 291 529 c 0
 300 529 308 522 308 513 c 0
 308 504 300 497 291 497 c 0
 282 497 274 504 274 513 c 0
188 563 m 0
 188 572 196 579 205 579 c 0
 214 579 222 572 222 563 c 0
 222 554 214 547 205 547 c 0
 196 547 188 554 188 563 c 0
136 511 m 0
 136 520 144 527 153 527 c 0
 162 527 170 520 170 511 c 0
 170 502 162 495 153 495 c 0
 144 495 136 502 136 511 c 0
608 609 m 0
 608 624 615 637 623 637 c 0
 631 637 638 624 638 609 c 0
 638 594 631 581 623 581 c 0
 615 581 608 594 608 609 c 0
416 607 m 0
 416 622 423 635 431 635 c 0
 439 635 446 622 446 607 c 0
 446 592 439 579 431 579 c 0
 423 579 416 592 416 607 c 0
304 603 m 0
 304 618 311 631 319 631 c 0
 327 631 334 618 334 603 c 0
 334 588 327 575 319 575 c 0
 311 575 304 588 304 603 c 0
55 608 m 0
 55 623 62 636 70 636 c 0
 78 636 85 623 85 608 c 0
 85 593 78 580 70 580 c 0
 62 580 55 593 55 608 c 0
81 413 m 0
 81 428 88 441 96 441 c 0
 104 441 111 428 111 413 c 0
 111 398 104 385 96 385 c 0
 88 385 81 398 81 413 c 0
606 342 m 0
 606 350 614 356 623 356 c 0
 632 356 640 350 640 342 c 0
 640 334 632 328 623 328 c 0
 614 328 606 334 606 342 c 0
608 149 m 0
 608 158 616 165 625 165 c 0
 634 165 642 158 642 149 c 0
 642 140 634 133 625 133 c 0
 616 133 608 140 608 149 c 0
49 119 m 0
 49 128 57 135 66 135 c 0
 75 135 83 128 83 119 c 0
 83 110 75 103 66 103 c 0
 57 103 49 110 49 119 c 0
127 351 m 0
 159 403 207 431 247 431 c 0
 277 431 303 416 316 384 c 0
 324 360 330 349 336 349 c 0
 344 349 352 360 369 384 c 0
 388 409 430 431 458 431 c 0
 516 431 608 301 608 220 c 0
 608 198 607 187 602 187 c 0
 597 187 587 199 569 223 c 0
 550 249 537 276 537 287 c 0
 537 289 537 291 538 292 c 0
 538 293 539 293 539 294 c 0
 539 302 508 306 469 306 c 0
 430 306 401 299 401 289 c 0
 401 289 402 288 402 287 c 0
 404 284 404 281 404 278 c 0
 404 269 398 259 386 251 c 0
 372 242 358 198 358 151 c 0
 358 78 366 70 452 70 c 0
 561 70 637 3 637 -68 c 0
 637 -95 626 -123 602 -147 c 0
 580 -169 469 -180 358 -180 c 0
 247 -180 136 -169 113 -147 c 0
 90 -124 80 -97 80 -70 c 0
 80 0 151 70 250 70 c 0
 319 70 330 81 330 151 c 0
 330 195 313 242 297 256 c 0
 264 281 189 306 159 306 c 0
 150 306 145 304 145 300 c 0
 145 298 146 297 147 295 c 0
 148 294 148 292 148 289 c 0
 148 276 137 248 119 223 c 0
 101 199 91 187 86 187 c 0
 81 187 80 198 80 220 c 0
 80 248 102 306 127 351 c 0
333 -5 m 0
 332 28 297 44 258 44 c 0
 215 44 167 26 144 -10 c 0
 130 -30 124 -53 124 -67 c 0
 124 -73 125 -78 127 -80 c 0
 139 -92 216 -97 303 -97 c 0
 420 -97 554 -88 563 -72 c 0
 569 -65 571 -55 571 -44 c 0
 571 -30 568 -15 563 -2 c 0
 551 29 504 45 457 45 c 0
 407 45 358 28 350 -5 c 0
 338 -52 336 -52 333 -5 c 0
EndSplineSet
Validated: 1
EndChar

StartChar: OE
Encoding: 140 338 140
Width: 667
VWidth: 0
Flags: HW
LayerCount: 2
Back
Fore
SplineSet
394 435 m 0
 421 475 454 494 485 494 c 0
 526 494 563 462 580 401 c 0
 605 312 628 171 644 -29 c 2
 655 -154 l 1
 633 -38 l 2
 616 58 602 101 577 101 c 0
 559 101 537 82 505 48 c 0
 474 15 459 -7 459 -22 c 0
 459 -30 463 -36 472 -40 c 0
 477 -42 479 -44 479 -45 c 0
 479 -46 477 -47 474 -47 c 0
 466 -47 451 -44 430 -40 c 0
 412 -36 398 -34 387 -34 c 0
 361 -34 353 -46 353 -71 c 0
 353 -98 360 -108 385 -108 c 0
 396 -108 411 -106 430 -102 c 0
 449 -97 463 -95 471 -95 c 0
 476 -95 479 -96 479 -97 c 0
 479 -100 476 -103 469 -107 c 0
 443 -124 353 -133 270 -133 c 0
 194 -133 125 -126 114 -110 c 0
 112 -106 111 -101 111 -96 c 0
 111 -78 121 -54 139 -35 c 0
 158 -16 170 -6 185 -6 c 0
 201 -6 220 -17 253 -40 c 0
 282 -59 302 -68 312 -68 c 0
 319 -68 322 -65 322 -59 c 0
 322 -47 310 -25 286 7 c 0
 262 37 216 53 180 53 c 0
 152 53 130 43 130 21 c 0
 130 4 122 -2 114 7 c 0
 110 11 108 17 108 23 c 0
 108 35 114 50 125 62 c 0
 137 76 142 89 142 101 c 0
 142 122 124 137 94 137 c 0
 84 137 78 114 78 83 c 0
 78 72 79 60 80 48 c 0
 85 19 87 -7 87 -28 c 0
 87 -86 69 -113 30 -113 c 0
 6 -113 -7 -101 -7 -87 c 0
 -7 -73 5 -57 28 -46 c 0
 40 -39 47 -34 47 -30 c 0
 47 -25 40 -20 28 -13 c 0
 5 -2 -8 51 -8 96 c 0
 -8 133 1 165 19 165 c 0
 36 165 47 187 47 218 c 0
 47 271 98 325 137 325 c 0
 144 325 150 324 155 321 c 0
 158 319 162 318 166 318 c 0
 178 318 191 329 197 348 c 0
 206 373 225 385 256 385 c 0
 264 385 273 384 283 382 c 0
 294 380 303 378 312 378 c 0
 346 378 370 396 394 435 c 0
547 354 m 0
 545 392 530 413 507 413 c 0
 492 413 473 404 453 385 c 0
 429 361 415 347 415 340 c 0
 415 332 433 332 472 332 c 0
 514 332 547 340 547 354 c 0
353 243 m 0
 353 290 336 304 278 304 c 0
 238 302 219 302 219 296 c 0
 219 292 232 284 255 271 c 0
 286 254 319 226 330 210 c 0
 334 205 338 203 341 203 c 0
 348 203 353 217 353 243 c 0
528 223 m 0
 518 258 498 276 475 276 c 0
 452 276 428 258 408 223 c 0
 392 191 383 171 383 158 c 0
 383 140 402 137 444 137 c 0
 509 137 534 147 534 184 c 0
 534 195 532 208 528 223 c 0
133 223 m 0
 124 210 116 203 110 203 c 0
 104 203 99 208 94 218 c 0
 83 240 80 240 86 215 c 0
 92 187 110 172 127 172 c 0
 144 172 158 185 158 212 c 0
 158 251 153 254 133 223 c 0
308 148 m 0
 297 176 257 193 226 193 c 0
 204 193 186 185 186 165 c 0
 186 140 273 93 308 93 c 0
 313 93 317 94 319 96 c 0
 320 96 320 98 320 101 c 0
 320 110 316 129 308 148 c 0
436 29 m 0
 436 43 411 54 380 54 c 0
 350 54 325 37 325 15 c 0
 325 -4 336 -13 356 -13 c 0
 363 -13 371 -12 380 -10 c 0
 411 -2 436 15 436 29 c 0
536 12 m 0
 544 32 549 41 556 41 c 0
 562 41 569 35 578 21 c 0
 594 -4 601 -37 601 -65 c 0
 601 -106 587 -140 561 -140 c 0
 533 -140 518 -113 518 -73 c 0
 518 -48 524 -19 536 12 c 0
566 -90 m 0
 570 -82 572 -73 572 -64 c 0
 572 -53 569 -43 564 -38 c 0
 562 -36 560 -35 558 -35 c 0
 553 -35 549 -45 549 -61 c 0
 549 -65 550 -69 550 -74 c 0
 550 -104 558 -113 566 -90 c 0
EndSplineSet
Validated: 1
EndChar

StartChar: NameMe.141
Encoding: 141 -1 141
Width: 667
VWidth: 0
Flags: HW
LayerCount: 2
Back
Fore
SplineSet
2 801 m 0
 2 820 6 830 14 830 c 0
 34 830 76 773 136 662 c 0
 188 570 238 495 250 495 c 0
 263 495 288 457 308 409 c 2
 344 323 l 1
 397 423 l 2
 425 479 458 523 469 523 c 0
 480 523 525 593 569 676 c 0
 614 756 655 818 662 818 c 0
 663 818 663 818 663 818 c 0
 664 817 664 816 664 815 c 0
 664 778 499 495 477 495 c 0
 466 495 438 454 413 404 c 0
 394 362 384 337 384 314 c 0
 384 290 394 268 413 232 c 0
 436 184 472 137 488 120 c 0
 525 89 660 -141 660 -168 c 0
 660 -170 659 -171 658 -171 c 0
 650 -171 608 -113 566 -41 c 0
 525 32 472 112 447 137 c 0
 425 162 391 204 375 234 c 0
 361 256 352 268 344 268 c 0
 334 268 326 251 311 212 c 0
 294 168 272 134 258 134 c 0
 244 134 216 101 197 57 c 0
 136 -63 55 -171 30 -171 c 0
 27 -171 26 -169 26 -167 c 0
 26 -156 44 -129 72 -99 c 0
 111 -57 141 -10 141 9 c 0
 141 29 169 73 205 112 c 0
 285 202 318 255 318 305 c 0
 318 327 313 347 302 370 c 0
 286 409 263 440 252 440 c 0
 244 440 194 515 141 607 c 0
 88 698 38 773 25 773 c 0
 13 773 2 787 2 801 c 0
EndSplineSet
Validated: 1
EndChar

StartChar: Zcaron
Encoding: 142 381 142
Width: 667
VWidth: 0
Flags: HW
LayerCount: 2
Back
Fore
SplineSet
272 642 m 0
 290 648 312 650 335 650 c 0
 403 650 481 628 514 595 c 0
 536 573 570 550 589 542 c 0
 597 540 600 535 600 529 c 0
 600 514 580 489 542 456 c 0
 473 396 423 366 369 366 c 0
 322 366 272 389 203 434 c 2
 72 520 l 1
 147 553 l 2
 189 573 222 598 222 609 c 0
 222 620 245 636 272 642 c 0
0 300 m 0
 0 411 11 495 28 495 c 0
 45 495 117 453 195 406 c 2
 331 314 l 1
 336 106 l 1
 345 -102 l 1
 353 98 l 2
 364 286 370 303 439 339 c 0
 481 361 539 403 567 436 c 0
 597 470 631 495 645 495 c 0
 656 495 667 403 667 295 c 0
 667 61 631 -2 458 -86 c 0
 405 -111 376 -124 349 -124 c 0
 322 -124 297 -112 250 -89 c 0
 197 -61 120 -8 78 31 c 0
 8 98 0 120 0 300 c 0
EndSplineSet
Validated: 1
EndChar

StartChar: NameMe.143
Encoding: 143 -1 143
Width: 667
VWidth: 0
Flags: HW
LayerCount: 2
Back
Fore
SplineSet
0 802 m 0
 0 821 4 830 12 830 c 0
 32 830 74 773 134 663 c 0
 186 571 236 496 248 496 c 0
 261 496 286 457 306 410 c 2
 342 324 l 1
 395 424 l 2
 423 480 456 524 467 524 c 0
 478 524 523 593 567 677 c 0
 612 756 652 818 660 818 c 0
 660 818 661 818 661 818 c 0
 662 817 662 816 662 815 c 0
 662 779 497 496 475 496 c 0
 464 496 436 455 411 405 c 0
 392 363 382 338 382 314 c 0
 382 291 392 268 411 232 c 0
 434 185 470 138 486 121 c 0
 523 90 658 -140 658 -167 c 0
 658 -169 657 -170 656 -170 c 0
 648 -170 606 -112 564 -40 c 0
 523 32 470 113 445 138 c 0
 423 163 389 205 373 235 c 0
 359 257 350 269 342 269 c 0
 332 269 324 251 309 213 c 0
 292 168 270 135 256 135 c 0
 242 135 214 102 195 57 c 0
 134 -62 53 -170 28 -170 c 0
 25 -170 24 -168 24 -166 c 0
 24 -155 42 -128 70 -98 c 0
 109 -57 139 -9 139 10 c 0
 139 30 167 74 203 113 c 0
 283 203 316 256 316 306 c 0
 316 327 311 348 300 371 c 0
 284 410 261 441 250 441 c 0
 242 441 192 516 139 607 c 0
 86 699 36 774 23 774 c 0
 11 774 0 788 0 802 c 0
EndSplineSet
Validated: 1
EndChar

StartChar: NameMe.144
Encoding: 144 -1 144
Width: 667
VWidth: 0
Flags: HW
LayerCount: 2
Back
Fore
SplineSet
-2 802 m 0
 -2 821 2 830 10 830 c 0
 30 830 72 773 132 663 c 0
 184 571 234 496 246 496 c 0
 259 496 284 457 304 410 c 2
 340 324 l 1
 393 424 l 2
 421 480 454 524 465 524 c 0
 476 524 521 593 565 677 c 0
 610 756 650 818 658 818 c 0
 658 818 659 818 659 818 c 0
 660 817 660 816 660 815 c 0
 660 779 495 496 473 496 c 0
 462 496 434 455 409 405 c 0
 390 363 380 338 380 314 c 0
 380 291 390 268 409 232 c 0
 432 185 468 138 484 121 c 0
 521 90 656 -140 656 -167 c 0
 656 -169 655 -170 654 -170 c 0
 646 -170 604 -112 562 -40 c 0
 521 32 468 113 443 138 c 0
 421 163 387 205 371 235 c 0
 357 257 348 269 340 269 c 0
 330 269 322 251 307 213 c 0
 290 168 268 135 254 135 c 0
 240 135 212 102 193 57 c 0
 132 -62 51 -170 26 -170 c 0
 23 -170 22 -168 22 -166 c 0
 22 -155 40 -128 68 -98 c 0
 107 -57 137 -9 137 10 c 0
 137 30 165 74 201 113 c 0
 281 203 314 256 314 306 c 0
 314 327 309 348 298 371 c 0
 282 410 259 441 248 441 c 0
 240 441 190 516 137 607 c 0
 84 699 34 774 21 774 c 0
 9 774 -2 788 -2 802 c 0
EndSplineSet
Validated: 1
EndChar

StartChar: quoteleft
Encoding: 145 8216 145
Width: 667
VWidth: 0
Flags: HW
LayerCount: 2
Back
Fore
SplineSet
4 770 m 0
 4 803 21 823 37 823 c 0
 49 823 59 813 62 789 c 0
 62 761 68 761 79 789 c 0
 84 806 120 823 156 823 c 0
 193 823 229 806 237 789 c 0
 244 775 249 768 254 768 c 0
 258 768 263 775 270 789 c 0
 279 806 320 823 365 823 c 0
 409 823 451 806 459 789 c 0
 466 775 471 768 476 768 c 0
 481 768 486 775 493 789 c 0
 501 806 526 823 548 823 c 0
 570 823 587 806 590 789 c 0
 590 761 595 761 606 789 c 0
 615 812 623 824 630 824 c 0
 653 824 662 674 662 325 c 2
 662 -172 l 1
 381 -175 l 2
 226 -175 79 -169 54 -161 c 0
 23 -152 6 -123 6 -100 c 0
 6 -81 17 -65 40 -64 c 0
 68 -64 68 -58 40 -47 c 0
 20 -41 4 -11 4 20 c 0
 4 48 20 73 40 73 c 0
 62 73 59 84 31 100 c 0
 13 112 4 120 4 128 c 0
 4 136 13 144 31 156 c 0
 59 173 62 184 40 184 c 0
 20 184 4 214 4 253 c 0
 4 292 20 323 40 325 c 0
 68 325 68 331 40 342 c 0
 20 348 4 373 4 395 c 0
 4 417 20 434 40 434 c 0
 62 434 59 445 31 461 c 0
 13 474 4 481 4 489 c 0
 4 497 13 504 31 517 c 0
 59 534 62 545 40 545 c 0
 16 545 5 580 5 615 c 0
 5 650 16 685 40 686 c 0
 68 686 68 692 40 703 c 0
 20 709 4 739 4 770 c 0
587 684 m 0
 587 700 576 711 559 711 c 0
 545 711 531 700 531 684 c 0
 531 670 545 656 559 656 c 0
 576 656 587 670 587 684 c 0
198 614 m 0
 198 636 187 656 170 656 c 0
 156 656 143 636 143 614 c 0
 143 592 156 573 170 573 c 0
 187 573 198 592 198 614 c 0
337 392 m 0
 337 414 326 434 309 434 c 0
 295 434 281 414 281 392 c 0
 281 370 295 350 309 350 c 0
 326 350 337 370 337 392 c 0
504 198 m 0
 504 220 484 239 462 239 c 0
 440 239 420 220 420 198 c 0
 420 175 440 156 462 156 c 0
 484 156 504 175 504 198 c 0
504 17 m 0
 504 34 493 45 476 45 c 0
 462 45 448 34 448 17 c 0
 448 3 462 -11 476 -11 c 0
 493 -11 504 3 504 17 c 0
226 -39 m 0
 226 -22 215 -11 198 -11 c 0
 184 -11 170 -22 170 -39 c 0
 170 -52 184 -66 198 -66 c 0
 215 -66 226 -52 226 -39 c 0
559 -66 m 0
 559 -50 548 -39 531 -39 c 0
 518 -39 504 -50 504 -66 c 0
 504 -80 518 -94 531 -94 c 0
 548 -94 559 -80 559 -66 c 0
EndSplineSet
Validated: 1
EndChar

StartChar: quoteright
Encoding: 146 8217 146
Width: 667
VWidth: 0
Flags: HW
LayerCount: 2
Back
Fore
SplineSet
-5 801 m 0
 -5 817 126 829 328 829 c 0
 592 829 663 826 663 773 c 0
 663 756 656 734 645 706 c 0
 633 676 608 662 582 662 c 0
 552 662 521 681 509 717 c 0
 501 748 481 773 467 773 c 0
 453 773 434 748 426 717 c 0
 417 687 384 662 356 662 c 0
 328 662 295 687 287 717 c 0
 278 748 259 773 245 773 c 0
 231 773 212 748 203 717 c 0
 195 687 162 662 134 662 c 0
 106 662 73 687 64 717 c 0
 56 748 34 773 20 773 c 0
 6 773 -5 787 -5 801 c 0
-5 592 m 0
 -5 636 11 661 29 661 c 0
 42 661 57 648 67 620 c 0
 77 594 100 581 125 581 c 0
 152 581 183 597 206 629 c 0
 224 651 234 662 245 662 c 0
 256 662 266 651 284 629 c 0
 303 601 337 579 356 579 c 0
 376 579 409 601 428 629 c 0
 446 651 456 662 467 662 c 0
 478 662 488 651 506 629 c 0
 529 597 562 580 590 580 c 0
 613 580 633 591 642 615 c 0
 645 621 648 624 650 624 c 0
 656 624 659 602 659 572 c 0
 659 534 654 483 645 448 c 0
 633 406 606 385 579 385 c 0
 551 385 523 408 512 454 c 0
 501 492 481 523 467 523 c 0
 453 523 434 492 423 454 c 0
 412 412 387 384 356 384 c 0
 326 384 301 412 289 454 c 0
 278 492 259 523 245 523 c 0
 231 523 212 492 201 454 c 0
 189 412 164 384 134 384 c 0
 103 384 78 412 67 454 c 0
 56 492 37 523 23 523 c 0
 6 523 -5 554 -5 592 c 0
-5 329 m 0
 -5 364 -3 381 13 381 c 0
 25 381 45 370 78 351 c 0
 100 337 117 330 134 330 c 0
 150 330 167 337 189 351 c 0
 212 365 228 372 245 372 c 0
 262 372 278 365 301 351 c 0
 323 337 340 330 356 330 c 0
 373 330 390 337 414 351 c 0
 437 365 454 372 470 372 c 0
 484 372 497 366 512 354 c 0
 528 342 555 334 580 334 c 0
 589 334 598 335 606 337 c 0
 616 340 625 341 632 341 c 0
 655 341 662 326 662 287 c 0
 662 187 634 134 576 134 c 0
 542 134 517 159 506 204 c 0
 498 242 478 273 467 273 c 0
 456 273 437 242 428 204 c 0
 416 156 386 133 356 133 c 0
 326 133 296 156 284 204 c 0
 276 242 256 273 245 273 c 0
 234 273 214 242 206 204 c 0
 194 156 164 133 134 133 c 0
 104 133 74 156 62 204 c 0
 53 242 34 273 20 273 c 0
 6 273 -5 298 -5 329 c 0
-5 65 m 0
 -5 111 -2 132 14 132 c 0
 27 132 46 121 78 101 c 0
 100 87 117 80 134 80 c 0
 150 80 167 87 189 101 c 0
 212 115 228 122 245 122 c 0
 262 122 278 115 301 101 c 0
 323 87 340 80 356 80 c 0
 373 80 390 87 414 101 c 0
 437 115 454 122 470 122 c 0
 484 122 497 116 512 104 c 0
 528 92 555 84 580 84 c 0
 589 84 598 85 606 87 c 0
 616 90 625 91 632 91 c 0
 655 91 662 76 662 37 c 0
 662 -63 634 -116 578 -116 c 0
 551 -116 517 -91 509 -60 c 0
 498 -24 483 -6 468 -6 c 0
 452 -6 437 -24 426 -60 c 0
 417 -91 384 -116 356 -116 c 0
 328 -116 295 -91 287 -60 c 0
 278 -30 259 -5 245 -5 c 0
 231 -5 212 -30 203 -60 c 0
 195 -91 162 -116 134 -116 c 0
 106 -116 73 -91 64 -60 c 0
 56 -30 34 -5 20 -5 c 0
 6 -5 -5 26 -5 65 c 0
-5 -144 m 0
 -5 -127 6 -116 20 -116 c 0
 37 -116 56 -127 64 -144 c 0
 66 -147 67 -151 67 -154 c 0
 67 -163 57 -171 39 -171 c 0
 14 -171 -5 -158 -5 -144 c 0
203 -144 m 0
 212 -127 231 -116 245 -116 c 0
 259 -116 278 -127 287 -144 c 0
 288 -146 289 -149 289 -151 c 0
 289 -162 273 -171 245 -171 c 0
 217 -171 201 -162 201 -151 c 0
 201 -149 202 -146 203 -144 c 0
426 -144 m 0
 434 -127 453 -116 467 -116 c 0
 481 -116 501 -127 509 -144 c 0
 510 -146 511 -149 511 -151 c 0
 511 -162 495 -171 467 -171 c 0
 440 -171 424 -162 424 -151 c 0
 424 -149 424 -147 426 -144 c 0
EndSplineSet
Validated: 1
EndChar

StartChar: quotedblleft
Encoding: 147 8220 147
Width: 667
VWidth: 0
Flags: HW
LayerCount: 2
Back
Fore
SplineSet
315 599 m 0
 323 636 335 654 348 654 c 0
 366 654 384 617 387 555 c 0
 390 521 396 495 402 495 c 0
 403 495 403 495 404 496 c 0
 405 497 407 498 409 498 c 0
 433 498 505 405 559 302 c 2
 615 202 l 1
 496 88 l 2
 432 24 379 -40 379 -56 c 0
 379 -58 378 -58 377 -58 c 0
 364 -58 309 -14 240 52 c 0
 165 127 101 205 101 224 c 0
 101 260 259 508 282 508 c 0
 287 508 289 505 289 499 c 0
 289 474 250 406 221 388 c 0
 198 374 186 361 186 351 c 0
 186 336 209 326 254 324 c 0
 262 323 270 323 276 323 c 0
 304 323 314 331 314 363 c 0
 314 378 312 396 309 421 c 0
 307 440 307 461 307 483 c 0
 307 527 310 572 315 599 c 0
487 349 m 0
 465 369 434 399 418 419 c 0
 407 431 398 437 391 437 c 0
 383 437 376 428 368 408 c 0
 359 384 354 366 354 353 c 0
 354 326 377 320 437 319 c 0
 446 319 455 318 462 318 c 0
 491 318 504 322 504 329 c 0
 504 334 498 340 487 349 c 0
268 219 m 0
 268 241 248 258 226 258 c 0
 199 258 186 251 186 239 c 0
 186 221 212 192 262 155 c 2
 340 96 l 1
 346 177 l 2
 346 180 346 184 346 187 c 0
 346 227 336 258 321 258 c 0
 310 258 303 247 303 230 c 0
 303 221 305 211 309 199 c 0
 315 182 318 170 318 163 c 0
 318 157 316 154 311 154 c 0
 308 154 304 155 298 158 c 0
 282 169 268 196 268 219 c 0
476 202 m 0
 457 202 432 219 426 238 c 0
 421 249 417 256 414 256 c 0
 406 256 401 217 393 116 c 2
 384 16 l 1
 476 99 l 2
 528 144 554 182 554 210 c 0
 554 215 553 220 551 224 c 0
 540 252 532 258 523 235 c 0
 518 216 496 202 476 202 c 0
323 27 m 0
 323 46 282 88 234 121 c 0
 199 145 179 157 175 157 c 0
 174 157 174 157 174 156 c 0
 174 154 182 145 198 130 c 0
 229 102 271 60 290 38 c 0
 301 23 310 16 316 16 c 0
 321 16 323 20 323 27 c 0
462 144 m 0
 508 182 533 200 540 200 c 0
 542 200 543 199 543 197 c 0
 543 194 539 186 532 174 c 0
 523 160 487 133 454 116 c 0
 401 91 401 94 462 144 c 0
EndSplineSet
Validated: 1
EndChar

StartChar: quotedblright
Encoding: 148 8221 148
Width: 667
VWidth: 0
Flags: HW
LayerCount: 2
Back
Fore
SplineSet
62 729 m 0
 75 757 105 768 177 768 c 0
 185 768 194 768 204 768 c 0
 273 763 308 754 308 741 c 0
 308 738 307 735 304 732 c 0
 293 720 284 699 284 682 c 0
 284 680 284 678 284 676 c 0
 284 675 284 674 284 673 c 0
 284 653 231 641 177 641 c 0
 141 641 104 647 84 660 c 0
 68 670 59 689 59 709 c 0
 59 716 60 723 62 729 c 0
412 765 m 0
 414 766 428 767 450 767 c 0
 473 767 504 766 537 765 c 0
 636 762 654 755 654 712 c 0
 654 709 654 707 654 704 c 0
 651 657 638 645 556 645 c 0
 545 645 533 646 520 646 c 0
 424 646 398 649 398 679 c 0
 398 685 399 692 401 701 c 0
 406 735 412 762 412 765 c 0
317 690 m 0
 309 707 315 718 329 718 c 0
 345 718 359 707 359 690 c 0
 359 676 354 662 348 662 c 0
 340 662 326 676 317 690 c 0
34 532 m 0
 58 542 84 547 110 547 c 0
 155 547 199 532 234 504 c 2
 290 460 l 1
 234 479 l 2
 179 496 179 496 234 454 c 0
 260 432 272 420 272 410 c 0
 272 402 264 395 248 385 c 0
 221 367 192 359 157 359 c 0
 130 359 99 364 62 373 c 0
 21 385 -3 430 -3 470 c 0
 -3 498 9 523 34 532 c 0
315 512 m 0
 324 537 353 547 424 547 c 0
 439 547 456 547 476 546 c 0
 620 537 623 535 623 454 c 0
 623 371 620 371 470 371 c 0
 351 371 299 392 299 447 c 0
 299 465 305 486 315 512 c 0
29 279 m 0
 60 290 145 295 218 295 c 0
 275 295 325 292 337 285 c 0
 344 280 348 274 348 268 c 0
 348 260 342 251 329 243 c 0
 313 232 305 225 305 217 c 0
 305 209 314 201 331 190 c 0
 362 171 362 162 337 162 c 0
 321 162 310 157 310 149 c 0
 310 147 311 145 312 143 c 0
 313 141 314 139 314 138 c 0
 314 122 268 114 213 114 c 0
 158 114 94 123 62 140 c 0
 21 160 -2 201 -2 233 c 0
 -2 254 8 272 29 279 c 0
395 212 m 2
 384 307 l 1
 501 296 l 2
 609 287 617 279 620 204 c 0
 620 195 621 187 621 180 c 0
 621 123 606 121 515 121 c 0
 412 121 404 126 395 212 c 2
73 12 m 0
 81 35 126 51 181 51 c 0
 240 51 277 35 277 16 c 0
 277 6 266 -4 242 -13 c 0
 220 -21 229 -29 256 -29 c 0
 285 -32 299 -44 299 -66 c 0
 299 -70 299 -74 298 -79 c 0
 291 -115 237 -132 183 -132 c 0
 127 -132 71 -114 65 -77 c 0
 64 -70 64 -62 64 -54 c 0
 64 -30 67 -4 73 12 c 0
356 10 m 0
 358 38 423 54 484 54 c 0
 535 54 583 42 584 18 c 0
 584 -10 590 -10 601 18 c 0
 606 35 626 51 640 51 c 0
 656 51 663 28 663 1 c 0
 663 -29 654 -63 637 -74 c 0
 624 -82 618 -94 618 -103 c 0
 618 -106 619 -108 620 -110 c 0
 620 -111 620 -111 620 -112 c 0
 620 -122 563 -129 490 -129 c 0
 375 -127 351 -130 351 -68 c 0
 351 -48 353 -23 356 10 c 0
EndSplineSet
Validated: 1
EndChar

StartChar: bullet
Encoding: 149 8226 149
Width: 667
VWidth: 0
Flags: HW
LayerCount: 2
Back
Fore
SplineSet
9 798 m 0
 9 814 59 825 120 825 c 0
 200 825 231 814 231 784 c 0
 231 761 245 742 259 742 c 0
 275 742 286 761 286 784 c 0
 286 814 317 825 398 825 c 0
 459 825 509 817 509 803 c 0
 509 778 420 722 388 722 c 0
 383 722 380 723 378 725 c 0
 376 727 373 728 368 728 c 0
 351 728 313 715 275 695 c 0
 232 669 188 653 173 653 c 0
 172 653 171 653 170 653 c 0
 169 653 168 653 167 653 c 0
 155 653 148 637 148 617 c 0
 148 595 128 575 106 575 c 0
 84 575 64 595 64 617 c 0
 64 639 53 659 36 659 c 0
 23 659 9 678 9 700 c 0
 9 723 23 742 36 742 c 0
 53 742 64 731 64 720 c 0
 64 706 84 695 106 695 c 0
 134 695 147 702 147 711 c 0
 147 724 122 742 78 753 c 0
 39 764 9 784 9 798 c 0
536 806 m 0
 536 817 564 825 600 825 c 0
 661 825 664 814 667 642 c 0
 667 620 668 601 668 584 c 0
 668 499 662 472 642 472 c 0
 638 472 633 473 628 475 c 0
 589 492 589 486 623 448 c 0
 650 415 663 289 663 167 c 0
 663 50 651 -63 625 -89 c 0
 611 -104 599 -112 587 -112 c 0
 578 -112 569 -107 559 -97 c 0
 552 -90 549 -84 549 -77 c 0
 549 -63 562 -49 589 -30 c 0
 625 -8 643 20 643 52 c 0
 643 77 633 103 611 131 c 0
 599 147 590 155 579 155 c 0
 564 155 547 141 517 111 c 0
 486 78 470 59 470 52 c 0
 470 50 471 49 474 49 c 0
 481 49 502 60 536 81 c 0
 559 96 577 102 590 102 c 0
 603 102 611 94 611 80 c 0
 611 63 600 36 578 3 c 0
 555 -33 540 -51 527 -51 c 0
 520 -51 513 -45 506 -33 c 0
 496 -16 487 -8 475 -8 c 0
 463 -8 447 -15 423 -30 c 0
 398 -47 382 -56 370 -56 c 0
 358 -56 349 -47 339 -30 c 0
 325 -10 319 12 319 33 c 0
 319 78 349 116 388 116 c 0
 396 116 405 114 414 111 c 0
 419 109 423 109 427 109 c 0
 444 109 453 122 453 145 c 0
 453 168 464 180 478 180 c 0
 482 180 485 180 489 178 c 0
 491 177 494 177 496 177 c 0
 514 177 523 206 525 267 c 0
 526 279 526 289 526 297 c 0
 526 319 524 330 522 330 c 0
 520 330 519 327 517 320 c 0
 509 292 492 270 478 270 c 0
 464 270 453 248 453 223 c 0
 453 199 452 188 447 188 c 0
 442 188 435 197 423 214 c 0
 400 248 398 242 411 189 c 0
 417 171 420 158 420 150 c 0
 420 142 417 138 412 138 c 0
 409 138 405 140 400 142 c 0
 394 146 387 149 380 149 c 0
 354 149 316 121 228 42 c 0
 207 21 193 10 185 10 c 0
 178 10 175 17 175 31 c 0
 175 50 134 78 86 89 c 2
 -5 109 l 1
 89 150 l 2
 127 166 156 174 176 174 c 0
 192 174 203 170 211 161 c 0
 228 145 256 131 270 131 c 0
 276 131 278 133 278 136 c 0
 278 141 269 151 253 161 c 0
 225 175 203 211 203 239 c 0
 203 295 150 325 61 325 c 0
 28 325 10 339 10 355 c 0
 10 368 21 381 45 389 c 0
 56 394 62 399 62 405 c 0
 62 412 53 421 36 434 c 0
 6 456 6 464 31 464 c 0
 50 464 73 445 84 420 c 0
 91 399 96 388 102 388 c 0
 107 388 114 399 125 420 c 0
 136 440 152 453 165 453 c 0
 169 453 172 452 175 450 c 0
 177 449 178 448 179 448 c 0
 184 448 187 455 187 466 c 0
 187 474 185 485 181 498 c 2
 167 559 l 1
 145 498 l 2
 132 465 124 450 108 450 c 0
 98 450 84 457 64 470 c 0
 40 486 26 495 26 503 c 0
 26 513 48 522 98 542 c 0
 134 558 157 566 174 566 c 0
 194 566 205 556 220 534 c 0
 236 513 248 504 265 504 c 0
 277 504 293 509 314 520 c 0
 334 531 348 538 359 538 c 0
 373 538 381 525 389 495 c 0
 398 461 417 436 431 436 c 0
 437 436 441 440 441 447 c 0
 441 458 432 477 417 498 c 0
 393 536 364 554 323 554 c 0
 316 554 310 554 303 553 c 0
 297 552 291 552 285 552 c 0
 248 552 229 571 229 596 c 0
 229 624 252 659 300 681 c 0
 326 693 341 700 349 700 c 0
 354 700 357 697 357 692 c 0
 357 687 354 678 350 667 c 0
 349 663 348 660 348 657 c 0
 348 653 350 651 354 651 c 0
 365 651 393 669 434 703 c 0
 489 748 536 792 536 806 c 0
620 673 m 0
 598 703 575 734 573 739 c 0
 567 745 564 736 564 720 c 0
 564 700 536 686 503 686 c 0
 474 686 460 684 460 679 c 0
 460 674 467 668 481 659 c 0
 494 652 507 648 519 648 c 0
 531 648 542 652 550 659 c 0
 559 666 569 669 579 669 c 0
 593 669 607 663 620 650 c 0
 650 623 650 628 620 673 c 0
509 586 m 0
 509 611 498 631 481 631 c 0
 467 631 453 595 453 548 c 0
 453 494 456 468 472 468 c 0
 485 468 508 487 545 523 c 0
 571 546 583 559 583 564 c 0
 583 566 582 567 580 567 c 0
 576 567 569 565 559 561 c 0
 548 557 539 555 532 555 c 0
 516 555 509 565 509 586 c 0
392 323 m 0
 393 325 393 326 393 329 c 0
 393 347 370 384 339 414 c 2
 278 478 l 1
 331 386 l 2
 354 345 376 319 387 319 c 0
 389 319 391 321 392 323 c 0
600 403 m 0
 579 424 538 435 505 435 c 0
 476 435 453 427 453 409 c 0
 453 395 484 381 523 381 c 0
 574 381 598 364 598 320 c 0
 598 312 597 303 595 292 c 0
 595 278 606 270 620 270 c 0
 636 270 643 284 643 303 c 0
 643 333 627 375 600 403 c 0
286 370 m 0
 286 375 267 381 245 381 c 0
 223 381 203 370 203 353 c 0
 203 344 212 338 225 338 c 0
 231 338 238 339 245 342 c 0
 267 353 286 364 286 370 c 0
336 253 m 0
 336 278 337 294 337 301 c 0
 337 305 336 310 334 314 c 0
 331 323 l 0
 294 298 245 227 245 200 c 0
 245 197 246 194 248 192 c 0
 250 189 254 187 257 187 c 0
 265 187 275 196 281 211 c 0
 285 225 289 232 295 232 c 0
 300 232 306 226 314 214 c 0
 318 208 322 206 325 206 c 0
 332 206 336 222 336 253 c 0
9 273 m 0
 9 289 44 297 81 297 c 0
 115 297 149 290 159 275 c 0
 163 269 165 262 165 255 c 0
 165 224 126 191 64 175 c 0
 9 159 3 161 36 186 c 0
 53 200 62 210 62 218 c 0
 62 224 56 229 45 234 c 0
 25 239 9 259 9 273 c 0
45 56 m 0
 31 61 39 61 59 56 c 0
 81 53 109 48 123 48 c 0
 136 48 148 28 148 6 c 0
 148 -21 159 -34 173 -34 c 0
 190 -34 211 -18 228 14 c 0
 241 35 250 45 258 45 c 0
 266 45 273 37 284 20 c 0
 294 4 300 -16 300 -30 c 0
 300 -34 299 -38 298 -41 c 0
 289 -52 298 -64 311 -64 c 0
 328 -64 342 -83 342 -108 c 0
 342 -122 345 -130 351 -130 c 0
 360 -130 374 -117 398 -89 c 0
 423 -57 437 -42 444 -42 c 0
 450 -42 452 -53 453 -75 c 0
 453 -101 462 -113 479 -113 c 0
 484 -113 489 -113 495 -111 c 0
 503 -107 511 -105 519 -105 c 0
 533 -105 546 -111 553 -122 c 0
 558 -131 574 -137 594 -137 c 0
 603 -137 613 -136 623 -133 c 0
 633 -129 642 -127 650 -127 c 0
 665 -127 675 -133 675 -144 c 0
 675 -161 491 -171 322 -171 c 0
 207 -171 98 -166 59 -155 c 0
 27 -147 9 -106 9 -74 c 0
 9 -53 17 -36 36 -36 c 0
 55 -36 65 -14 65 9 c 0
 65 28 58 47 45 56 c 0
181 -114 m 0
 157 -90 116 -74 93 -74 c 0
 84 -74 77 -77 77 -84 c 0
 77 -86 78 -90 81 -94 c 0
 86 -103 97 -109 108 -109 c 0
 113 -109 118 -108 123 -105 c 0
 136 -94 148 -102 148 -116 c 0
 148 -133 161 -147 181 -147 c 0
 194 -147 200 -145 200 -140 c 0
 200 -135 194 -126 181 -114 c 0
286 -119 m 0
 286 -102 275 -91 259 -91 c 0
 245 -91 231 -102 231 -119 c 0
 231 -133 245 -147 259 -147 c 0
 275 -147 286 -133 286 -119 c 0
EndSplineSet
Validated: 1
EndChar

StartChar: endash
Encoding: 150 8211 150
Width: 667
VWidth: 0
Flags: HW
LayerCount: 2
Back
Fore
SplineSet
62 731 m 0
 75 759 105 770 177 770 c 0
 185 770 194 770 204 770 c 0
 273 765 308 756 308 743 c 0
 308 740 307 737 304 734 c 0
 293 722 284 701 284 684 c 0
 284 682 284 680 284 678 c 0
 284 677 284 676 284 675 c 0
 284 655 231 643 177 643 c 0
 141 643 104 649 84 662 c 0
 68 672 59 691 59 711 c 0
 59 718 60 725 62 731 c 0
220 712 m 0
 220 730 188 740 156 740 c 0
 130 740 104 733 95 720 c 0
 93 716 92 712 92 708 c 0
 92 696 100 684 112 675 c 0
 134 662 137 667 123 692 c 0
 119 699 117 705 117 708 c 0
 117 712 119 714 125 714 c 0
 133 714 144 711 162 706 c 0
 175 703 187 701 198 701 c 0
 211 701 220 704 220 712 c 0
412 770 m 0
 415 773 437 775 465 775 c 0
 504 775 506 770 470 748 c 0
 445 731 442 720 462 720 c 0
 479 720 504 731 512 748 c 0
 521 762 554 769 588 769 c 0
 627 769 665 760 665 742 c 0
 665 731 651 714 634 703 c 0
 624 698 619 692 619 686 c 0
 619 679 626 671 640 662 c 0
 667 645 662 639 617 645 c 0
 584 650 545 662 537 673 c 0
 528 682 506 690 484 690 c 0
 480 690 477 689 473 689 c 0
 440 689 442 681 484 664 c 0
 531 642 529 642 465 645 c 0
 418 647 398 659 398 696 c 0
 398 714 403 738 412 770 c 0
317 692 m 0
 309 709 315 720 329 720 c 0
 345 720 359 709 359 692 c 0
 359 678 354 664 348 664 c 0
 340 664 326 678 317 692 c 0
34 534 m 0
 58 544 84 549 110 549 c 0
 154 549 199 535 234 509 c 0
 259 489 272 479 272 475 c 0
 272 473 270 473 267 473 c 0
 259 473 243 476 217 481 c 0
 200 484 187 486 177 486 c 0
 160 486 153 480 153 466 c 0
 153 458 155 448 159 434 c 0
 167 407 172 393 176 393 c 0
 180 393 183 402 187 420 c 0
 191 441 203 454 220 454 c 0
 225 454 231 453 237 450 c 0
 265 439 277 427 277 415 c 0
 277 389 221 365 151 365 c 0
 129 365 105 367 81 373 c 0
 17 387 -2 406 -2 456 c 0
 -2 492 15 528 34 534 c 0
131 400 m 0
 133 402 135 406 135 410 c 0
 135 420 126 436 112 450 c 0
 84 475 81 473 98 434 c 0
 104 411 117 398 126 398 c 0
 128 398 129 398 131 400 c 0
315 514 m 0
 324 539 353 549 424 549 c 0
 439 549 456 549 476 548 c 0
 617 539 623 537 623 456 c 0
 623 373 620 373 470 373 c 0
 351 373 299 394 299 449 c 0
 299 467 305 488 315 514 c 0
592 462 m 0
 594 470 595 477 595 483 c 0
 595 504 585 517 567 517 c 0
 550 517 539 510 539 501 c 0
 539 498 540 495 542 492 c 0
 551 481 542 470 526 470 c 0
 517 470 513 467 513 462 c 0
 513 455 519 445 531 431 c 0
 549 412 560 402 569 402 c 0
 579 402 585 420 592 462 c 0
409 442 m 0
 425 466 433 487 433 495 c 0
 433 497 432 498 431 498 c 0
 414 498 361 425 361 404 c 0
 361 402 361 401 362 400 c 0
 363 399 364 399 365 399 c 0
 374 399 392 417 409 442 c 0
29 281 m 0
 62 293 120 298 177 298 c 0
 257 298 337 288 348 270 c 0
 362 248 354 245 323 256 c 0
 306 263 293 266 286 266 c 0
 282 266 279 264 279 261 c 0
 279 253 293 236 320 209 c 0
 335 194 343 181 343 173 c 0
 343 167 339 164 331 164 c 0
 315 164 306 156 312 145 c 0
 312 144 313 144 313 143 c 0
 313 130 246 120 156 117 c 0
 142 117 129 116 117 116 c 0
 55 116 21 122 21 131 c 0
 21 133 24 136 29 139 c 0
 56 156 56 164 34 164 c 0
 11 164 -1 192 -1 221 c 0
 -1 247 9 274 29 281 c 0
129 192 m 0
 129 195 129 198 129 202 c 0
 129 229 122 254 112 259 c 0
 110 260 109 261 107 261 c 0
 100 261 94 249 94 231 c 0
 94 227 95 224 95 220 c 0
 98 177 107 153 115 153 c 0
 121 153 126 165 129 192 c 0
276 187 m 0
 254 195 226 214 215 231 c 0
 212 236 209 238 207 238 c 0
 201 238 198 225 198 203 c 0
 203 169 211 155 234 155 c 0
 241 155 249 156 259 159 c 0
 283 165 295 171 295 176 c 0
 295 180 289 183 276 187 c 0
395 214 m 0
 392 236 390 254 390 267 c 0
 390 295 400 303 434 303 c 0
 449 303 467 302 490 300 c 0
 589 294 624 287 624 262 c 0
 624 252 618 240 609 223 c 0
 602 208 598 192 598 179 c 0
 598 166 602 155 609 148 c 0
 612 145 613 143 613 140 c 0
 613 129 578 123 520 123 c 0
 409 123 404 128 395 214 c 0
542 198 m 0
 546 204 547 211 547 218 c 0
 547 228 544 238 537 245 c 0
 527 253 510 257 492 257 c 0
 456 257 415 242 415 220 c 0
 415 199 461 183 498 183 c 0
 518 183 535 187 542 198 c 0
70 9 m 0
 81 37 120 53 181 53 c 0
 241 53 275 40 275 22 c 0
 275 11 261 -1 231 -13 c 0
 214 -20 202 -32 202 -44 c 0
 202 -48 203 -52 206 -55 c 0
 207 -57 208 -60 208 -62 c 0
 208 -93 128 -155 88 -155 c 0
 84 -155 79 -154 76 -152 c 0
 61 -143 53 -129 53 -116 c 0
 53 -100 64 -86 84 -86 c 0
 93 -86 98 -92 98 -101 c 0
 98 -106 96 -113 92 -119 c 0
 81 -138 84 -144 95 -133 c 0
 115 -115 126 -86 126 -60 c 0
 126 -40 119 -21 104 -11 c 0
 84 -2 81 -8 92 -25 c 0
 96 -32 98 -38 98 -44 c 0
 98 -52 93 -58 84 -58 c 0
 64 -58 55 -55 55 -43 c 0
 55 -33 60 -17 70 9 c 0
367 -2 m 0
 364 8 363 16 363 23 c 0
 363 50 387 53 467 53 c 0
 540 53 581 39 581 18 c 0
 581 7 568 -7 542 -22 c 0
 526 -31 518 -38 518 -47 c 0
 518 -56 527 -66 545 -83 c 0
 562 -98 572 -106 577 -106 c 0
 579 -106 581 -103 581 -98 c 0
 581 -94 580 -89 579 -83 c 0
 578 -78 578 -72 578 -66 c 0
 578 -14 612 53 640 53 c 0
 656 53 663 30 663 3 c 0
 663 -27 654 -61 637 -72 c 0
 625 -80 619 -90 619 -100 c 0
 619 -105 621 -109 623 -113 c 0
 624 -114 624 -115 624 -116 c 0
 624 -123 602 -127 568 -127 c 0
 555 -127 540 -126 523 -125 c 0
 500 -122 481 -121 467 -121 c 0
 440 -121 428 -125 428 -134 c 0
 428 -137 429 -140 431 -144 c 0
 445 -166 437 -169 401 -147 c 0
 373 -133 345 -100 342 -75 c 0
 342 -71 342 -68 342 -65 c 0
 342 -51 345 -42 352 -42 c 0
 354 -42 356 -42 359 -44 c 0
 361 -45 362 -46 364 -46 c 0
 368 -46 371 -39 371 -29 c 0
 371 -22 370 -12 367 -2 c 0
242 -50 m 0
 220 -41 226 -33 256 -33 c 0
 257 -33 258 -33 259 -33 c 0
 288 -33 301 -49 301 -68 c 0
 301 -95 275 -130 234 -136 c 0
 219 -138 209 -140 202 -140 c 0
 196 -140 194 -139 194 -136 c 0
 194 -131 206 -121 229 -102 c 0
 250 -87 261 -76 261 -67 c 0
 261 -60 254 -55 242 -50 c 0
EndSplineSet
Validated: 1
EndChar

StartChar: emdash
Encoding: 151 8212 151
Width: 667
VWidth: 0
Flags: HW
LayerCount: 2
Back
Fore
SplineSet
535 516 m 0
 569 555 595 578 602 578 c 0
 604 578 605 577 605 575 c 0
 605 571 601 563 593 550 c 0
 591 546 589 541 589 537 c 0
 589 529 595 522 607 522 c 0
 611 522 613 519 613 514 c 0
 613 499 594 461 562 419 c 0
 539 385 527 364 527 360 c 0
 527 359 527 359 528 359 c 0
 530 359 537 366 549 380 c 0
 576 410 604 431 619 431 c 0
 622 431 624 430 626 428 c 0
 628 426 629 424 629 421 c 0
 629 405 609 373 579 341 c 0
 551 313 539 291 539 280 c 0
 539 275 542 272 548 272 c 0
 558 272 579 283 607 308 c 0
 640 336 640 333 612 297 c 0
 589 268 543 253 492 253 c 0
 437 253 376 270 335 303 c 0
 292 336 259 353 226 353 c 0
 191 353 157 333 115 294 c 2
 51 236 l 1
 51 336 l 2
 51 444 110 522 193 522 c 0
 265 522 404 450 421 405 c 0
 429 383 437 391 437 422 c 0
 439 448 449 460 466 460 c 0
 471 460 476 460 482 458 c 0
 489 455 496 453 503 453 c 0
 518 453 532 460 540 472 c 0
 554 491 546 494 521 480 c 0
 516 477 512 475 510 475 c 0
 509 475 508 476 508 477 c 0
 508 482 518 496 535 516 c 0
107 214 m 0
 144 268 178 295 213 295 c 0
 248 295 286 268 332 214 c 0
 376 159 403 138 438 138 c 0
 449 138 462 140 476 144 c 0
 515 153 568 180 590 205 c 0
 608 223 620 232 626 232 c 0
 633 232 635 224 635 208 c 0
 635 150 571 105 457 86 c 0
 435 82 417 80 403 80 c 0
 359 80 343 100 310 158 c 0
 278 213 250 240 220 240 c 0
 193 240 164 217 129 172 c 0
 97 133 75 115 66 115 c 0
 62 115 60 118 60 123 c 0
 60 137 74 169 107 214 c 0
EndSplineSet
Validated: 1
EndChar

StartChar: tilde
Encoding: 152 732 152
Width: 667
VWidth: 0
Flags: HW
LayerCount: 2
Back
Fore
SplineSet
422 481 m 0
 534 600 597 645 637 657 c 0
 638 657 640 658 641 658 c 0
 658 658 667 621 667 583 c 0
 667 539 618 487 528 403 c 0
 453 333 398 274 389 256 c 0
 385 248 363 221 328 181 c 0
 304 154 278 150 278 139 c 0
 278 132 291 118 300 114 c 0
 321 105 332 79 332 57 c 0
 332 38 324 22 306 22 c 0
 292 22 284 43 278 64 c 0
 271 87 270 107 225 107 c 0
 186 107 166 75 152 55 c 0
 130 23 72 -30 32 -40 c 0
 30 -40 29 -41 27 -41 c 0
 9 -41 -7 -18 -7 -8 c 0
 -7 10 25 41 61 74 c 0
 101 111 139 150 139 184 c 0
 139 203 127 211 111 217 c 0
 98 222 83 236 83 258 c 0
 83 281 97 300 111 300 c 0
 128 300 133 280 139 258 c 0
 146 232 153 217 167 217 c 0
 183 217 191 237 200 257 c 0
 209 276 214 284 231 299 c 0
 244 310 329 383 422 481 c 0
EndSplineSet
Validated: 1
EndChar

StartChar: trademark
Encoding: 153 8482 153
Width: 667
VWidth: 0
Flags: HW
LayerCount: 2
Back
Fore
SplineSet
55 754 m 0
 55 768 65 775 79 775 c 0
 105 775 147 755 182 721 c 0
 213 693 268 660 307 649 c 0
 343 638 380 618 388 610 c 0
 396 599 435 571 480 543 c 0
 528 512 553 470 553 422 c 0
 553 393 544 362 527 329 c 0
 519 314 514 303 514 293 c 0
 514 280 523 271 541 263 c 0
 568 253 580 222 580 184 c 0
 580 95 518 -32 446 -32 c 0
 421 -32 355 -57 296 -87 c 0
 241 -118 160 -143 118 -143 c 0
 79 -143 62 -142 62 -133 c 0
 62 -126 73 -114 91 -93 c 0
 118 -65 138 -21 138 4 c 0
 138 36 148 50 161 50 c 0
 176 50 193 31 202 -4 c 0
 210 -33 230 -57 251 -57 c 0
 252 -57 254 -57 255 -57 c 0
 282 -57 282 -51 257 -40 c 0
 238 -35 221 -10 221 13 c 0
 221 35 202 60 180 68 c 0
 146 82 138 140 138 354 c 0
 138 549 127 640 96 679 c 0
 74 707 55 740 55 754 c 0
405 457 m 0
 377 484 351 497 330 497 c 0
 298 497 277 468 277 413 c 0
 277 356 291 329 329 329 c 0
 347 329 370 335 399 346 c 0
 428 357 442 372 442 391 c 0
 442 410 429 431 405 457 c 0
510 199 m 0
 499 232 463 246 385 246 c 0
 282 246 277 240 277 163 c 0
 277 90 288 79 355 79 c 0
 446 79 515 124 515 175 c 0
 515 183 513 191 510 199 c 0
EndSplineSet
Validated: 1
EndChar

StartChar: scaron
Encoding: 154 353 154
Width: 667
VWidth: 0
Flags: HW
LayerCount: 2
Back
Fore
SplineSet
535 541 m 0
 535 531 543 522 553 522 c 0
 563 522 571 531 571 541 c 0
 571 551 563 560 553 560 c 0
 543 560 535 551 535 541 c 0
567 658 m 0
 577 674 584 683 590 683 c 0
 604 683 608 633 608 513 c 2
 608 338 l 1
 550 408 l 2
 500 472 497 472 525 416 c 0
 535 395 540 379 540 369 c 0
 540 359 535 353 527 353 c 0
 509 353 476 376 436 422 c 0
 398 465 370 488 355 488 c 0
 345 488 341 480 341 464 c 0
 341 454 343 441 347 424 c 0
 351 408 353 396 353 387 c 0
 353 373 346 367 328 367 c 0
 317 367 302 369 283 372 c 0
 257 377 239 380 231 380 c 0
 226 380 224 379 224 377 c 0
 224 372 237 361 261 341 c 0
 288 320 302 310 302 304 c 0
 302 299 287 298 256 297 c 0
 203 297 192 280 192 210 c 0
 192 149 195 131 232 131 c 0
 243 131 257 132 275 135 c 0
 290 138 304 139 317 139 c 0
 341 139 358 134 358 127 c 0
 358 119 365 116 376 116 c 0
 384 116 395 118 406 122 c 0
 416 126 424 128 430 128 c 0
 437 128 440 124 440 117 c 0
 440 111 438 101 433 88 c 0
 427 73 423 63 423 58 c 0
 423 55 424 53 427 53 c 0
 433 53 450 64 481 85 c 0
 526 114 571 129 601 129 c 0
 622 129 636 121 636 105 c 0
 636 91 611 72 583 60 c 0
 556 52 525 19 517 -9 c 0
 506 -56 478 -65 353 -65 c 0
 181 -65 158 -53 111 69 c 0
 94 111 86 173 86 239 c 0
 86 351 109 474 150 516 c 0
 197 572 369 630 478 630 c 0
 517 630 558 644 567 658 c 0
EndSplineSet
Validated: 1
EndChar

StartChar: guilsinglright
Encoding: 155 8250 155
Width: 667
VWidth: 0
Flags: HW
LayerCount: 2
Back
Fore
SplineSet
135 502 m 2
 135 632 l 1
 287 632 l 2
 371 632 440 621 440 604 c 0
 440 591 457 577 479 577 c 0
 501 577 546 543 579 502 c 0
 620 451 632 416 632 319 c 0
 632 289 631 254 629 210 c 0
 618 -73 571 -123 315 -140 c 2
 135 -151 l 1
 135 -18 l 2
 135 79 118 132 73 179 c 2
 15 243 l 1
 73 307 l 2
 118 354 135 407 135 502 c 2
451 452 m 0
 423 474 376 493 351 493 c 0
 307 493 301 463 301 229 c 0
 301 -4 307 -34 351 -34 c 0
 376 -34 429 -1 465 35 c 0
 507 81 522 110 522 178 c 0
 522 199 521 225 518 257 c 0
 510 366 490 424 451 452 c 0
218 238 m 0
 218 277 213 297 203 297 c 0
 195 297 186 288 173 268 c 0
 171 263 169 257 169 251 c 0
 169 236 176 219 187 207 c 0
 195 199 201 195 206 195 c 0
 215 195 218 209 218 238 c 0
EndSplineSet
Validated: 1
EndChar

StartChar: oe
Encoding: 156 339 156
Width: 667
VWidth: 0
Flags: HW
LayerCount: 2
Back
Fore
SplineSet
-2 621 m 0
 -2 629 112 638 251 638 c 0
 487 638 509 632 570 565 c 0
 631 501 637 471 637 232 c 0
 637 -124 620 -140 259 -140 c 2
 -10 -140 l 1
 65 -82 l 2
 134 -29 137 -12 137 235 c 0
 137 479 131 499 68 549 c 0
 29 579 -2 613 -2 621 c 0
220 526 m 0
 220 543 206 554 190 554 c 0
 176 554 170 543 179 526 c 0
 187 513 201 499 209 499 c 0
 215 499 220 513 220 526 c 0
456 482 m 0
 411 512 380 530 357 530 c 0
 310 530 304 451 304 235 c 0
 304 -29 309 -57 354 -57 c 0
 381 -57 431 -32 465 -1 c 0
 518 49 526 88 526 246 c 0
 526 418 520 440 456 482 c 0
220 -29 m 0
 220 -12 215 -1 209 -1 c 0
 201 -1 187 -12 179 -29 c 0
 170 -43 176 -57 190 -57 c 0
 206 -57 220 -43 220 -29 c 0
EndSplineSet
Validated: 1
EndChar

StartChar: NameMe.157
Encoding: 157 -1 157
Width: 667
VWidth: 0
Flags: HW
LayerCount: 2
Back
Fore
SplineSet
2 798 m 0
 2 817 6 826 14 826 c 0
 34 826 76 769 135 659 c 0
 188 567 238 492 249 492 c 0
 263 492 288 453 308 406 c 2
 344 320 l 1
 396 420 l 2
 424 475 458 520 469 520 c 0
 480 520 524 589 569 673 c 0
 614 752 654 814 662 814 c 0
 662 814 663 814 663 814 c 0
 664 813 664 812 664 811 c 0
 664 775 498 492 477 492 c 0
 466 492 438 450 413 400 c 0
 394 358 384 334 384 310 c 0
 384 286 394 264 413 228 c 0
 435 181 471 134 488 117 c 0
 525 86 660 -145 660 -172 c 0
 660 -174 659 -175 658 -175 c 0
 649 -175 608 -116 566 -44 c 0
 524 28 471 109 446 134 c 0
 424 159 391 200 374 231 c 0
 361 253 352 265 344 265 c 0
 334 265 325 247 310 209 c 0
 294 164 271 131 258 131 c 0
 244 131 216 98 196 53 c 0
 135 -66 55 -175 30 -175 c 0
 27 -175 25 -173 25 -170 c 0
 25 -159 43 -132 71 -102 c 0
 110 -61 141 -14 141 6 c 0
 141 25 169 70 205 109 c 0
 285 198 318 251 318 302 c 0
 318 323 313 344 302 367 c 0
 285 406 263 436 252 436 c 0
 244 436 194 511 141 603 c 0
 88 695 38 770 24 770 c 0
 13 770 2 784 2 798 c 0
EndSplineSet
Validated: 1
EndChar

StartChar: zcaron
Encoding: 158 382 158
Width: 667
VWidth: 0
Flags: HW
LayerCount: 2
Back
Fore
SplineSet
308 783 m 0
 308 808 328 828 350 828 c 0
 374 828 387 828 387 810 c 0
 387 788 368 740 325 633 c 2
 256 467 l 1
 375 467 l 2
 439 467 506 481 525 500 c 0
 538 513 547 520 552 520 c 0
 555 520 556 518 556 514 c 0
 556 491 521 410 447 256 c 0
 386 128 336 17 336 8 c 0
 336 0 358 -6 383 -6 c 0
 401 -6 410 -8 410 -15 c 0
 410 -24 395 -41 364 -72 c 0
 325 -108 267 -147 233 -158 c 0
 219 -162 208 -165 199 -165 c 0
 172 -165 169 -139 169 -53 c 0
 169 36 173 62 200 62 c 0
 207 62 215 61 225 58 c 0
 231 57 237 56 243 56 c 0
 278 56 300 89 350 200 c 0
 389 286 419 364 419 369 c 0
 419 380 388 385 347 385 c 0
 273 385 167 370 147 350 c 0
 133 336 124 330 119 330 c 0
 117 330 115 332 115 336 c 0
 115 357 147 429 211 553 c 0
 264 658 308 761 308 783 c 0
EndSplineSet
Validated: 1
EndChar

StartChar: Ydieresis
Encoding: 159 376 159
Width: 667
VWidth: 0
Flags: HW
LayerCount: 2
Back
Fore
SplineSet
273 686 m 0
 321 725 365 746 387 746 c 0
 396 746 401 742 401 735 c 0
 401 727 394 715 379 698 c 0
 318 623 288 550 288 473 c 0
 288 444 292 414 301 384 c 0
 318 323 343 267 359 256 c 0
 364 253 368 252 371 252 c 0
 376 252 379 256 379 263 c 0
 379 270 377 279 373 292 c 0
 369 303 367 318 367 334 c 0
 367 362 373 396 382 423 c 0
 392 447 397 465 397 478 c 0
 397 489 392 495 384 495 c 0
 368 495 357 467 357 434 c 0
 355 403 354 388 349 388 c 0
 345 388 338 399 326 420 c 0
 317 436 313 451 313 465 c 0
 313 512 362 547 448 556 c 0
 512 561 540 581 554 634 c 2
 573 703 l 1
 576 628 l 2
 576 626 576 624 576 622 c 0
 576 552 527 483 462 461 c 0
 444 454 433 416 433 353 c 0
 433 341 433 328 434 314 c 0
 434 303 435 293 435 283 c 0
 435 180 412 122 373 122 c 0
 361 122 347 127 332 139 c 0
 295 167 293 167 323 134 c 0
 344 109 356 61 356 23 c 0
 356 -8 348 -33 332 -33 c 0
 318 -33 301 -5 295 31 c 0
 290 71 273 86 239 86 c 0
 236 86 233 86 229 86 c 0
 226 86 223 85 219 85 c 0
 185 85 157 110 132 156 c 0
 112 198 90 242 82 256 c 0
 81 258 81 260 81 261 c 0
 81 266 86 269 95 269 c 0
 102 269 112 267 123 264 c 0
 129 261 134 260 137 260 c 0
 140 260 141 261 141 264 c 0
 141 272 123 294 87 328 c 0
 28 383 -3 422 -3 445 c 0
 -3 460 9 467 34 467 c 0
 83 467 182 311 182 236 c 0
 182 234 182 233 182 231 c 0
 182 229 182 226 182 224 c 0
 182 196 197 173 226 167 c 0
 230 166 233 166 236 166 c 0
 261 166 274 185 274 206 c 0
 274 225 263 245 240 253 c 0
 215 259 204 325 204 445 c 0
 204 606 212 636 273 686 c 0
51 695 m 0
 51 710 59 717 71 717 c 0
 86 717 107 706 129 684 c 0
 148 664 159 586 159 509 c 2
 157 370 l 1
 123 500 l 2
 107 570 84 639 73 650 c 0
 59 661 51 681 51 695 c 0
590 495 m 0
 620 509 636 518 648 519 c 0
 657 520 l 0
 658 520 658 520 658 520 c 0
 658 516 636 485 609 450 c 0
 571 401 553 367 553 332 c 0
 553 305 564 279 584 245 c 0
 596 227 602 211 602 196 c 0
 602 164 569 141 495 120 c 0
 432 100 429 103 479 139 c 0
 506 161 518 182 518 211 c 0
 518 223 516 237 512 253 c 0
 506 277 504 301 504 324 c 0
 504 403 537 470 590 495 c 0
612 370 m 0
 629 408 644 426 652 426 c 0
 658 426 661 418 661 404 c 0
 661 390 658 369 651 342 c 0
 641 308 625 285 612 285 c 0
 610 285 609 285 607 286 c 0
 599 290 596 299 596 312 c 0
 596 328 601 348 612 370 c 0
637 200 m 0
 637 204 636 208 636 212 c 0
 636 229 641 240 646 240 c 0
 647 240 649 239 651 236 c 0
 656 231 659 221 659 209 c 0
 659 201 657 192 654 184 c 0
 645 161 637 170 637 200 c 0
23 170 m 0
 -10 181 -10 186 29 186 c 0
 30 186 32 186 33 186 c 0
 61 186 99 157 123 120 c 0
 150 80 173 61 200 61 c 0
 206 61 213 62 220 64 c 0
 231 68 239 70 246 70 c 0
 266 70 273 56 273 25 c 0
 273 -15 234 -37 197 -37 c 0
 165 -37 134 -20 134 17 c 0
 132 75 82 148 23 170 c 0
579 95 m 0
 579 123 586 135 596 135 c 0
 612 135 633 103 640 53 c 0
 642 38 642 25 642 14 c 0
 642 -6 640 -18 633 -18 c 0
 632 -18 631 -17 629 -16 c 0
 618 -8 607 -14 607 -27 c 0
 607 -41 557 -55 495 -55 c 0
 486 -55 478 -55 470 -55 c 0
 400 -55 384 -42 384 -2 c 0
 384 31 412 61 457 81 c 0
 488 92 511 97 525 97 c 0
 538 97 544 93 544 86 c 0
 544 74 528 52 495 23 c 0
 469 1 455 -18 455 -27 c 0
 455 -31 457 -33 462 -33 c 0
 504 -33 579 48 579 95 c 0
EndSplineSet
Validated: 1
EndChar

StartChar: uni00A0
Encoding: 160 160 160
Width: 667
VWidth: 0
Flags: HW
LayerCount: 2
Back
Fore
SplineSet
321 674 m 0
 321 664 329 655 339 655 c 0
 349 655 357 664 357 674 c 0
 357 684 349 693 339 693 c 0
 329 693 321 684 321 674 c 0
375 674 m 0
 375 664 383 655 393 655 c 0
 403 655 411 664 411 674 c 0
 411 684 403 693 393 693 c 0
 383 693 375 684 375 674 c 0
278 630 m 0
 278 736 283 741 361 741 c 0
 439 741 445 736 445 630 c 0
 445 525 439 519 361 519 c 0
 283 519 278 525 278 630 c 0
56 575 m 0
 56 605 75 630 97 630 c 0
 120 630 139 605 139 575 c 0
 139 544 120 519 97 519 c 0
 75 519 56 544 56 575 c 0
583 575 m 0
 583 605 603 630 625 630 c 0
 647 630 667 605 667 575 c 0
 667 544 647 519 625 519 c 0
 603 519 583 544 583 575 c 0
83 422 m 0
 83 472 97 491 139 491 c 0
 181 491 195 472 195 422 c 0
 195 372 181 353 139 353 c 0
 97 353 83 372 83 422 c 0
500 422 m 0
 500 478 514 491 570 491 c 0
 625 491 639 478 639 422 c 0
 639 366 625 353 570 353 c 0
 514 353 500 366 500 422 c 0
222 353 m 1
 222 464 l 1
 333 464 l 1
 445 464 l 1
 445 353 l 1
 445 241 l 1
 333 241 l 1
 222 241 l 1
 222 353 l 1
167 144 m 0
 167 166 192 186 222 186 c 0
 253 186 278 166 278 144 c 0
 278 122 253 103 222 103 c 0
 192 103 167 122 167 144 c 0
500 144 m 0
 500 166 520 186 542 186 c 0
 564 186 583 166 583 144 c 0
 583 122 564 103 542 103 c 0
 520 103 500 122 500 144 c 0
500 5 m 0
 500 61 514 75 570 75 c 0
 625 75 639 61 639 5 c 0
 639 -50 625 -64 570 -64 c 0
 514 -64 500 -50 500 5 c 0
111 -9 m 0
 111 36 131 47 195 47 c 0
 258 47 278 36 278 -9 c 0
 278 -53 258 -64 195 -64 c 0
 131 -64 111 -53 111 -9 c 0
EndSplineSet
Validated: 1
EndChar

StartChar: exclamdown
Encoding: 161 161 161
Width: 667
VWidth: 0
Flags: HW
LayerCount: 2
Back
Fore
SplineSet
196 749 m 0
 196 766 210 777 224 777 c 0
 240 777 251 766 251 749 c 0
 251 735 240 722 224 722 c 0
 210 722 196 735 196 749 c 0
279 735 m 0
 302 762 338 777 371 777 c 0
 398 777 422 767 435 747 c 0
 440 736 446 731 452 731 c 0
 459 731 467 738 476 752 c 0
 484 766 496 774 507 774 c 0
 512 774 517 772 521 769 c 0
 525 764 527 759 527 754 c 0
 527 744 520 734 510 727 c 0
 484 711 469 661 469 598 c 0
 469 585 470 572 471 558 c 0
 471 554 472 552 475 552 c 0
 487 552 522 590 560 649 c 0
 601 719 643 770 655 770 c 0
 656 770 656 770 657 769 c 0
 659 767 660 763 660 757 c 0
 660 717 601 599 551 549 c 0
 524 522 501 463 501 416 c 0
 501 366 474 308 432 266 c 2
 363 197 l 1
 293 260 l 2
 249 302 224 355 224 408 c 0
 224 455 188 538 140 605 c 0
 86 680 60 725 60 739 c 0
 60 742 61 743 64 743 c 0
 72 743 90 731 118 705 c 0
 154 674 207 633 235 610 c 0
 255 593 268 585 273 585 c 0
 276 585 277 587 277 591 c 0
 277 599 274 612 268 633 c 0
 263 648 260 662 260 677 c 0
 260 700 267 721 279 735 c 0
415 666 m 0
 423 671 427 675 427 678 c 0
 427 684 411 688 379 688 c 0
 332 688 310 685 310 679 c 0
 310 674 321 667 343 658 c 0
 351 655 362 653 372 653 c 0
 388 653 405 657 415 666 c 0
410 566 m 0
 412 568 413 569 413 571 c 0
 413 576 403 581 385 581 c 0
 382 581 378 580 374 580 c 0
 343 580 335 572 357 563 c 0
 365 560 374 558 382 558 c 0
 394 558 405 561 410 566 c 0
349 388 m 0
 329 388 304 416 299 452 c 0
 288 505 288 502 282 438 c 0
 282 432 282 426 282 420 c 0
 282 370 296 360 349 360 c 0
 401 360 415 370 415 420 c 0
 415 426 415 432 415 438 c 0
 410 502 410 505 399 452 c 0
 393 416 368 388 349 388 c 0
60 488 m 0
 92 522 111 537 127 537 c 0
 138 537 148 531 160 519 c 0
 175 504 182 481 182 458 c 0
 182 423 165 388 138 388 c 0
 129 388 123 376 123 356 c 0
 123 346 125 333 129 319 c 0
 132 306 134 294 134 284 c 0
 134 259 124 247 109 247 c 0
 87 247 53 277 29 333 c 0
 16 364 9 385 9 402 c 0
 9 429 25 450 60 488 c 0
543 499 m 0
 554 530 571 555 582 555 c 0
 619 555 660 435 660 349 c 0
 660 338 659 326 657 316 c 0
 651 272 643 227 643 216 c 0
 640 202 621 194 596 194 c 0
 573 194 562 202 562 224 c 0
 562 234 564 247 568 263 c 0
 572 277 574 293 574 310 c 0
 574 339 568 370 557 391 c 0
 545 412 539 443 539 468 c 0
 539 480 541 491 543 499 c 0
190 258 m 0
 193 269 201 277 210 277 c 0
 212 277 213 273 213 267 c 0
 213 259 211 248 207 235 c 0
 204 228 203 223 203 218 c 0
 203 202 216 194 246 194 c 0
 298 194 318 185 318 135 c 0
 318 108 312 68 301 10 c 0
 285 -81 260 -131 235 -131 c 0
 217 -131 205 -121 205 -106 c 0
 205 -103 205 -99 207 -95 c 0
 209 -91 209 -87 209 -84 c 0
 209 -72 201 -67 189 -67 c 0
 166 -67 130 -85 110 -115 c 0
 100 -131 93 -138 90 -138 c 0
 87 -138 86 -135 86 -130 c 0
 86 -102 113 -10 163 138 c 0
 171 160 179 194 182 208 c 0
 185 224 190 244 190 258 c 0
207 41 m 0
 210 48 211 55 211 61 c 0
 211 74 205 83 196 83 c 0
 179 83 168 63 168 41 c 0
 168 19 174 -1 179 -1 c 0
 185 -1 196 19 207 41 c 0
410 172 m 0
 418 186 442 193 466 193 c 0
 497 193 529 182 529 163 c 0
 529 149 540 141 551 149 c 0
 552 150 553 150 555 150 c 0
 566 150 576 126 579 94 c 0
 582 55 596 -1 613 -28 c 0
 630 -61 639 -85 639 -102 c 0
 639 -122 626 -131 599 -131 c 0
 579 -131 566 -121 566 -108 c 0
 566 -104 566 -101 568 -98 c 0
 569 -95 570 -92 570 -89 c 0
 570 -76 559 -65 543 -65 c 0
 528 -65 518 -75 518 -89 c 0
 518 -93 519 -98 521 -103 c 0
 523 -107 524 -112 524 -115 c 0
 524 -130 513 -140 493 -140 c 0
 468 -140 443 -90 424 5 c 0
 414 63 406 118 406 149 c 0
 406 160 407 169 410 172 c 0
557 41 m 0
 557 63 546 83 529 83 c 0
 520 83 514 74 514 61 c 0
 514 55 515 48 518 41 c 0
 529 14 539 1 546 1 c 0
 553 1 557 14 557 41 c 0
EndSplineSet
Validated: 1
EndChar

StartChar: cent
Encoding: 162 162 162
Width: 667
VWidth: 0
Flags: HW
LayerCount: 2
Back
Fore
SplineSet
270 767 m 0
 298 800 359 825 411 825 c 0
 418 825 425 825 431 825 c 0
 489 825 500 812 503 767 c 0
 503 742 507 729 512 729 c 0
 514 729 517 732 520 739 c 0
 530 762 543 773 558 773 c 0
 587 773 622 732 642 661 c 0
 655 619 662 591 662 564 c 0
 662 527 648 494 617 436 c 0
 578 363 558 302 558 253 c 0
 558 213 571 182 598 161 c 0
 624 138 637 106 637 72 c 0
 637 34 622 -6 592 -39 c 0
 570 -62 559 -77 559 -89 c 0
 559 -99 568 -108 584 -117 c 0
 603 -129 611 -140 611 -148 c 0
 611 -160 595 -167 567 -167 c 0
 550 -167 528 -164 503 -158 c 0
 450 -146 416 -112 416 -88 c 0
 416 -72 429 -61 459 -61 c 0
 481 -61 500 -56 500 -50 c 0
 500 -45 509 -20 517 5 c 0
 520 14 522 21 522 27 c 0
 522 43 511 50 489 50 c 0
 464 50 445 64 445 78 c 0
 445 95 414 105 370 105 c 0
 337 105 297 100 256 89 c 0
 216 78 202 65 202 37 c 0
 202 28 203 17 206 5 c 0
 209 -5 210 -16 210 -28 c 0
 210 -95 165 -172 120 -172 c 0
 97 -172 85 -163 85 -149 c 0
 85 -135 96 -116 117 -95 c 0
 128 -83 134 -72 134 -61 c 0
 134 -51 129 -40 120 -28 c 0
 85 15 68 54 68 91 c 0
 68 129 86 165 123 200 c 0
 169 242 192 280 192 311 c 0
 192 337 175 357 142 369 c 0
 111 378 78 411 70 442 c 0
 59 469 39 494 25 494 c 0
 7 494 -1 507 -1 527 c 0
 -1 565 30 630 81 683 c 0
 119 727 147 748 168 748 c 0
 176 748 183 745 189 739 c 0
 196 732 203 729 212 729 c 0
 227 729 246 741 270 767 c 0
425 728 m 0
 425 730 426 731 426 733 c 0
 426 750 403 759 377 759 c 0
 352 759 322 750 306 733 c 0
 300 724 296 717 296 712 c 0
 296 703 306 699 330 699 c 0
 335 699 341 700 348 700 c 0
 386 703 420 717 425 728 c 0
556 644 m 0
 556 669 519 678 411 678 c 0
 400 678 388 678 375 678 c 0
 217 676 141 657 141 612 c 0
 141 586 167 552 217 508 c 0
 336 400 359 383 375 383 c 0
 420 383 556 578 556 644 c 0
317 567 m 0
 328 610 352 632 375 632 c 0
 399 632 422 610 434 567 c 0
 438 548 441 531 441 515 c 0
 441 466 418 439 375 439 c 0
 333 439 310 466 310 515 c 0
 310 530 312 548 317 567 c 0
EndSplineSet
Validated: 1
EndChar

StartChar: sterling
Encoding: 163 163 163
Width: 667
VWidth: 0
Flags: HW
LayerCount: 2
Back
Fore
SplineSet
162 147 m 0
 162 137 170 128 180 128 c 0
 190 128 198 137 198 147 c 0
 198 157 190 166 180 166 c 0
 170 166 162 157 162 147 c 0
416 742 m 0
 416 764 430 773 450 773 c 0
 486 773 541 742 566 695 c 0
 587 657 597 639 603 639 c 0
 608 639 610 652 611 678 c 0
 611 712 622 745 636 753 c 0
 636 753 637 753 637 753 c 0
 646 753 650 698 650 609 c 0
 650 565 649 513 647 456 c 0
 630 89 591 6 397 -102 c 0
 316 -149 251 -172 205 -172 c 0
 164 -172 137 -154 125 -119 c 0
 116 -88 94 -63 80 -63 c 0
 64 -63 56 8 56 88 c 0
 56 172 65 266 83 300 c 0
 102 333 126 350 159 350 c 0
 190 350 229 335 280 306 c 0
 316 285 339 274 362 274 c 0
 381 274 401 282 428 298 c 0
 499 336 541 418 541 507 c 0
 541 535 537 564 528 592 c 0
 511 642 480 689 458 698 c 0
 436 706 416 725 416 742 c 0
289 34 m 0
 291 40 292 46 292 51 c 0
 292 66 283 75 264 75 c 0
 241 75 222 56 222 34 c 0
 222 12 233 -8 247 -8 c 0
 261 -8 278 12 289 34 c 0
222 -83 m 0
 242 -68 251 -58 251 -47 c 0
 251 -36 242 -24 222 -5 c 0
 202 13 189 22 178 22 c 0
 167 22 156 14 141 -2 c 0
 128 -16 122 -30 122 -44 c 0
 122 -73 148 -98 180 -98 c 0
 194 -98 208 -94 222 -83 c 0
155 -33 m 0
 161 -24 170 -19 180 -19 c 0
 186 -19 192 -21 197 -25 c 0
 206 -30 211 -39 211 -49 c 0
 211 -55 209 -61 205 -66 c 0
 200 -75 190 -81 180 -81 c 0
 175 -81 169 -79 164 -75 c 0
 155 -69 149 -59 149 -49 c 0
 149 -44 151 -38 155 -33 c 0
EndSplineSet
Validated: 1
EndChar

StartChar: currency
Encoding: 164 164 164
Width: 667
VWidth: 0
Flags: HW
LayerCount: 2
Back
Fore
SplineSet
223 676 m 4
 223 666 235 657 249 657 c 4
 263 657 275 666 275 676 c 4
 275 686 263 695 249 695 c 4
 235 695 223 686 223 676 c 4
296 676 m 0
 296 666 304 657 314 657 c 0
 324 657 332 666 332 676 c 0
 332 686 324 695 314 695 c 0
 304 695 296 686 296 676 c 0
64 718 m 0
 95 754 156 773 212 773 c 0
 259 773 304 760 327 732 c 0
 339 717 346 693 346 667 c 0
 346 655 344 643 341 632 c 0
 332 604 325 591 316 591 c 0
 310 591 303 598 294 610 c 0
 275 638 275 632 286 588 c 0
 290 574 292 562 292 553 c 0
 292 532 281 524 258 524 c 0
 236 524 202 552 189 588 c 2
 164 649 l 1
 164 588 l 2
 161 552 150 524 133 524 c 0
 116 524 108 526 108 539 c 0
 108 551 115 574 130 616 c 0
 139 639 143 655 143 665 c 0
 143 676 139 681 131 681 c 0
 129 681 127 681 125 680 c 0
 72 671 22 635 22 599 c 0
 22 594 24 591 27 591 c 0
 34 591 48 603 64 624 c 0
 80 647 90 658 96 658 c 0
 101 658 104 650 105 635 c 0
 105 610 91 577 72 557 c 0
 60 545 54 537 54 532 c 0
 54 526 61 524 75 524 c 0
 94 524 102 511 102 480 c 0
 102 466 100 449 97 427 c 0
 93 403 91 384 91 370 c 0
 91 333 106 323 150 313 c 0
 186 305 216 285 216 268 c 0
 216 259 206 253 191 253 c 0
 184 253 177 255 169 257 c 0
 141 263 91 277 58 288 c 0
 19 299 -8 336 -8 361 c 0
 -8 375 0 385 19 385 c 0
 44 385 60 425 60 461 c 0
 60 485 53 507 36 513 c 0
 16 521 6 545 6 575 c 0
 6 620 27 679 64 718 c 0
314 521 m 0
 327 543 346 553 363 553 c 0
 380 553 395 542 395 523 c 0
 395 518 394 512 391 505 c 0
 380 477 361 446 350 438 c 0
 327 423 316 378 316 338 c 0
 316 303 324 271 341 263 c 0
 361 257 391 193 414 124 c 0
 433 55 461 -4 472 -4 c 0
 483 -4 494 -15 494 -32 c 0
 494 -45 472 -59 447 -59 c 0
 427 -59 417 -60 417 -65 c 0
 417 -71 430 -82 455 -101 c 0
 480 -120 493 -129 493 -135 c 0
 493 -141 477 -141 447 -143 c 0
 408 -143 383 -126 383 -101 c 0
 383 -57 252 -15 142 -15 c 0
 120 -15 99 -16 80 -20 c 0
 59 -25 42 -27 28 -27 c 0
 6 -27 -6 -21 -6 -7 c 0
 -6 42 133 221 169 221 c 0
 171 221 174 220 175 218 c 0
 180 211 186 207 194 207 c 0
 204 207 216 213 230 227 c 0
 244 239 251 249 251 259 c 0
 251 273 239 289 214 316 c 0
 186 349 158 405 155 441 c 0
 154 452 153 461 153 469 c 0
 153 496 162 505 189 505 c 0
 198 505 209 504 222 502 c 0
 229 501 237 500 244 500 c 0
 276 500 304 510 314 521 c 0
264 368 m 0
 266 370 267 372 267 373 c 0
 267 379 257 383 240 383 c 0
 236 383 232 382 227 382 c 0
 197 382 189 374 211 366 c 0
 219 362 228 360 237 360 c 0
 248 360 259 363 264 368 c 0
411 443 m 0
 411 472 414 484 426 484 c 0
 434 484 447 478 466 468 c 0
 497 452 522 427 522 410 c 0
 522 399 532 393 547 393 c 0
 556 393 566 395 577 399 c 0
 589 402 599 404 607 404 c 0
 625 404 633 395 633 374 c 0
 633 350 620 338 586 338 c 0
 577 338 565 339 552 341 c 0
 447 352 411 377 411 443 c 0
77 -73 m 0
 93 -56 111 -45 125 -45 c 0
 129 -45 133 -46 136 -48 c 0
 146 -54 151 -63 151 -71 c 0
 151 -92 124 -115 86 -115 c 0
 67 -115 58 -113 58 -105 c 0
 58 -99 64 -89 77 -73 c 0
EndSplineSet
Validated: 1
EndChar

StartChar: yen
Encoding: 165 165 165
Width: 667
VWidth: 0
Flags: HW
LayerCount: 2
Back
Fore
SplineSet
266 746 m 0
 274 760 308 774 336 774 c 0
 380 774 409 753 409 733 c 0
 409 721 400 710 380 702 c 0
 366 697 351 695 337 695 c 0
 298 695 262 712 262 734 c 0
 262 738 263 742 266 746 c 0
372 727 m 0
 376 729 379 731 379 733 c 0
 379 738 364 741 336 741 c 0
 309 741 294 738 294 734 c 0
 294 732 296 729 302 727 c 0
 310 724 323 722 336 722 c 0
 349 722 362 724 372 727 c 0
291 624 m 0
 301 650 319 663 337 663 c 0
 363 663 391 638 402 594 c 0
 408 570 411 551 411 535 c 0
 411 496 394 479 359 479 c 0
 354 479 348 479 341 480 c 0
 304 486 281 524 281 571 c 0
 281 588 284 606 291 624 c 0
61 482 m 0
 91 566 127 635 138 635 c 0
 149 635 174 605 191 569 c 0
 201 547 206 526 206 501 c 0
 206 463 194 415 169 338 c 0
 138 249 102 132 88 80 c 2
 63 -18 l 1
 61 74 l 2
 58 121 47 163 30 163 c 0
 11 163 3 187 3 227 c 0
 3 287 23 383 61 482 c 0
502 599 m 0
 502 625 508 636 519 636 c 0
 553 636 630 512 655 388 c 0
 660 363 663 323 663 278 c 0
 663 232 660 182 655 138 c 0
 644 54 637 18 628 18 c 0
 623 18 618 28 611 46 c 0
 597 80 574 107 561 107 c 0
 547 107 516 116 491 124 c 0
 485 126 480 127 475 127 c 0
 457 127 447 113 447 95 c 0
 447 75 458 53 483 41 c 0
 495 34 501 29 501 24 c 0
 501 19 494 14 480 7 c 0
 468 1 461 -4 461 -11 c 0
 461 -20 472 -31 494 -48 c 0
 515 -63 526 -71 526 -77 c 0
 526 -84 509 -85 472 -87 c 0
 416 -87 394 -70 380 -18 c 0
 369 26 351 49 336 49 c 0
 320 49 308 26 308 -18 c 0
 308 -73 294 -87 238 -87 c 0
 199 -87 183 -85 183 -72 c 0
 183 -63 190 -50 202 -29 c 0
 218 -4 225 12 225 23 c 0
 225 34 218 40 202 44 c 0
 188 50 181 55 181 64 c 0
 181 71 187 81 199 96 c 0
 212 111 219 127 219 139 c 0
 219 146 217 151 213 155 c 0
 205 163 197 157 197 141 c 0
 197 121 183 107 166 107 c 0
 155 107 150 120 150 145 c 0
 150 184 162 251 186 338 c 0
 193 360 198 371 206 371 c 0
 214 371 224 362 241 346 c 0
 266 320 278 296 278 277 c 0
 278 260 268 246 247 238 c 0
 233 234 227 227 227 219 c 0
 227 214 230 208 236 202 c 0
 241 196 247 193 253 193 c 0
 261 193 268 200 272 213 c 0
 280 235 315 246 350 246 c 0
 384 246 419 235 427 213 c 0
 429 207 430 204 431 204 c 0
 431 204 432 206 432 208 c 0
 432 214 430 226 427 246 c 0
 427 251 426 256 426 262 c 0
 426 298 435 338 447 357 c 0
 460 376 467 385 474 385 c 0
 482 385 490 376 502 357 c 0
 516 335 530 280 533 232 c 0
 535 198 537 181 541 181 c 0
 543 181 546 188 549 202 c 0
 552 211 553 221 553 234 c 0
 553 315 501 461 467 461 c 0
 466 461 464 460 463 460 c 0
 449 455 424 410 413 363 c 0
 399 306 373 277 348 277 c 0
 325 277 303 301 291 352 c 0
 280 394 258 438 241 449 c 0
 238 451 236 453 236 455 c 0
 236 459 245 461 260 461 c 0
 271 461 285 460 302 457 c 0
 315 455 327 455 338 455 c 0
 384 455 416 469 447 505 c 0
 477 535 502 580 502 599 c 0
EndSplineSet
Validated: 1
EndChar

